<?xml version="1.0" encoding="UTF-8" standalone="no"?>
<!DOCTYPE svg PUBLIC "-//W3C//DTD SVG 1.0//EN" "http://www.w3.org/TR/2001/REC-SVG-20010904/DTD/svg10.dtd">
<!-- 由 Microsoft Visio 11.0, SVG Export, v1.0 生成 水泵试运行功能-水泵试运行过程.svg 水泵试运行功能-水泵试运行过程 -->
<svg xmlns="http://www.w3.org/2000/svg" xmlns:xlink="http://www.w3.org/1999/xlink" xmlns:ev="http://www.w3.org/2001/xml-events"
		xmlns:v="http://schemas.microsoft.com/visio/2003/SVGExtensions/" width="6.69159in" height="4.8342in"
		viewBox="0 0 481.795 348.062" xml:space="preserve" color-interpolation-filters="sRGB" class="st17">
	<v:documentProperties v:langID="2052" v:metric="true" v:viewMarkup="false"/>

	<style type="text/css">
	<![CDATA[
		.st1 {fill:#ffffff;stroke:none;stroke-linecap:round;stroke-linejoin:round;stroke-width:0.72}
		.st2 {marker-end:url(#mrkr1-8);stroke:#000000;stroke-linecap:round;stroke-linejoin:round;stroke-width:0.24}
		.st3 {fill:#000000;fill-opacity:1;stroke:#000000;stroke-opacity:1;stroke-width:0.08695652173913}
		.st4 {fill:none;marker-end:url(#mrkr1-12);stroke:none;stroke-linecap:round;stroke-linejoin:round;stroke-width:0.72}
		.st5 {fill:#000000;fill-opacity:1;stroke:#000000;stroke-opacity:1;stroke-width:0.22222222222222}
		.st6 {fill:#000000;font-family:Arial;font-size:0.833336em}
		.st7 {marker-end:url(#mrkr4-19);stroke:#000000;stroke-linecap:round;stroke-linejoin:round;stroke-width:0.24}
		.st8 {fill:#000000;font-family:Arial;font-size:0.874992em}
		.st9 {marker-end:url(#mrkr1-8);marker-start:url(#mrkr1-30);stroke:#000000;stroke-linecap:round;stroke-linejoin:round;stroke-width:0.24}
		.st10 {stroke:#000000;stroke-linecap:round;stroke-linejoin:round;stroke-width:0.24}
		.st11 {stroke:#000000;stroke-dasharray:1.68,1.2;stroke-linecap:round;stroke-linejoin:round;stroke-width:0.24}
		.st12 {fill:#000000;font-family:Arial;font-size:0.75em}
		.st13 {fill:#000000;font-family:Arial;font-size:0.666664em}
		.st14 {fill:#000000;font-family:Arial;font-size:0.499992em}
		.st15 {marker-end:url(#mrkr1-144);marker-start:url(#mrkr1-142);stroke:#000000;stroke-linecap:round;stroke-linejoin:round;stroke-width:1.5}
		.st16 {fill:#000000;fill-opacity:1;stroke:#000000;stroke-opacity:1;stroke-width:0.37313432835821}
		.st17 {fill:none;fill-rule:evenodd;font-size:12px;overflow:visible;stroke-linecap:square;stroke-miterlimit:3}
	]]>
	</style>

	<defs id="Markers">
		<g id="lend1">
			<path d="M 1 -1 L 0 0 L 1 1 " style="stroke-linecap:round;stroke-linejoin:round;fill:none"/>
		</g>
		<marker id="mrkr1-8" class="st3" v:arrowType="1" v:arrowSize="2" orient="auto" markerUnits="strokeWidth" overflow="visible">
			<use xlink:href="#lend1" transform="scale(-11.5,-11.5) "/>
		</marker>
		<marker id="mrkr1-12" class="st5" v:arrowType="1" v:arrowSize="2" orient="auto" markerUnits="strokeWidth"
				overflow="visible">
			<use xlink:href="#lend1" transform="scale(-4.5,-4.5) "/>
		</marker>
		<g id="lend4">
			<path d="M 2 1 L 0 0 L 2 -1 L 2 1 " style="stroke:none"/>
		</g>
		<marker id="mrkr4-19" class="st3" v:arrowType="4" v:arrowSize="2" v:setback="23" refX="-23" orient="auto"
				markerUnits="strokeWidth" overflow="visible">
			<use xlink:href="#lend4" transform="scale(-11.5,-11.5) "/>
		</marker>
		<marker id="mrkr1-30" class="st3" v:arrowType="1" v:arrowSize="2" orient="auto" markerUnits="strokeWidth"
				overflow="visible">
			<use xlink:href="#lend1" transform="scale(11.5) "/>
		</marker>
		<marker id="mrkr1-142" class="st16" v:arrowType="1" v:arrowSize="2" orient="auto" markerUnits="strokeWidth"
				overflow="visible">
			<use xlink:href="#lend1" transform="scale(2.68) "/>
		</marker>
		<marker id="mrkr1-144" class="st16" v:arrowType="1" v:arrowSize="2" orient="auto" markerUnits="strokeWidth"
				overflow="visible">
			<use xlink:href="#lend1" transform="scale(-2.68,-2.68) "/>
		</marker>
	</defs>
	<g v:mID="4" v:index="1" v:groupContext="backgroundPage">
		<v:userDefs>
			<v:ud v:nameU="msvVisioCreated" v:prompt="" v:val="VT0(0):26"/>
		</v:userDefs>
		<title>背景-1</title>
		<v:pageProperties width="6.69159" height="4.8342" v:drawingScale="0.0393701" v:pageScale="0.0393701" v:drawingUnits="24"
				v:shadowOffsetX="8.50394" v:shadowOffsetY="-8.50394"/>
		<g id="shape1-1" v:mID="1" v:groupContext="shape">
			<title>实心</title>
			<v:userDefs>
				<v:ud v:nameU="Background" v:val="VT0(0):26"/>
				<v:ud v:nameU="visVersion" v:val="VT0(14):26"/>
				<v:ud v:nameU="msvShapeCategories" v:prompt="" v:val="VT4(DoNotContain)"/>
				<v:ud v:nameU="msvVisioCreated" v:prompt="" v:val="VT0(0):26"/>
			</v:userDefs>
			<rect x="0" y="0" width="481.795" height="348.062" class="st1"/>
		</g>
	</g>
	<g v:mID="0" v:index="2" v:groupContext="foregroundPage">
		<title>水泵试运行功能-水泵试运行过程</title>
		<v:pageProperties v:drawingScale="0.0393701" v:pageScale="0.0393701" v:drawingUnits="24" v:shadowOffsetX="8.50394"
				v:shadowOffsetY="-8.50394"/>
		<v:layer v:name="连接线" v:index="0"/>
		<g id="shape18-3" v:mID="18" v:groupContext="shape" transform="translate(56.9491,-63.7015)">
			<title>工作表.18</title>
			<path d="M0 348.06 L390.22 348.06" class="st2"/>
		</g>
		<g id="shape25-9" v:mID="25" v:groupContext="shape" transform="translate(432.283,-42.9273)">
			<title>工作表.25</title>
			<desc>t</desc>
			<v:textBlock v:margins="rect(4,4,4,4)" v:tabSpace="42.5197"/>
			<v:textRect cx="13.4646" cy="340.062" width="26.93" height="16"/>
			<rect x="0" y="332.062" width="26.9291" height="16" class="st4"/>
			<text x="12.08" y="342.56" class="st6" v:langID="2052"><v:paragraph v:spLine="-1" v:horizAlign="1"/><v:tabList/>t</text>		</g>
		<g id="shape1-14" v:mID="1" v:groupContext="shape" v:layerMember="0" transform="translate(78.9426,-26.4233)">
			<title>动态连接线</title>
			<path d="M7.09 348.06 L7.09 63.94" class="st7"/>
		</g>
		<g id="shape21-20" v:mID="21" v:groupContext="shape" transform="translate(23.5971,-133.234)">
			<title>工作表.21</title>
			<desc>PUMPf</desc>
			<v:textBlock v:margins="rect(4,4,4,4)" v:tabSpace="42.5197"/>
			<v:textRect cx="21.7572" cy="340.062" width="43.52" height="16"/>
			<rect x="0" y="332.062" width="43.5144" height="16" class="st4"/>
			<text x="4" y="342.69" class="st8" v:langID="2052"><v:paragraph v:spLine="-1"/><v:tabList/>PUMPf</text>		</g>
		<g id="shape50-24" v:mID="50" v:groupContext="shape" transform="translate(107.629,-38.5808)">
			<title>工作表.50</title>
			<path d="M0 348.06 L318.7 348.06" class="st9"/>
		</g>
		<g id="shape51-32" v:mID="51" v:groupContext="shape" transform="translate(86.0292,-136.52)">
			<title>工作表.51</title>
			<path d="M0 348.06 L21.21 348.06" class="st10"/>
		</g>
		<g id="shape52-35" v:mID="52" v:groupContext="shape" transform="translate(-240.774,315.214) rotate(-90)">
			<title>工作表.52</title>
			<path d="M0 348.06 L282.15 348.06" class="st11"/>
		</g>
		<g id="shape54-38" v:mID="54" v:groupContext="shape" transform="translate(214.016,-22.5821)">
			<title>工作表.54</title>
			<desc>STRP</desc>
			<v:textBlock v:margins="rect(4,4,4,4)" v:tabSpace="42.5197"/>
			<v:textRect cx="51.7323" cy="340.062" width="103.47" height="16"/>
			<rect x="0" y="332.062" width="103.465" height="16" class="st4"/>
			<text x="39.73" y="342.31" class="st12" v:langID="2052"><v:paragraph v:spLine="-1" v:horizAlign="1"/><v:tabList/>STRP</text>		</g>
		<g id="shape7-42" v:mID="7" v:groupContext="shape" transform="translate(23.0997,-107.199)">
			<title>工作表.7</title>
			<desc>PUMPo</desc>
			<v:textBlock v:margins="rect(4,4,4,4)" v:tabSpace="42.5197"/>
			<v:textRect cx="23.8832" cy="340.062" width="47.77" height="16"/>
			<rect x="0" y="332.062" width="47.7664" height="16" class="st4"/>
			<text x="4" y="342.69" class="st8" v:langID="2052"><v:paragraph v:spLine="-1"/><v:tabList/>PUMPo</text>		</g>
		<g id="shape8-46" v:mID="8" v:groupContext="shape" transform="translate(105.486,-143.15)">
			<title>工作表.8</title>
			<desc>ON</desc>
			<v:textBlock v:margins="rect(4,4,4,4)" v:tabSpace="42.5197"/>
			<v:textRect cx="14.135" cy="340.062" width="28.28" height="16"/>
			<rect x="0" y="332.062" width="28.27" height="16" class="st4"/>
			<text x="8.14" y="342.06" class="st13" v:langID="2052"><v:paragraph v:spLine="-1" v:horizAlign="1"/><v:tabList/>ON</text>		</g>
		<g id="shape12-50" v:mID="12" v:groupContext="shape" transform="translate(86.0292,-110.485)">
			<title>工作表.12</title>
			<path d="M0 348.06 L100.17 348.06" class="st10"/>
		</g>
		<g id="shape5-53" v:mID="5" v:groupContext="shape" transform="translate(107.243,-147.122)">
			<title>工作表.5</title>
			<path d="M0 348.06 L66.28 348.06" class="st10"/>
		</g>
		<g id="shape53-56" v:mID="53" v:groupContext="shape" transform="translate(-240.774,211.542) rotate(-90)">
			<title>工作表.53</title>
			<path d="M0 348.06 L10.59 348.06" class="st10"/>
		</g>
		<g id="shape14-59" v:mID="14" v:groupContext="shape" transform="translate(-161.921,237.578) rotate(-90)">
			<title>工作表.14</title>
			<path d="M0 348.06 L10.59 348.06" class="st10"/>
		</g>
		<g id="shape35-62" v:mID="35" v:groupContext="shape" transform="translate(186.425,-120.814)">
			<title>工作表.35</title>
			<path d="M0 348.06 L66.54 348.06" class="st10"/>
		</g>
		<g id="shape36-65" v:mID="36" v:groupContext="shape" transform="translate(-14.4013,237.857) rotate(-90)">
			<title>工作表.36</title>
			<path d="M0 348.06 L10.61 348.06" class="st10"/>
		</g>
		<g id="shape44-68" v:mID="44" v:groupContext="shape" transform="translate(333.656,-110.212)">
			<title>工作表.44</title>
			<path d="M0 348.06 L107.49 348.06" class="st10"/>
		</g>
		<g id="shape3-71" v:mID="3" v:groupContext="shape" transform="translate(23.3383,-262.733)">
			<title>工作表.3</title>
			<desc>S3V1 OFF</desc>
			<v:textBlock v:margins="rect(4,4,4,4)" v:tabSpace="42.5197"/>
			<v:textRect cx="29.0076" cy="340.062" width="58.02" height="16"/>
			<rect x="0" y="332.062" width="58.0151" height="16" class="st4"/>
			<text x="4" y="342.69" class="st8" v:langID="2052"><v:paragraph v:spLine="-1"/><v:tabList/>S3V1 OFF</text>		</g>
		<g id="shape28-75" v:mID="28" v:groupContext="shape" transform="translate(22.5821,-216.748)">
			<title>工作表.28</title>
			<desc>S3V2 OFF</desc>
			<v:textBlock v:margins="rect(4,4,4,4)" v:tabSpace="42.5197"/>
			<v:textRect cx="29.7638" cy="340.062" width="59.53" height="16"/>
			<rect x="0" y="332.062" width="59.5276" height="16" class="st4"/>
			<text x="4" y="342.69" class="st8" v:langID="2052"><v:paragraph v:spLine="-1"/><v:tabList/>S3V2 OFF</text>		</g>
		<g id="shape34-79" v:mID="34" v:groupContext="shape" transform="translate(107.289,465.385) rotate(180)">
			<title>工作表.34</title>
			<path d="M0 348.06 L21.27 348.06" class="st11"/>
		</g>
		<g id="shape38-82" v:mID="38" v:groupContext="shape" transform="translate(86.0072,-276.621)">
			<title>工作表.38</title>
			<path d="M0 348.06 L100.04 348.06" class="st10"/>
		</g>
		<g id="shape45-85" v:mID="45" v:groupContext="shape" transform="translate(-161.921,82.0432) rotate(-90)">
			<title>工作表.45</title>
			<path d="M0 348.06 L10.59 348.06" class="st10"/>
		</g>
		<g id="shape60-88" v:mID="60" v:groupContext="shape" transform="translate(186.33,-266.019)">
			<title>工作表.60</title>
			<path d="M0 348.06 L253.04 348.06" class="st10"/>
		</g>
		<g id="shape78-91" v:mID="78" v:groupContext="shape" transform="translate(107.326,-230.728)">
			<title>工作表.78</title>
			<path d="M0 348.06 L159.04 348.06" class="st10"/>
		</g>
		<g id="shape79-94" v:mID="79" v:groupContext="shape" transform="translate(-81.8425,127.943) rotate(-90)">
			<title>工作表.79</title>
			<path d="M0 348.06 L10.61 348.06" class="st10"/>
		</g>
		<g id="shape11-97" v:mID="11" v:groupContext="shape" transform="translate(121.836,-106.408)">
			<title>工作表.11</title>
			<desc>OFF</desc>
			<v:textBlock v:margins="rect(4,4,4,4)" v:tabSpace="42.5197"/>
			<v:textRect cx="12.7354" cy="340.062" width="25.48" height="16"/>
			<rect x="0" y="332.062" width="25.4709" height="16" class="st4"/>
			<text x="4.74" y="342.06" class="st13" v:langID="2052"><v:paragraph v:spLine="-1" v:horizAlign="1"/><v:tabList/>OFF</text>		</g>
		<g id="shape19-101" v:mID="19" v:groupContext="shape" transform="translate(346.299,-147.122)">
			<title>工作表.19</title>
			<path d="M0 348.06 L67.12 348.06" class="st10"/>
		</g>
		<g id="shape40-104" v:mID="40" v:groupContext="shape" transform="translate(206.929,-117.228)">
			<title>工作表.40</title>
			<desc>ON</desc>
			<v:textBlock v:margins="rect(4,4,4,4)" v:tabSpace="42.5197"/>
			<v:textRect cx="14.135" cy="340.062" width="28.28" height="16"/>
			<rect x="0" y="332.062" width="28.27" height="16" class="st4"/>
			<text x="8.14" y="342.06" class="st13" v:langID="2052"><v:paragraph v:spLine="-1" v:horizAlign="1"/><v:tabList/>ON</text>		</g>
		<g id="shape83-108" v:mID="83" v:groupContext="shape" transform="translate(107.594,-57.9528)">
			<title>工作表.83</title>
			<path d="M0 348.06 L24.03 348.06" class="st9"/>
		</g>
		<g id="shape85-115" v:mID="85" v:groupContext="shape" transform="translate(-215.969,294.85) rotate(-90)">
			<title>工作表.85</title>
			<path d="M0 348.06 L104.46 348.06" class="st11"/>
		</g>
		<g id="shape87-118" v:mID="87" v:groupContext="shape" transform="translate(107.999,-41.9688)">
			<title>工作表.87</title>
			<desc>2min</desc>
			<v:textBlock v:margins="rect(4,4,4,4)" v:tabSpace="42.5197"/>
			<v:textRect cx="10.9609" cy="340.062" width="21.93" height="16"/>
			<rect x="0" y="332.062" width="21.9219" height="16" class="st4"/>
			<text x="4.46" y="341.56" class="st14" v:langID="2052"><v:paragraph v:spLine="-1" v:horizAlign="1"/><v:tabList/>2min</text>		</g>
		<g id="shape27-122" v:mID="27" v:groupContext="shape" transform="translate(133.038,-57.9046)">
			<title>工作表.27</title>
			<path d="M0 348.06 L39.87 348.06" class="st9"/>
		</g>
		<g id="shape41-129" v:mID="41" v:groupContext="shape" transform="translate(-174.3,294.898) rotate(-90)">
			<title>工作表.41</title>
			<path d="M0 348.06 L260.77 348.06" class="st11"/>
		</g>
		<g id="shape2-132" v:mID="2" v:groupContext="shape" transform="translate(142.676,-41.8898)">
			<title>工作表.2</title>
			<desc>3min</desc>
			<v:textBlock v:margins="rect(4,4,4,4)" v:tabSpace="42.5197"/>
			<v:textRect cx="10.9609" cy="340.062" width="21.93" height="16"/>
			<rect x="0" y="332.062" width="21.9219" height="16" class="st4"/>
			<text x="4.46" y="341.56" class="st14" v:langID="2052"><v:paragraph v:spLine="-1" v:horizAlign="1"/><v:tabList/>3min</text>		</g>
		<g id="shape48-136" v:mID="48" v:groupContext="shape" transform="translate(133.606,-153.482)">
			<title>工作表.48</title>
			<path d="M0 348.06 L38.65 348.06" class="st15"/>
		</g>
		<g id="shape56-145" v:mID="56" v:groupContext="shape" transform="translate(130.747,-154.079)">
			<title>工作表.56</title>
			<desc>Check LDIw</desc>
			<v:textBlock v:margins="rect(4,4,4,4)" v:tabSpace="42.5197"/>
			<v:textRect cx="22.6063" cy="340.062" width="45.22" height="16"/>
			<rect x="0" y="332.062" width="45.2126" height="16" class="st4"/>
			<text x="6.43" y="341.56" class="st14" v:langID="2052"><v:paragraph v:spLine="-1" v:horizAlign="1"/><v:tabList/>Check LDIw</text>		</g>
		<g id="shape88-149" v:mID="88" v:groupContext="shape" transform="translate(23.3078,-284.403)">
			<title>工作表.88</title>
			<desc>S3V1 ON</desc>
			<v:textBlock v:margins="rect(4,4,4,4)" v:tabSpace="42.5197"/>
			<v:textRect cx="29.0381" cy="340.062" width="58.08" height="16"/>
			<rect x="0" y="332.062" width="58.0761" height="16" class="st4"/>
			<text x="4" y="342.69" class="st8" v:langID="2052"><v:paragraph v:spLine="-1"/><v:tabList/>S3V1 ON</text>		</g>
		<g id="shape91-153" v:mID="91" v:groupContext="shape" transform="translate(86.0781,-287.695)">
			<title>工作表.91</title>
			<path d="M0 348.06 L100.02 348.06" class="st10"/>
		</g>
		<g id="shape93-156" v:mID="93" v:groupContext="shape" transform="translate(-161.921,60.3736) rotate(-90)">
			<title>工作表.93</title>
			<path d="M0 348.06 L10.59 348.06" class="st10"/>
		</g>
		<g id="shape94-159" v:mID="94" v:groupContext="shape" transform="translate(186.141,-298.281)">
			<title>工作表.94</title>
			<path d="M0 348.06 L253.94 348.06" class="st10"/>
		</g>
		<g id="shape97-162" v:mID="97" v:groupContext="shape" transform="translate(266.078,454.641) rotate(180)">
			<title>工作表.97</title>
			<path d="M0 348.06 L158.87 348.06" class="st10"/>
		</g>
		<g id="shape98-165" v:mID="98" v:groupContext="shape" transform="translate(266.244,-252.177)">
			<title>工作表.98</title>
			<path d="M0 348.06 L67.42 348.06" class="st10"/>
		</g>
		<g id="shape99-168" v:mID="99" v:groupContext="shape" transform="translate(-14.4013,106.494) rotate(-90)">
			<title>工作表.99</title>
			<path d="M0 348.06 L10.61 348.06" class="st10"/>
		</g>
		<g id="shape101-171" v:mID="101" v:groupContext="shape" transform="translate(23.502,-239.011)">
			<title>工作表.101</title>
			<desc>S3V2 ON</desc>
			<v:textBlock v:margins="rect(4,4,4,4)" v:tabSpace="42.5197"/>
			<v:textRect cx="28.8438" cy="340.062" width="57.69" height="16"/>
			<rect x="0" y="332.062" width="57.6877" height="16" class="st4"/>
			<text x="4" y="342.69" class="st8" v:langID="2052"><v:paragraph v:spLine="-1"/><v:tabList/>S3V2 ON</text>		</g>
		<g id="shape102-175" v:mID="102" v:groupContext="shape" transform="translate(23.4433,-171.093)">
			<title>工作表.102</title>
			<desc>S3V3 OFF</desc>
			<v:textBlock v:margins="rect(4,4,4,4)" v:tabSpace="42.5197"/>
			<v:textRect cx="29.0076" cy="340.062" width="58.02" height="16"/>
			<rect x="0" y="332.062" width="58.0151" height="16" class="st4"/>
			<text x="4" y="342.69" class="st8" v:langID="2052"><v:paragraph v:spLine="-1"/><v:tabList/>S3V3 OFF</text>		</g>
		<g id="shape104-179" v:mID="104" v:groupContext="shape" transform="translate(85.9459,-174.271)">
			<title>工作表.104</title>
			<path d="M0 348.06 L260.38 348.06" class="st10"/>
		</g>
		<g id="shape107-182" v:mID="107" v:groupContext="shape" transform="translate(-1.76378,173.684) rotate(-90)">
			<title>工作表.107</title>
			<path d="M0 348.06 L10.59 348.06" class="st10"/>
		</g>
		<g id="shape108-185" v:mID="108" v:groupContext="shape" transform="translate(346.394,-185.102)">
			<title>工作表.108</title>
			<path d="M0 348.06 L66.9 348.06" class="st10"/>
		</g>
		<g id="shape111-188" v:mID="111" v:groupContext="shape" transform="translate(23.4128,-192.762)">
			<title>工作表.111</title>
			<desc>S3V3 ON</desc>
			<v:textBlock v:margins="rect(4,4,4,4)" v:tabSpace="42.5197"/>
			<v:textRect cx="29.0381" cy="340.062" width="58.08" height="16"/>
			<rect x="0" y="332.062" width="58.0761" height="16" class="st4"/>
			<text x="4" y="342.69" class="st8" v:langID="2052"><v:paragraph v:spLine="-1"/><v:tabList/>S3V3 ON</text>		</g>
		<g id="shape113-192" v:mID="113" v:groupContext="shape" transform="translate(86.3616,-206.65)">
			<title>工作表.113</title>
			<path d="M0 348.06 L260.03 348.06" class="st10"/>
		</g>
		<g id="shape115-195" v:mID="115" v:groupContext="shape" transform="translate(-1.76378,152.014) rotate(-90)">
			<title>工作表.115</title>
			<path d="M0 348.06 L10.59 348.06" class="st10"/>
		</g>
		<g id="shape116-198" v:mID="116" v:groupContext="shape" transform="translate(346.323,-196.048)">
			<title>工作表.116</title>
			<path d="M0 348.06 L66.97 348.06" class="st10"/>
		</g>
		<g id="shape119-201" v:mID="119" v:groupContext="shape" transform="translate(23.1024,-78.8522)">
			<title>工作表.119</title>
			<desc>PUMPm</desc>
			<v:textBlock v:margins="rect(4,4,4,4)" v:tabSpace="42.5197"/>
			<v:textRect cx="23.8832" cy="340.062" width="47.77" height="16"/>
			<rect x="0" y="332.062" width="47.7664" height="16" class="st4"/>
			<text x="4" y="342.69" class="st8" v:langID="2052"><v:paragraph v:spLine="-1"/><v:tabList/>PUMPm</text>		</g>
		<g id="shape120-205" v:mID="120" v:groupContext="shape" transform="translate(86.0318,-82.1382)">
			<title>工作表.120</title>
			<path d="M0 348.06 L260.22 348.06" class="st10"/>
		</g>
		<g id="shape121-208" v:mID="121" v:groupContext="shape" transform="translate(346.346,-92.4672)">
			<title>工作表.121</title>
			<path d="M0 348.06 L66.96 348.06" class="st10"/>
		</g>
		<g id="shape122-211" v:mID="122" v:groupContext="shape" transform="translate(65.2756,266.204) rotate(-90)">
			<title>工作表.122</title>
			<path d="M0 348.06 L10.61 348.06" class="st10"/>
		</g>
		<g id="shape123-214" v:mID="123" v:groupContext="shape" transform="translate(-1.76378,265.825) rotate(-90)">
			<title>工作表.123</title>
			<path d="M0 348.06 L10.22 348.06" class="st10"/>
		</g>
		<g id="shape124-217" v:mID="124" v:groupContext="shape" transform="translate(413.423,-81.8654)">
			<title>工作表.124</title>
			<path d="M0 348.06 L28.78 348.06" class="st10"/>
		</g>
		<g id="shape125-220" v:mID="125" v:groupContext="shape" transform="translate(201.26,-78.4567)">
			<title>工作表.125</title>
			<desc>OFF</desc>
			<v:textBlock v:margins="rect(4,4,4,4)" v:tabSpace="42.5197"/>
			<v:textRect cx="12.7354" cy="340.062" width="25.48" height="16"/>
			<rect x="0" y="332.062" width="25.4709" height="16" class="st4"/>
			<text x="4.74" y="342.06" class="st13" v:langID="2052"><v:paragraph v:spLine="-1" v:horizAlign="1"/><v:tabList/>OFF</text>		</g>
		<g id="shape6-224" v:mID="6" v:groupContext="shape" transform="translate(186.992,-57.9528)">
			<title>工作表.6</title>
			<path d="M0 348.06 L24.03 348.06" class="st9"/>
		</g>
		<g id="shape10-231" v:mID="10" v:groupContext="shape" transform="translate(187.464,-41.8898)">
			<title>工作表.10</title>
			<desc>2min</desc>
			<v:textBlock v:margins="rect(4,4,4,4)" v:tabSpace="42.5197"/>
			<v:textRect cx="10.9609" cy="340.062" width="21.93" height="16"/>
			<rect x="0" y="332.062" width="21.9219" height="16" class="st4"/>
			<text x="4.46" y="341.56" class="st14" v:langID="2052"><v:paragraph v:spLine="-1" v:horizAlign="1"/><v:tabList/>2min</text>		</g>
		<g id="shape13-235" v:mID="13" v:groupContext="shape" transform="translate(212.436,-57.9046)">
			<title>工作表.13</title>
			<path d="M0 348.06 L39.87 348.06" class="st9"/>
		</g>
		<g id="shape15-242" v:mID="15" v:groupContext="shape" transform="translate(222.074,-41.8268)">
			<title>工作表.15</title>
			<desc>3min</desc>
			<v:textBlock v:margins="rect(4,4,4,4)" v:tabSpace="42.5197"/>
			<v:textRect cx="10.9609" cy="340.062" width="21.93" height="16"/>
			<rect x="0" y="332.062" width="21.9219" height="16" class="st4"/>
			<text x="4.46" y="341.56" class="st14" v:langID="2052"><v:paragraph v:spLine="-1" v:horizAlign="1"/><v:tabList/>3min</text>		</g>
		<g id="shape16-246" v:mID="16" v:groupContext="shape" transform="translate(-95.0236,295.621) rotate(-90)">
			<title>工作表.16</title>
			<path d="M0 348.06 L261.14 348.06" class="st11"/>
		</g>
		<g id="shape17-249" v:mID="17" v:groupContext="shape" transform="translate(-81.8425,106.469) rotate(-90)">
			<title>工作表.17</title>
			<path d="M0 348.06 L10.61 348.06" class="st10"/>
		</g>
		<g id="shape4-252" v:mID="4" v:groupContext="shape" transform="translate(267.047,-57.8457)">
			<title>工作表.4</title>
			<path d="M0 348.06 L24.03 348.06" class="st9"/>
		</g>
		<g id="shape23-259" v:mID="23" v:groupContext="shape" transform="translate(267.452,-41.8617)">
			<title>工作表.23</title>
			<desc>2min</desc>
			<v:textBlock v:margins="rect(4,4,4,4)" v:tabSpace="42.5197"/>
			<v:textRect cx="10.9609" cy="340.062" width="21.93" height="16"/>
			<rect x="0" y="332.062" width="21.9219" height="16" class="st4"/>
			<text x="4.46" y="341.56" class="st14" v:langID="2052"><v:paragraph v:spLine="-1" v:horizAlign="1"/><v:tabList/>2min</text>		</g>
		<g id="shape30-263" v:mID="30" v:groupContext="shape" transform="translate(292.492,-57.7975)">
			<title>工作表.30</title>
			<path d="M0 348.06 L39.87 348.06" class="st9"/>
		</g>
		<g id="shape31-270" v:mID="31" v:groupContext="shape" transform="translate(301.44,-41.8268)">
			<title>工作表.31</title>
			<desc>3min</desc>
			<v:textBlock v:margins="rect(4,4,4,4)" v:tabSpace="42.5197"/>
			<v:textRect cx="10.9609" cy="340.062" width="21.93" height="16"/>
			<rect x="0" y="332.062" width="21.9219" height="16" class="st4"/>
			<text x="4.46" y="341.56" class="st14" v:langID="2052"><v:paragraph v:spLine="-1" v:horizAlign="1"/><v:tabList/>3min</text>		</g>
		<g id="shape32-274" v:mID="32" v:groupContext="shape" transform="translate(-14.4013,295.729) rotate(-90)">
			<title>工作表.32</title>
			<path d="M0 348.06 L260.89 348.06" class="st11"/>
		</g>
		<g id="shape33-277" v:mID="33" v:groupContext="shape" transform="translate(-136.409,295.134) rotate(-90)">
			<title>工作表.33</title>
			<path d="M0 348.06 L105.81 348.06" class="st11"/>
		</g>
		<g id="shape39-280" v:mID="39" v:groupContext="shape" transform="translate(-56.354,295.7) rotate(-90)">
			<title>工作表.39</title>
			<path d="M0 348.06 L105.67 348.06" class="st11"/>
		</g>
		<g id="shape9-283" v:mID="9" v:groupContext="shape" transform="translate(213.024,-153.482)">
			<title>工作表.9</title>
			<path d="M0 348.06 L38.65 348.06" class="st15"/>
		</g>
		<g id="shape42-290" v:mID="42" v:groupContext="shape" transform="translate(210.165,-154.079)">
			<title>工作表.42</title>
			<desc>Check LDIw</desc>
			<v:textBlock v:margins="rect(4,4,4,4)" v:tabSpace="42.5197"/>
			<v:textRect cx="22.6063" cy="340.062" width="45.22" height="16"/>
			<rect x="0" y="332.062" width="45.2126" height="16" class="st4"/>
			<text x="6.43" y="341.56" class="st14" v:langID="2052"><v:paragraph v:spLine="-1" v:horizAlign="1"/><v:tabList/>Check LDIw</text>		</g>
		<g id="shape49-294" v:mID="49" v:groupContext="shape" transform="translate(108.353,-310.898)">
			<title>工作表.49</title>
			<path d="M0 348.06 L64.56 348.06" class="st9"/>
		</g>
		<g id="shape55-301" v:mID="55" v:groupContext="shape" transform="translate(111.117,-309.48)">
			<title>工作表.55</title>
			<desc>S1</desc>
			<v:textBlock v:margins="rect(4,4,4,4)" v:tabSpace="42.5197"/>
			<v:textRect cx="29.0551" cy="340.062" width="58.12" height="16"/>
			<rect x="0" y="332.062" width="58.1102" height="16" class="st4"/>
			<text x="23.55" y="342.31" class="st12" v:langID="2052"><v:paragraph v:spLine="-1" v:horizAlign="1"/><v:tabList/>S1</text>		</g>
		<g id="shape61-305" v:mID="61" v:groupContext="shape" transform="translate(186.992,-310.898)">
			<title>工作表.61</title>
			<path d="M0 348.06 L65.13 348.06" class="st9"/>
		</g>
		<g id="shape62-312" v:mID="62" v:groupContext="shape" transform="translate(190.11,-309.48)">
			<title>工作表.62</title>
			<desc>S2</desc>
			<v:textBlock v:margins="rect(4,4,4,4)" v:tabSpace="42.5197"/>
			<v:textRect cx="29.9409" cy="340.062" width="59.89" height="16"/>
			<rect x="0" y="332.062" width="59.8819" height="16" class="st4"/>
			<text x="24.44" y="342.31" class="st12" v:langID="2052"><v:paragraph v:spLine="-1" v:horizAlign="1"/><v:tabList/>S2</text>		</g>
		<g id="shape63-316" v:mID="63" v:groupContext="shape" transform="translate(267.082,-310.898)">
			<title>工作表.63</title>
			<path d="M0 348.06 L65.13 348.06" class="st9"/>
		</g>
		<g id="shape64-323" v:mID="64" v:groupContext="shape" transform="translate(269.51,-309.48)">
			<title>工作表.64</title>
			<desc>S3</desc>
			<v:textBlock v:margins="rect(4,4,4,4)" v:tabSpace="42.5197"/>
			<v:textRect cx="30.1358" cy="340.062" width="60.28" height="16"/>
			<rect x="0" y="332.062" width="60.2717" height="16" class="st4"/>
			<text x="24.63" y="342.31" class="st12" v:langID="2052"><v:paragraph v:spLine="-1" v:horizAlign="1"/><v:tabList/>S3</text>		</g>
		<g id="shape20-327" v:mID="20" v:groupContext="shape" transform="translate(-14.4013,127.943) rotate(-90)">
			<title>工作表.20</title>
			<path d="M0 348.06 L10.61 348.06" class="st10"/>
		</g>
		<g id="shape22-330" v:mID="22" v:groupContext="shape" transform="translate(293.409,-153.482)">
			<title>工作表.22</title>
			<path d="M0 348.06 L38.65 348.06" class="st15"/>
		</g>
		<g id="shape26-337" v:mID="26" v:groupContext="shape" transform="translate(290.716,-154.079)">
			<title>工作表.26</title>
			<desc>Check LDIw</desc>
			<v:textBlock v:margins="rect(4,4,4,4)" v:tabSpace="42.5197"/>
			<v:textRect cx="22.6063" cy="340.062" width="45.22" height="16"/>
			<rect x="0" y="332.062" width="45.2126" height="16" class="st4"/>
			<text x="6.43" y="341.56" class="st14" v:langID="2052"><v:paragraph v:spLine="-1" v:horizAlign="1"/><v:tabList/>Check LDIw</text>		</g>
		<g id="shape29-341" v:mID="29" v:groupContext="shape" transform="translate(346.747,-57.7495)">
			<title>工作表.29</title>
			<path d="M0 348.06 L24.03 348.06" class="st9"/>
		</g>
		<g id="shape37-348" v:mID="37" v:groupContext="shape" transform="translate(347.152,-41.8268)">
			<title>工作表.37</title>
			<desc>2min</desc>
			<v:textBlock v:margins="rect(4,4,4,4)" v:tabSpace="42.5197"/>
			<v:textRect cx="10.9609" cy="340.062" width="21.93" height="16"/>
			<rect x="0" y="332.062" width="21.9219" height="16" class="st4"/>
			<text x="4.46" y="341.56" class="st14" v:langID="2052"><v:paragraph v:spLine="-1" v:horizAlign="1"/><v:tabList/>2min</text>		</g>
		<g id="shape43-352" v:mID="43" v:groupContext="shape" transform="translate(372.191,-57.7013)">
			<title>工作表.43</title>
			<path d="M0 348.06 L39.87 348.06" class="st9"/>
		</g>
		<g id="shape46-359" v:mID="46" v:groupContext="shape" transform="translate(381.14,-41.9069)">
			<title>工作表.46</title>
			<desc>3min</desc>
			<v:textBlock v:margins="rect(4,4,4,4)" v:tabSpace="42.5197"/>
			<v:textRect cx="10.9609" cy="340.062" width="21.93" height="16"/>
			<rect x="0" y="332.062" width="21.9219" height="16" class="st4"/>
			<text x="4.46" y="341.56" class="st14" v:langID="2052"><v:paragraph v:spLine="-1" v:horizAlign="1"/><v:tabList/>3min</text>		</g>
		<g id="shape57-363" v:mID="57" v:groupContext="shape" transform="translate(65.2756,294.582) rotate(-90)">
			<title>工作表.57</title>
			<path d="M0 348.06 L259.65 348.06" class="st11"/>
		</g>
		<g id="shape58-366" v:mID="58" v:groupContext="shape" transform="translate(23.3458,295.797) rotate(-90)">
			<title>工作表.58</title>
			<path d="M0 348.06 L105.67 348.06" class="st11"/>
		</g>
		<g id="shape47-369" v:mID="47" v:groupContext="shape" transform="translate(372.967,-153.482)">
			<title>工作表.47</title>
			<path d="M0 348.06 L38.65 348.06" class="st15"/>
		</g>
		<g id="shape59-376" v:mID="59" v:groupContext="shape" transform="translate(370.274,-154.079)">
			<title>工作表.59</title>
			<desc>Check LDIw</desc>
			<v:textBlock v:margins="rect(4,4,4,4)" v:tabSpace="42.5197"/>
			<v:textRect cx="22.6063" cy="340.062" width="45.22" height="16"/>
			<rect x="0" y="332.062" width="45.2126" height="16" class="st4"/>
			<text x="6.43" y="341.56" class="st14" v:langID="2052"><v:paragraph v:spLine="-1" v:horizAlign="1"/><v:tabList/>Check LDIw</text>		</g>
		<g id="shape65-380" v:mID="65" v:groupContext="shape" transform="translate(347.207,-310.898)">
			<title>工作表.65</title>
			<path d="M0 348.06 L65.13 348.06" class="st9"/>
		</g>
		<g id="shape66-387" v:mID="66" v:groupContext="shape" transform="translate(349.635,-309.48)">
			<title>工作表.66</title>
			<desc>S4</desc>
			<v:textBlock v:margins="rect(4,4,4,4)" v:tabSpace="42.5197"/>
			<v:textRect cx="30.1358" cy="340.062" width="60.28" height="16"/>
			<rect x="0" y="332.062" width="60.2717" height="16" class="st4"/>
			<text x="24.63" y="342.31" class="st12" v:langID="2052"><v:paragraph v:spLine="-1" v:horizAlign="1"/><v:tabList/>S4</text>		</g>
		<g id="shape67-391" v:mID="67" v:groupContext="shape" transform="translate(333.661,476.091) rotate(180)">
			<title>工作表.67</title>
			<path d="M0 348.06 L67.46 348.06" class="st10"/>
		</g>
		<g id="shape69-394" v:mID="69" v:groupContext="shape" transform="translate(86.4,-241.484)">
			<title>工作表.69</title>
			<path d="M0 348.06 L21.32 348.06" class="st11"/>
		</g>
		<g id="shape103-397" v:mID="103" v:groupContext="shape" transform="translate(427.691,454.641) rotate(180)">
			<title>工作表.103</title>
			<path d="M0 348.06 L93.87 348.06" class="st10"/>
		</g>
		<g id="shape105-400" v:mID="105" v:groupContext="shape" transform="translate(333.684,-230.728)">
			<title>工作表.105</title>
			<path d="M0 348.06 L94.16 348.06" class="st10"/>
		</g>
		<g id="shape106-403" v:mID="106" v:groupContext="shape" transform="translate(65.2986,211.716) rotate(-90)">
			<title>工作表.106</title>
			<path d="M0 348.06 L10.77 348.06" class="st10"/>
		</g>
		<g id="shape109-406" v:mID="109" v:groupContext="shape" transform="translate(413.423,-136.52)">
			<title>工作表.109</title>
			<path d="M0 348.06 L28.07 348.06" class="st10"/>
		</g>
		<g id="shape110-409" v:mID="110" v:groupContext="shape" transform="translate(413.423,-174.271)">
			<title>工作表.110</title>
			<path d="M0 348.06 L28.43 348.06" class="st10"/>
		</g>
		<g id="shape112-412" v:mID="112" v:groupContext="shape" transform="translate(65.2986,173.732) rotate(-90)">
			<title>工作表.112</title>
			<path d="M0 348.06 L10.59 348.06" class="st10"/>
		</g>
		<g id="shape114-415" v:mID="114" v:groupContext="shape" transform="translate(65.2986,152.014) rotate(-90)">
			<title>工作表.114</title>
			<path d="M0 348.06 L10.59 348.06" class="st10"/>
		</g>
		<g id="shape117-418" v:mID="117" v:groupContext="shape" transform="translate(413.31,-206.787)">
			<title>工作表.117</title>
			<path d="M0 348.06 L28.19 348.06" class="st10"/>
		</g>
		<g id="shape118-421" v:mID="118" v:groupContext="shape" transform="translate(365.013,-88.8819)">
			<title>工作表.118</title>
			<desc>ON</desc>
			<v:textBlock v:margins="rect(4,4,4,4)" v:tabSpace="42.5197"/>
			<v:textRect cx="14.135" cy="340.062" width="28.28" height="16"/>
			<rect x="0" y="332.062" width="28.27" height="16" class="st4"/>
			<text x="8.14" y="342.06" class="st13" v:langID="2052"><v:paragraph v:spLine="-1" v:horizAlign="1"/><v:tabList/>ON</text>		</g>
		<g id="shape128-425" v:mID="128" v:groupContext="shape" transform="translate(83.5679,-132.819)">
			<title>工作表.128</title>
			<desc>OFF</desc>
			<v:textBlock v:margins="rect(4,4,4,4)" v:tabSpace="42.5197"/>
			<v:textRect cx="12.7354" cy="340.062" width="25.48" height="16"/>
			<rect x="0" y="332.062" width="25.4709" height="16" class="st4"/>
			<text x="4.74" y="342.06" class="st13" v:langID="2052"><v:paragraph v:spLine="-1" v:horizAlign="1"/><v:tabList/>OFF</text>		</g>
		<g id="shape129-429" v:mID="129" v:groupContext="shape" transform="translate(-161.921,294.898) rotate(-90)">
			<title>工作表.129</title>
			<path d="M0 348.06 L260.77 348.06" class="st11"/>
		</g>
		<g id="shape130-432" v:mID="130" v:groupContext="shape" transform="translate(174.236,-57.9046)">
			<title>工作表.130</title>
			<path d="M0 348.06 L11.62 348.06" class="st9"/>
		</g>
		<g id="shape131-439" v:mID="131" v:groupContext="shape" transform="translate(168.944,-41.6063)">
			<title>工作表.131</title>
			<desc>1min</desc>
			<v:textBlock v:margins="rect(4,4,4,4)" v:tabSpace="42.5197"/>
			<v:textRect cx="10.9609" cy="340.062" width="21.93" height="16"/>
			<rect x="0" y="332.062" width="21.9219" height="16" class="st4"/>
			<text x="4.46" y="341.56" class="st14" v:langID="2052"><v:paragraph v:spLine="-1" v:horizAlign="1"/><v:tabList/>1min</text>		</g>
		<g id="shape132-443" v:mID="132" v:groupContext="shape" transform="translate(-81.8425,294.835) rotate(-90)">
			<title>工作表.132</title>
			<path d="M0 348.06 L260.77 348.06" class="st11"/>
		</g>
		<g id="shape133-446" v:mID="133" v:groupContext="shape" transform="translate(253.983,-57.9676)">
			<title>工作表.133</title>
			<path d="M0 348.06 L11.62 348.06" class="st9"/>
		</g>
		<g id="shape134-453" v:mID="134" v:groupContext="shape" transform="translate(248.692,-41.6693)">
			<title>工作表.134</title>
			<desc>1min</desc>
			<v:textBlock v:margins="rect(4,4,4,4)" v:tabSpace="42.5197"/>
			<v:textRect cx="10.9609" cy="340.062" width="21.93" height="16"/>
			<rect x="0" y="332.062" width="21.9219" height="16" class="st4"/>
			<text x="4.46" y="341.56" class="st14" v:langID="2052"><v:paragraph v:spLine="-1" v:horizAlign="1"/><v:tabList/>1min</text>		</g>
		<g id="shape135-457" v:mID="135" v:groupContext="shape" transform="translate(-1.76378,295.119) rotate(-90)">
			<title>工作表.135</title>
			<path d="M0 348.06 L260.77 348.06" class="st11"/>
		</g>
		<g id="shape136-460" v:mID="136" v:groupContext="shape" transform="translate(334.204,-57.6841)">
			<title>工作表.136</title>
			<path d="M0 348.06 L11.62 348.06" class="st9"/>
		</g>
		<g id="shape137-467" v:mID="137" v:groupContext="shape" transform="translate(328.912,-41.3858)">
			<title>工作表.137</title>
			<desc>1min</desc>
			<v:textBlock v:margins="rect(4,4,4,4)" v:tabSpace="42.5197"/>
			<v:textRect cx="10.9609" cy="340.062" width="21.93" height="16"/>
			<rect x="0" y="332.062" width="21.9219" height="16" class="st4"/>
			<text x="4.46" y="341.56" class="st14" v:langID="2052"><v:paragraph v:spLine="-1" v:horizAlign="1"/><v:tabList/>1min</text>		</g>
		<g id="shape138-471" v:mID="138" v:groupContext="shape" transform="translate(186.283,-147.122)">
			<title>工作表.138</title>
			<path d="M0 348.06 L66.61 348.06" class="st10"/>
		</g>
		<g id="shape139-474" v:mID="139" v:groupContext="shape" transform="translate(266.362,-147.122)">
			<title>工作表.139</title>
			<path d="M0 348.06 L67.18 348.06" class="st10"/>
		</g>
		<g id="shape140-477" v:mID="140" v:groupContext="shape" transform="translate(173.669,-136.526)">
			<title>工作表.140</title>
			<path d="M0 348.06 L12.43 348.06" class="st10"/>
		</g>
		<g id="shape141-480" v:mID="141" v:groupContext="shape" transform="translate(-161.922,211.537) rotate(-90)">
			<title>工作表.141</title>
			<path d="M0 348.06 L10.59 348.06" class="st10"/>
		</g>
		<g id="shape142-483" v:mID="142" v:groupContext="shape" transform="translate(-174.3,211.716) rotate(-90)">
			<title>工作表.142</title>
			<path d="M0 348.06 L10.59 348.06" class="st10"/>
		</g>
		<g id="shape143-486" v:mID="143" v:groupContext="shape" transform="translate(253.039,-136.668)">
			<title>工作表.143</title>
			<path d="M0 348.06 L13.25 348.06" class="st10"/>
		</g>
		<g id="shape144-489" v:mID="144" v:groupContext="shape" transform="translate(-81.8425,211.395) rotate(-90)">
			<title>工作表.144</title>
			<path d="M0 348.06 L10.59 348.06" class="st10"/>
		</g>
		<g id="shape145-492" v:mID="145" v:groupContext="shape" transform="translate(-95.0236,211.574) rotate(-90)">
			<title>工作表.145</title>
			<path d="M0 348.06 L10.59 348.06" class="st10"/>
		</g>
		<g id="shape146-495" v:mID="146" v:groupContext="shape" transform="translate(333.628,-136.668)">
			<title>工作表.146</title>
			<path d="M0 348.06 L12.64 348.06" class="st10"/>
		</g>
		<g id="shape147-498" v:mID="147" v:groupContext="shape" transform="translate(-1.76378,211.395) rotate(-90)">
			<title>工作表.147</title>
			<path d="M0 348.06 L10.59 348.06" class="st10"/>
		</g>
		<g id="shape148-501" v:mID="148" v:groupContext="shape" transform="translate(-14.4013,211.574) rotate(-90)">
			<title>工作表.148</title>
			<path d="M0 348.06 L10.59 348.06" class="st10"/>
		</g>
		<g id="shape149-504" v:mID="149" v:groupContext="shape" transform="translate(-95.0236,237.54) rotate(-90)">
			<title>工作表.149</title>
			<path d="M0 348.06 L10.29 348.06" class="st10"/>
		</g>
		<g id="shape150-507" v:mID="150" v:groupContext="shape" transform="translate(253.074,-110.485)">
			<title>工作表.150</title>
			<path d="M0 348.06 L13.1 348.06" class="st10"/>
		</g>
		<g id="shape151-510" v:mID="151" v:groupContext="shape" transform="translate(-81.8425,237.597) rotate(-90)">
			<title>工作表.151</title>
			<path d="M0 348.06 L10.29 348.06" class="st10"/>
		</g>
		<g id="shape152-513" v:mID="152" v:groupContext="shape" transform="translate(266.173,-120.814)">
			<title>工作表.152</title>
			<path d="M0 348.06 L67.28 348.06" class="st10"/>
		</g>
		<g id="shape153-516" v:mID="153" v:groupContext="shape" transform="translate(79.6529,315.936) rotate(-90)">
			<title>工作表.153</title>
			<path d="M0 348.06 L279.12 348.06" class="st11"/>
		</g>
		<g id="shape154-519" v:mID="154" v:groupContext="shape" transform="translate(414.992,-57.7013)">
			<title>工作表.154</title>
			<path d="M0 348.06 L11.62 348.06" class="st9"/>
		</g>
		<g id="shape155-526" v:mID="155" v:groupContext="shape" transform="translate(409.134,-42.4567)">
			<title>工作表.155</title>
			<desc>1min</desc>
			<v:textBlock v:margins="rect(4,4,4,4)" v:tabSpace="42.5197"/>
			<v:textRect cx="10.9609" cy="340.062" width="21.93" height="16"/>
			<rect x="0" y="332.062" width="21.9219" height="16" class="st4"/>
			<text x="4.46" y="341.56" class="st14" v:langID="2052"><v:paragraph v:spLine="-1" v:horizAlign="1"/><v:tabList/>1min</text>		</g>
		<g id="shape156-530" v:mID="156" v:groupContext="shape" transform="translate(427.654,-230.728)">
			<title>工作表.156</title>
			<path d="M0 348.06 L13.13 348.06" class="st11"/>
		</g>
		<g id="shape157-533" v:mID="157" v:groupContext="shape" transform="translate(427.748,-241.484)">
			<title>工作表.157</title>
			<path d="M0 348.06 L13.04 348.06" class="st11"/>
		</g>
	</g>
</svg>
