<?xml version="1.0" encoding="UTF-8" standalone="no"?>
<!DOCTYPE svg PUBLIC "-//W3C//DTD SVG 1.0//EN" "http://www.w3.org/TR/2001/REC-SVG-20010904/DTD/svg10.dtd">
<!-- 由 Microsoft Visio 11.0, SVG Export, v1.0 生成 冷媒温度修正-制热.svg 冷媒温度修正-制热 -->
<svg xmlns="http://www.w3.org/2000/svg" xmlns:xlink="http://www.w3.org/1999/xlink" xmlns:ev="http://www.w3.org/2001/xml-events"
		xmlns:v="http://schemas.microsoft.com/visio/2003/SVGExtensions/" width="4.67481in" height="3.79494in"
		viewBox="0 0 336.586 273.236" xml:space="preserve" color-interpolation-filters="sRGB" class="st11">
	<v:documentProperties v:langID="2052" v:metric="true" v:viewMarkup="false"/>

	<style type="text/css">
	<![CDATA[
		.st1 {fill:#ffffff;stroke:none;stroke-linecap:round;stroke-linejoin:round;stroke-width:0.72}
		.st2 {marker-end:url(#mrkr1-8);stroke:#000000;stroke-linecap:round;stroke-linejoin:round;stroke-width:0.24}
		.st3 {fill:#000000;fill-opacity:1;stroke:#000000;stroke-opacity:1;stroke-width:0.08695652173913}
		.st4 {stroke:#000000;stroke-linecap:round;stroke-linejoin:round;stroke-width:1.2}
		.st5 {stroke:#000000;stroke-dasharray:3.6,2.16;stroke-linecap:round;stroke-linejoin:round;stroke-width:0.24}
		.st6 {fill:none;stroke:none;stroke-linecap:round;stroke-linejoin:round;stroke-width:0.72}
		.st7 {fill:#000000;font-family:Arial;font-size:0.833336em}
		.st8 {fill:#000000;font-family:Arial;font-size:0.75em;font-weight:bold}
		.st9 {fill:#000000;font-family:Arial;font-size:0.75em}
		.st10 {font-family:宋体;font-size:1em}
		.st11 {fill:none;fill-rule:evenodd;font-size:12px;overflow:visible;stroke-linecap:square;stroke-miterlimit:3}
	]]>
	</style>

	<defs id="Markers">
		<g id="lend1">
			<path d="M 1 -1 L 0 0 L 1 1 " style="stroke-linecap:round;stroke-linejoin:round;fill:none"/>
		</g>
		<marker id="mrkr1-8" class="st3" v:arrowType="1" v:arrowSize="2" orient="auto" markerUnits="strokeWidth" overflow="visible">
			<use xlink:href="#lend1" transform="scale(-11.5,-11.5) "/>
		</marker>
	</defs>
	<g v:mID="4" v:index="1" v:groupContext="backgroundPage">
		<v:userDefs>
			<v:ud v:nameU="msvVisioCreated" v:prompt="" v:val="VT0(0):26"/>
		</v:userDefs>
		<title>背景-1</title>
		<v:pageProperties width="4.67481" height="3.79494" v:drawingScale="0.0393701" v:pageScale="0.0393701" v:drawingUnits="24"
				v:shadowOffsetX="8.50394" v:shadowOffsetY="-8.50394"/>
		<g id="shape1-1" v:mID="1" v:groupContext="shape">
			<title>实心</title>
			<v:userDefs>
				<v:ud v:nameU="Background" v:val="VT0(0):26"/>
				<v:ud v:nameU="visVersion" v:val="VT0(14):26"/>
				<v:ud v:nameU="msvShapeCategories" v:prompt="" v:val="VT4(DoNotContain)"/>
				<v:ud v:nameU="msvVisioCreated" v:prompt="" v:val="VT0(0):26"/>
			</v:userDefs>
			<rect x="0" y="0" width="336.586" height="273.236" class="st1"/>
		</g>
	</g>
	<g v:mID="5" v:index="3" v:groupContext="foregroundPage">
		<title>冷媒温度修正-制热</title>
		<v:pageProperties v:drawingScale="0.0393701" v:pageScale="0.0393701" v:drawingUnits="24" v:shadowOffsetX="8.50394"
				v:shadowOffsetY="-8.50394"/>
		<g id="shape2-3" v:mID="2" v:groupContext="shape" transform="translate(69.5297,-21.9032)">
			<title>工作表.2</title>
			<path d="M0 273.24 L240.94 273.24" class="st2"/>
		</g>
		<g id="shape3-9" v:mID="3" v:groupContext="shape" transform="translate(-203.706,251.332) rotate(-90)">
			<title>工作表.3</title>
			<path d="M0 273.24 L235.44 273.24" class="st2"/>
		</g>
		<g id="shape4-14" v:mID="4" v:groupContext="shape" transform="translate(69.5297,-234.392)">
			<title>工作表.4</title>
			<path d="M0 273.24 L70.87 273.24" class="st4"/>
		</g>
		<g id="shape5-17" v:mID="5" v:groupContext="shape" transform="translate(182.916,-220.219)">
			<title>工作表.5</title>
			<path d="M0 273.24 L99.21 273.24" class="st4"/>
		</g>
		<g id="shape6-20" v:mID="6" v:groupContext="shape" transform="translate(69.5297,-200.155)">
			<title>工作表.6</title>
			<path d="M0 273.24 L70.87 273.24" class="st4"/>
		</g>
		<g id="shape7-23" v:mID="7" v:groupContext="shape" transform="translate(182.916,-185.982)">
			<title>工作表.7</title>
			<path d="M0 273.24 L99.21 273.24" class="st4"/>
		</g>
		<g id="shape8-26" v:mID="8" v:groupContext="shape" transform="translate(69.5297,-166.408)">
			<title>工作表.8</title>
			<path d="M0 273.24 L70.87 273.24" class="st4"/>
		</g>
		<g id="shape9-29" v:mID="9" v:groupContext="shape" transform="translate(182.916,-152.235)">
			<title>工作表.9</title>
			<path d="M0 273.24 L99.21 273.24" class="st4"/>
		</g>
		<g id="shape10-32" v:mID="10" v:groupContext="shape" transform="translate(226.801,-220.37) rotate(18.4349)">
			<title>工作表.10</title>
			<path d="M0 273.24 L44.82 273.24" class="st4"/>
		</g>
		<g id="shape11-35" v:mID="11" v:groupContext="shape" transform="translate(226.801,-186.134) rotate(18.4349)">
			<title>工作表.11</title>
			<path d="M0 273.24 L44.82 273.24" class="st4"/>
		</g>
		<g id="shape12-38" v:mID="12" v:groupContext="shape" transform="translate(226.801,-152.387) rotate(18.4349)">
			<title>工作表.12</title>
			<path d="M0 273.24 L44.82 273.24" class="st4"/>
		</g>
		<g id="shape13-41" v:mID="13" v:groupContext="shape" transform="translate(68.8414,-220.218) rotate(-0.144322)">
			<title>工作表.13</title>
			<path d="M0 273.24 L112.54 273.24" class="st5"/>
		</g>
		<g id="shape14-44" v:mID="14" v:groupContext="shape" transform="translate(69.5297,-185.982)">
			<title>工作表.14</title>
			<path d="M0 273.24 L110.55 273.24" class="st5"/>
		</g>
		<g id="shape15-47" v:mID="15" v:groupContext="shape" transform="translate(68.6677,-152.234) rotate(-0.180743)">
			<title>工作表.15</title>
			<path d="M0 273.24 L112.32 273.24" class="st5"/>
		</g>
		<g id="shape16-50" v:mID="16" v:groupContext="shape" transform="translate(53.376,-227.686)">
			<title>工作表.16</title>
			<desc>54</desc>
			<v:textBlock v:margins="rect(2,2,2,2)" v:tabSpace="42.5197"/>
			<v:textRect cx="12.8589" cy="267.236" width="25.72" height="12"/>
			<rect x="0" y="261.236" width="25.7177" height="12" class="st6"/>
			<text x="2" y="270.24" class="st7" v:langID="2052"><v:paragraph/><v:tabList/>54</text>		</g>
		<g id="shape17-53" v:mID="17" v:groupContext="shape" transform="translate(53.376,-213.973)">
			<title>工作表.17</title>
			<desc>53</desc>
			<v:textBlock v:margins="rect(2,2,2,2)" v:tabSpace="42.5197"/>
			<v:textRect cx="12.8589" cy="267.236" width="25.72" height="12"/>
			<rect x="0" y="261.236" width="25.7177" height="12" class="st6"/>
			<text x="2" y="270.24" class="st7" v:langID="2052"><v:paragraph/><v:tabList/>53</text>		</g>
		<g id="shape18-56" v:mID="18" v:groupContext="shape" transform="translate(53.376,-193.749)">
			<title>工作表.18</title>
			<desc>52</desc>
			<v:textBlock v:margins="rect(2,2,2,2)" v:tabSpace="42.5197"/>
			<v:textRect cx="9.25555" cy="267.236" width="18.52" height="12"/>
			<rect x="0" y="261.236" width="18.5111" height="12" class="st6"/>
			<text x="2" y="270.24" class="st7" v:langID="2052"><v:paragraph/><v:tabList/>52</text>		</g>
		<g id="shape19-59" v:mID="19" v:groupContext="shape" transform="translate(-182.639,177.153) rotate(-77.2756)">
			<title>工作表.19</title>
			<path d="M0 273.24 L217.95 273.24" class="st2"/>
		</g>
		<g id="shape20-64" v:mID="20" v:groupContext="shape" transform="translate(470.161,-43.5377) rotate(75.5297)">
			<title>工作表.20</title>
			<path d="M0 273.24 L219.78 273.24" class="st2"/>
		</g>
		<g id="shape21-69" v:mID="21" v:groupContext="shape" transform="translate(160.299,-236.828)">
			<title>工作表.21</title>
			<desc>TLC1</desc>
			<v:textBlock v:margins="rect(2,2,2,2)" v:tabSpace="42.5197"/>
			<v:textRect cx="16.2992" cy="265.984" width="32.6" height="14.5039"/>
			<rect x="0" y="258.732" width="32.5984" height="14.5039" class="st6"/>
			<text x="2" y="268.68" class="st8" v:langID="2052"><v:paragraph/><v:tabList/>TLC1</text>		</g>
		<g id="shape22-72" v:mID="22" v:groupContext="shape" transform="translate(18.72,-245.499)">
			<title>工作表.22</title>
			<desc>TRFliq / ℃</desc>
			<v:textBlock v:margins="rect(4,4,4,4)" v:tabSpace="42.5197"/>
			<v:textRect cx="26.3679" cy="267.566" width="52.74" height="11.3386"/>
			<rect x="0" y="261.897" width="52.7357" height="11.3386" class="st6"/>
			<text x="4.87" y="270.49" class="st9" v:langID="2052"><v:paragraph v:horizAlign="1"/><v:tabList/>TRFliq / <tspan
						class="st10">℃</tspan></text>		</g>
		<g id="shape23-76" v:mID="23" v:groupContext="shape" transform="translate(70.5898,-132.172)">
			<title>工作表.23</title>
			<path d="M0 273.24 L70.87 273.24" class="st4"/>
		</g>
		<g id="shape24-79" v:mID="24" v:groupContext="shape" transform="translate(183.976,-117.999)">
			<title>工作表.24</title>
			<path d="M0 273.24 L99.21 273.24" class="st4"/>
		</g>
		<g id="shape25-82" v:mID="25" v:groupContext="shape" transform="translate(227.861,-118.15) rotate(18.4349)">
			<title>工作表.25</title>
			<path d="M0 273.24 L44.82 273.24" class="st4"/>
		</g>
		<g id="shape26-85" v:mID="26" v:groupContext="shape" transform="translate(69.7279,-117.997) rotate(-0.180743)">
			<title>工作表.26</title>
			<path d="M0 273.24 L112.32 273.24" class="st5"/>
		</g>
		<g id="shape27-88" v:mID="27" v:groupContext="shape" transform="translate(70.3445,-97.9351)">
			<title>工作表.27</title>
			<path d="M0 273.24 L70.87 273.24" class="st4"/>
		</g>
		<g id="shape28-91" v:mID="28" v:groupContext="shape" transform="translate(184.746,-83.7618)">
			<title>工作表.28</title>
			<path d="M0 273.24 L99.21 273.24" class="st4"/>
		</g>
		<g id="shape29-94" v:mID="29" v:groupContext="shape" transform="translate(228.631,-83.9135) rotate(18.4349)">
			<title>工作表.29</title>
			<path d="M0 273.24 L44.82 273.24" class="st4"/>
		</g>
		<g id="shape30-97" v:mID="30" v:groupContext="shape" transform="translate(70.4979,-83.7605) rotate(-0.180743)">
			<title>工作表.30</title>
			<path d="M0 273.24 L112.32 273.24" class="st5"/>
		</g>
		<g id="shape31-100" v:mID="31" v:groupContext="shape" transform="translate(70.3445,-64.6098)">
			<title>工作表.31</title>
			<path d="M0 273.24 L70.87 273.24" class="st4"/>
		</g>
		<g id="shape32-103" v:mID="32" v:groupContext="shape" transform="translate(184.404,-50.4366)">
			<title>工作表.32</title>
			<path d="M0 273.24 L99.21 273.24" class="st4"/>
		</g>
		<g id="shape33-106" v:mID="33" v:groupContext="shape" transform="translate(228.289,-50.5883) rotate(18.4349)">
			<title>工作表.33</title>
			<path d="M0 273.24 L44.82 273.24" class="st4"/>
		</g>
		<g id="shape34-109" v:mID="34" v:groupContext="shape" transform="translate(70.1563,-50.4352) rotate(-0.180743)">
			<title>工作表.34</title>
			<path d="M0 273.24 L112.32 273.24" class="st5"/>
		</g>
		<g id="shape35-112" v:mID="35" v:groupContext="shape" transform="translate(53.376,-178.493)">
			<title>工作表.35</title>
			<desc>51</desc>
			<v:textBlock v:margins="rect(2,2,2,2)" v:tabSpace="42.5197"/>
			<v:textRect cx="9.25555" cy="267.236" width="18.52" height="12"/>
			<rect x="0" y="261.236" width="18.5111" height="12" class="st6"/>
			<text x="2" y="270.24" class="st7" v:langID="2052"><v:paragraph/><v:tabList/>51</text>		</g>
		<g id="shape36-115" v:mID="36" v:groupContext="shape" transform="translate(53.8823,-159.982)">
			<title>工作表.36</title>
			<desc>50</desc>
			<v:textBlock v:margins="rect(2,2,2,2)" v:tabSpace="42.5197"/>
			<v:textRect cx="12.8589" cy="267.236" width="25.72" height="12"/>
			<rect x="0" y="261.236" width="25.7177" height="12" class="st6"/>
			<text x="2" y="270.24" class="st7" v:langID="2052"><v:paragraph/><v:tabList/>50</text>		</g>
		<g id="shape37-118" v:mID="37" v:groupContext="shape" transform="translate(53.8823,-146.269)">
			<title>工作表.37</title>
			<desc>49</desc>
			<v:textBlock v:margins="rect(2,2,2,2)" v:tabSpace="42.5197"/>
			<v:textRect cx="12.8589" cy="267.236" width="25.72" height="12"/>
			<rect x="0" y="261.236" width="25.7177" height="12" class="st6"/>
			<text x="2" y="270.24" class="st7" v:langID="2052"><v:paragraph/><v:tabList/>49</text>		</g>
		<g id="shape38-121" v:mID="38" v:groupContext="shape" transform="translate(53.8823,-126.045)">
			<title>工作表.38</title>
			<desc>46</desc>
			<v:textBlock v:margins="rect(2,2,2,2)" v:tabSpace="42.5197"/>
			<v:textRect cx="9.25555" cy="267.236" width="18.52" height="12"/>
			<rect x="0" y="261.236" width="18.5111" height="12" class="st6"/>
			<text x="2" y="270.24" class="st7" v:langID="2052"><v:paragraph/><v:tabList/>46</text>		</g>
		<g id="shape39-124" v:mID="39" v:groupContext="shape" transform="translate(53.8823,-110.79)">
			<title>工作表.39</title>
			<desc>45</desc>
			<v:textBlock v:margins="rect(2,2,2,2)" v:tabSpace="42.5197"/>
			<v:textRect cx="9.25555" cy="267.236" width="18.52" height="12"/>
			<rect x="0" y="261.236" width="18.5111" height="12" class="st6"/>
			<text x="2" y="270.24" class="st7" v:langID="2052"><v:paragraph/><v:tabList/>45</text>		</g>
		<g id="shape40-127" v:mID="40" v:groupContext="shape" transform="translate(54.9186,-92.1082)">
			<title>工作表.40</title>
			<desc>43</desc>
			<v:textBlock v:margins="rect(2,2,2,2)" v:tabSpace="42.5197"/>
			<v:textRect cx="12.8589" cy="267.236" width="25.72" height="12"/>
			<rect x="0" y="261.236" width="25.7177" height="12" class="st6"/>
			<text x="2" y="270.24" class="st7" v:langID="2052"><v:paragraph/><v:tabList/>43</text>		</g>
		<g id="shape41-130" v:mID="41" v:groupContext="shape" transform="translate(54.9186,-78.3952)">
			<title>工作表.41</title>
			<desc>42</desc>
			<v:textBlock v:margins="rect(2,2,2,2)" v:tabSpace="42.5197"/>
			<v:textRect cx="12.8589" cy="267.236" width="25.72" height="12"/>
			<rect x="0" y="261.236" width="25.7177" height="12" class="st6"/>
			<text x="2" y="270.24" class="st7" v:langID="2052"><v:paragraph/><v:tabList/>42</text>		</g>
		<g id="shape42-133" v:mID="42" v:groupContext="shape" transform="translate(54.9186,-58.1712)">
			<title>工作表.42</title>
			<desc>40</desc>
			<v:textBlock v:margins="rect(2,2,2,2)" v:tabSpace="42.5197"/>
			<v:textRect cx="9.25555" cy="267.236" width="18.52" height="12"/>
			<rect x="0" y="261.236" width="18.5111" height="12" class="st6"/>
			<text x="2" y="270.24" class="st7" v:langID="2052"><v:paragraph/><v:tabList/>40</text>		</g>
		<g id="shape43-136" v:mID="43" v:groupContext="shape" transform="translate(54.9186,-42.9156)">
			<title>工作表.43</title>
			<desc>38</desc>
			<v:textBlock v:margins="rect(2,2,2,2)" v:tabSpace="42.5197"/>
			<v:textRect cx="9.25555" cy="267.236" width="18.52" height="12"/>
			<rect x="0" y="261.236" width="18.5111" height="12" class="st6"/>
			<text x="2" y="270.24" class="st7" v:langID="2052"><v:paragraph/><v:tabList/>38</text>		</g>
		<g id="shape44-139" v:mID="44" v:groupContext="shape" transform="translate(160.299,-199.843)">
			<title>工作表.44</title>
			<desc>TLC2</desc>
			<v:textBlock v:margins="rect(2,2,2,2)" v:tabSpace="42.5197"/>
			<v:textRect cx="16.2992" cy="265.984" width="32.6" height="14.5039"/>
			<rect x="0" y="258.732" width="32.5984" height="14.5039" class="st6"/>
			<text x="2" y="268.68" class="st8" v:langID="2052"><v:paragraph/><v:tabList/>TLC2</text>		</g>
		<g id="shape45-142" v:mID="45" v:groupContext="shape" transform="translate(160.299,-164.409)">
			<title>工作表.45</title>
			<desc>TLC3</desc>
			<v:textBlock v:margins="rect(2,2,2,2)" v:tabSpace="42.5197"/>
			<v:textRect cx="16.2992" cy="265.984" width="32.6" height="14.5039"/>
			<rect x="0" y="258.732" width="32.5984" height="14.5039" class="st6"/>
			<text x="2" y="268.68" class="st8" v:langID="2052"><v:paragraph/><v:tabList/>TLC3</text>		</g>
		<g id="shape46-145" v:mID="46" v:groupContext="shape" transform="translate(160.299,-131.811)">
			<title>工作表.46</title>
			<desc>TLC4</desc>
			<v:textBlock v:margins="rect(2,2,2,2)" v:tabSpace="42.5197"/>
			<v:textRect cx="16.2992" cy="265.984" width="32.6" height="14.5039"/>
			<rect x="0" y="258.732" width="32.5984" height="14.5039" class="st6"/>
			<text x="2" y="268.68" class="st8" v:langID="2052"><v:paragraph/><v:tabList/>TLC4</text>		</g>
		<g id="shape47-148" v:mID="47" v:groupContext="shape" transform="translate(160.299,-96.0472)">
			<title>工作表.47</title>
			<desc>TLC5</desc>
			<v:textBlock v:margins="rect(2,2,2,2)" v:tabSpace="42.5197"/>
			<v:textRect cx="16.2992" cy="265.984" width="32.6" height="14.5039"/>
			<rect x="0" y="258.732" width="32.5984" height="14.5039" class="st6"/>
			<text x="2" y="268.68" class="st8" v:langID="2052"><v:paragraph/><v:tabList/>TLC5</text>		</g>
		<g id="shape48-151" v:mID="48" v:groupContext="shape" transform="translate(160.299,-62.0315)">
			<title>工作表.48</title>
			<desc>TLC6</desc>
			<v:textBlock v:margins="rect(2,2,2,2)" v:tabSpace="42.5197"/>
			<v:textRect cx="16.2992" cy="265.984" width="32.6" height="14.5039"/>
			<rect x="0" y="258.732" width="32.5984" height="14.5039" class="st6"/>
			<text x="2" y="268.68" class="st8" v:langID="2052"><v:paragraph/><v:tabList/>TLC6</text>		</g>
		<g id="shape49-154" v:mID="49" v:groupContext="shape" transform="translate(160.299,-30.8504)">
			<title>工作表.49</title>
			<desc>TLC7</desc>
			<v:textBlock v:margins="rect(2,2,2,2)" v:tabSpace="42.5197"/>
			<v:textRect cx="16.2992" cy="265.984" width="32.6" height="14.5039"/>
			<rect x="0" y="258.732" width="32.5984" height="14.5039" class="st6"/>
			<text x="2" y="268.68" class="st8" v:langID="2052"><v:paragraph/><v:tabList/>TLC7</text>		</g>
	</g>
</svg>
