<?xml version="1.0" encoding="UTF-8" standalone="no"?>
<!DOCTYPE svg PUBLIC "-//W3C//DTD SVG 1.0//EN" "http://www.w3.org/TR/2001/REC-SVG-20010904/DTD/svg10.dtd">
<!-- 由 Microsoft Visio 11.0, SVG Export, v1.0 生成 主路电膨控制-制热目标吸气过热度环温分段.svg 制热目标吸气过热度 -->
<svg xmlns="http://www.w3.org/2000/svg" xmlns:xlink="http://www.w3.org/1999/xlink" xmlns:ev="http://www.w3.org/2001/xml-events"
		xmlns:v="http://schemas.microsoft.com/visio/2003/SVGExtensions/" width="4.31319in" height="4.3327in"
		viewBox="0 0 310.55 311.954" xml:space="preserve" color-interpolation-filters="sRGB" class="st10">
	<v:documentProperties v:langID="2052" v:metric="true" v:viewMarkup="false"/>

	<style type="text/css">
	<![CDATA[
		.st1 {fill:#ffffff;stroke:none;stroke-linecap:round;stroke-linejoin:round;stroke-width:0.72}
		.st2 {marker-end:url(#mrkr1-8);stroke:#000000;stroke-linecap:round;stroke-linejoin:round;stroke-width:0.24}
		.st3 {fill:#000000;fill-opacity:1;stroke:#000000;stroke-opacity:1;stroke-width:0.08695652173913}
		.st4 {stroke:#000000;stroke-linecap:round;stroke-linejoin:round;stroke-width:1.2}
		.st5 {stroke:#000000;stroke-dasharray:3.6,2.16;stroke-linecap:round;stroke-linejoin:round;stroke-width:0.24}
		.st6 {fill:none;stroke:none;stroke-linecap:round;stroke-linejoin:round;stroke-width:0.72}
		.st7 {fill:#000000;font-family:Arial;font-size:0.833336em}
		.st8 {fill:#000000;font-family:Arial;font-size:0.75em;font-weight:bold}
		.st9 {font-family:宋体;font-size:1em}
		.st10 {fill:none;fill-rule:evenodd;font-size:12px;overflow:visible;stroke-linecap:square;stroke-miterlimit:3}
	]]>
	</style>

	<defs id="Markers">
		<g id="lend1">
			<path d="M 1 -1 L 0 0 L 1 1 " style="stroke-linecap:round;stroke-linejoin:round;fill:none"/>
		</g>
		<marker id="mrkr1-8" class="st3" v:arrowType="1" v:arrowSize="2" orient="auto" markerUnits="strokeWidth" overflow="visible">
			<use xlink:href="#lend1" transform="scale(-11.5,-11.5) "/>
		</marker>
	</defs>
	<g v:mID="4" v:index="1" v:groupContext="backgroundPage">
		<v:userDefs>
			<v:ud v:nameU="msvVisioCreated" v:prompt="" v:val="VT0(0):26"/>
		</v:userDefs>
		<title>背景-1</title>
		<v:pageProperties width="4.31319" height="4.3327" v:drawingScale="0.0393701" v:pageScale="0.0393701" v:drawingUnits="24"
				v:shadowOffsetX="8.50394" v:shadowOffsetY="-8.50394"/>
		<g id="shape1-1" v:mID="1" v:groupContext="shape">
			<title>实心</title>
			<v:userDefs>
				<v:ud v:nameU="Background" v:val="VT0(0):26"/>
				<v:ud v:nameU="visVersion" v:val="VT0(14):26"/>
				<v:ud v:nameU="msvShapeCategories" v:prompt="" v:val="VT4(DoNotContain)"/>
				<v:ud v:nameU="msvVisioCreated" v:prompt="" v:val="VT0(0):26"/>
			</v:userDefs>
			<rect x="0" y="0" width="310.55" height="311.954" class="st1"/>
		</g>
	</g>
	<g v:mID="6" v:index="4" v:groupContext="foregroundPage">
		<title>主路电膨控制-制热目标吸气过热度环温分段</title>
		<v:pageProperties v:drawingScale="0.0393701" v:pageScale="0.0393701" v:drawingUnits="24" v:shadowOffsetX="8.50394"
				v:shadowOffsetY="-8.50394"/>
		<v:layer v:name="连接线" v:index="0"/>
		<g id="shape1-3" v:mID="1" v:groupContext="shape" transform="translate(60.2119,-21.9032)">
			<title>工作表.1</title>
			<path d="M0 311.95 L228.43 311.95" class="st2"/>
		</g>
		<g id="shape2-9" v:mID="2" v:groupContext="shape" transform="translate(-251.742,290.051) rotate(-90)">
			<title>工作表.2</title>
			<path d="M0 311.95 L266.95 311.95" class="st2"/>
		</g>
		<g id="shape3-14" v:mID="3" v:groupContext="shape" transform="translate(60.6463,-259.105)">
			<title>工作表.3</title>
			<path d="M0 311.95 L70.43 311.95" class="st4"/>
		</g>
		<g id="shape4-17" v:mID="4" v:groupContext="shape" transform="translate(173.598,-244.932)">
			<title>工作表.4</title>
			<path d="M0 311.95 L99.21 311.95" class="st4"/>
		</g>
		<g id="shape5-20" v:mID="5" v:groupContext="shape" transform="translate(229.727,-243.097) rotate(18.4349)">
			<title>工作表.5</title>
			<path d="M0 311.95 L44.82 311.95" class="st4"/>
		</g>
		<g id="shape6-23" v:mID="6" v:groupContext="shape" transform="translate(59.2278,-244.11) rotate(-0.180743)">
			<title>工作表.6</title>
			<path d="M0 311.95 L112.32 311.95" class="st5"/>
		</g>
		<g id="shape7-26" v:mID="7" v:groupContext="shape" transform="translate(35.195,-238.719)">
			<title>工作表.7</title>
			<desc>37.5</desc>
			<v:textBlock v:margins="rect(2,2,2,2)" v:tabSpace="42.5197"/>
			<v:textRect cx="12.0362" cy="305.954" width="24.08" height="12"/>
			<rect x="0" y="299.954" width="24.0725" height="12" class="st6"/>
			<text x="2" y="308.95" class="st7" v:langID="2052"><v:paragraph/><v:tabList/>37.5</text>		</g>
		<g id="shape8-29" v:mID="8" v:groupContext="shape" transform="translate(42.3986,-253.12)">
			<title>工作表.8</title>
			<desc>38</desc>
			<v:textBlock v:margins="rect(2,2,2,2)" v:tabSpace="42.5197"/>
			<v:textRect cx="9.80422" cy="305.954" width="19.61" height="12"/>
			<rect x="0" y="299.954" width="19.6084" height="12" class="st6"/>
			<text x="2" y="308.95" class="st7" v:langID="2052"><v:paragraph/><v:tabList/>38</text>		</g>
		<g id="shape9-32" v:mID="9" v:groupContext="shape" transform="translate(-224.995,240.125) rotate(-83.2566)">
			<title>工作表.9</title>
			<path d="M0 311.95 L236.7 311.95" class="st2"/>
		</g>
		<g id="shape10-37" v:mID="10" v:groupContext="shape" transform="translate(518.952,1.93194) rotate(82.4953)">
			<title>工作表.10</title>
			<path d="M0 311.95 L237.63 311.95" class="st2"/>
		</g>
		<g id="shape11-42" v:mID="11" v:groupContext="shape" transform="translate(18.72,-276.378)">
			<title>工作表.11</title>
			<desc>TA / ℃</desc>
			<v:textBlock v:margins="rect(4,4,4,4)" v:tabSpace="42.5197"/>
			<v:textRect cx="22.2633" cy="303.526" width="44.53" height="16.8562"/>
			<rect x="0" y="295.098" width="44.5266" height="16.8562" class="st6"/>
			<text x="8" y="306.45" class="st8" v:langID="2052"><v:paragraph v:horizAlign="1"/><v:tabList/>TA / <tspan class="st9">℃</tspan></text>		</g>
		<g id="shape18-46" v:mID="18" v:groupContext="shape" transform="translate(121.199,-256.205)">
			<title>工作表.18</title>
			<desc>S1</desc>
			<v:textBlock v:margins="rect(2,2,2,2)" v:tabSpace="42.5197"/>
			<v:textRect cx="41.2606" cy="304.702" width="82.53" height="14.5039"/>
			<rect x="0" y="297.45" width="82.5213" height="14.5039" class="st6"/>
			<text x="35.76" y="307.4" class="st8" v:langID="2052"><v:paragraph v:horizAlign="1"/><v:tabList/>S1</text>		</g>
		<g id="shape19-49" v:mID="19" v:groupContext="shape" transform="translate(60.8939,-231.089)">
			<title>工作表.19</title>
			<path d="M0 311.95 L70.43 311.95" class="st4"/>
		</g>
		<g id="shape20-52" v:mID="20" v:groupContext="shape" transform="translate(173.845,-216.916)">
			<title>工作表.20</title>
			<path d="M0 311.95 L99.21 311.95" class="st4"/>
		</g>
		<g id="shape21-55" v:mID="21" v:groupContext="shape" transform="translate(229.974,-215.081) rotate(18.4349)">
			<title>工作表.21</title>
			<path d="M0 311.95 L44.82 311.95" class="st4"/>
		</g>
		<g id="shape22-58" v:mID="22" v:groupContext="shape" transform="translate(59.4754,-216.094) rotate(-0.180743)">
			<title>工作表.22</title>
			<path d="M0 311.95 L112.32 311.95" class="st5"/>
		</g>
		<g id="shape23-61" v:mID="23" v:groupContext="shape" transform="translate(35.195,-210.703)">
			<title>工作表.23</title>
			<desc>27.5</desc>
			<v:textBlock v:margins="rect(2,2,2,2)" v:tabSpace="42.5197"/>
			<v:textRect cx="12.16" cy="305.954" width="24.33" height="12"/>
			<rect x="0" y="299.954" width="24.3201" height="12" class="st6"/>
			<text x="2" y="308.95" class="st7" v:langID="2052"><v:paragraph/><v:tabList/>27.5</text>		</g>
		<g id="shape24-64" v:mID="24" v:groupContext="shape" transform="translate(42.3986,-225.105)">
			<title>工作表.24</title>
			<desc>28</desc>
			<v:textBlock v:margins="rect(2,2,2,2)" v:tabSpace="42.5197"/>
			<v:textRect cx="9.80422" cy="305.954" width="19.61" height="12"/>
			<rect x="0" y="299.954" width="19.6084" height="12" class="st6"/>
			<text x="2" y="308.95" class="st7" v:langID="2052"><v:paragraph/><v:tabList/>28</text>		</g>
		<g id="shape25-67" v:mID="25" v:groupContext="shape" transform="translate(121.405,-227.38)">
			<title>工作表.25</title>
			<desc>S2</desc>
			<v:textBlock v:margins="rect(2,2,2,2)" v:tabSpace="42.5197"/>
			<v:textRect cx="41.3844" cy="304.702" width="82.77" height="14.5039"/>
			<rect x="0" y="297.45" width="82.7689" height="14.5039" class="st6"/>
			<text x="35.88" y="307.4" class="st8" v:langID="2052"><v:paragraph v:horizAlign="1"/><v:tabList/>S2</text>		</g>
		<g id="shape35-70" v:mID="35" v:groupContext="shape" transform="translate(61.0175,-202.412)">
			<title>工作表.35</title>
			<path d="M0 311.95 L70.43 311.95" class="st4"/>
		</g>
		<g id="shape36-73" v:mID="36" v:groupContext="shape" transform="translate(173.969,-188.239)">
			<title>工作表.36</title>
			<path d="M0 311.95 L99.21 311.95" class="st4"/>
		</g>
		<g id="shape37-76" v:mID="37" v:groupContext="shape" transform="translate(230.098,-186.404) rotate(18.4349)">
			<title>工作表.37</title>
			<path d="M0 311.95 L44.82 311.95" class="st4"/>
		</g>
		<g id="shape38-79" v:mID="38" v:groupContext="shape" transform="translate(59.599,-187.417) rotate(-0.180743)">
			<title>工作表.38</title>
			<path d="M0 311.95 L112.32 311.95" class="st5"/>
		</g>
		<g id="shape39-82" v:mID="39" v:groupContext="shape" transform="translate(35.3186,-182.026)">
			<title>工作表.39</title>
			<desc>11.5</desc>
			<v:textBlock v:margins="rect(2,2,2,2)" v:tabSpace="42.5197"/>
			<v:textRect cx="12.16" cy="305.954" width="24.33" height="12"/>
			<rect x="0" y="299.954" width="24.3201" height="12" class="st6"/>
			<text x="2" y="308.95" class="st7" v:langID="2052"><v:paragraph/><v:tabList/>11.5</text>		</g>
		<g id="shape40-85" v:mID="40" v:groupContext="shape" transform="translate(42.3986,-196.427)">
			<title>工作表.40</title>
			<desc>12</desc>
			<v:textBlock v:margins="rect(2,2,2,2)" v:tabSpace="42.5197"/>
			<v:textRect cx="9.80422" cy="305.954" width="19.61" height="12"/>
			<rect x="0" y="299.954" width="19.6084" height="12" class="st6"/>
			<text x="2" y="308.95" class="st7" v:langID="2052"><v:paragraph/><v:tabList/>12</text>		</g>
		<g id="shape41-88" v:mID="41" v:groupContext="shape" transform="translate(121.529,-198.868)">
			<title>工作表.41</title>
			<desc>S3</desc>
			<v:textBlock v:margins="rect(2,2,2,2)" v:tabSpace="42.5197"/>
			<v:textRect cx="41.3844" cy="304.702" width="82.77" height="14.5039"/>
			<rect x="0" y="297.45" width="82.7689" height="14.5039" class="st6"/>
			<text x="35.88" y="307.4" class="st8" v:langID="2052"><v:paragraph v:horizAlign="1"/><v:tabList/>S3</text>		</g>
		<g id="shape12-91" v:mID="12" v:groupContext="shape" transform="translate(60.8939,-174.709)">
			<title>工作表.12</title>
			<path d="M0 311.95 L70.43 311.95" class="st4"/>
		</g>
		<g id="shape13-94" v:mID="13" v:groupContext="shape" transform="translate(173.845,-160.536)">
			<title>工作表.13</title>
			<path d="M0 311.95 L99.21 311.95" class="st4"/>
		</g>
		<g id="shape14-97" v:mID="14" v:groupContext="shape" transform="translate(229.974,-158.701) rotate(18.4349)">
			<title>工作表.14</title>
			<path d="M0 311.95 L44.82 311.95" class="st4"/>
		</g>
		<g id="shape15-100" v:mID="15" v:groupContext="shape" transform="translate(59.4754,-159.714) rotate(-0.180743)">
			<title>工作表.15</title>
			<path d="M0 311.95 L112.32 311.95" class="st5"/>
		</g>
		<g id="shape16-103" v:mID="16" v:groupContext="shape" transform="translate(39.4469,-154.323)">
			<title>工作表.16</title>
			<desc>2.5</desc>
			<v:textBlock v:margins="rect(2,2,2,2)" v:tabSpace="42.5197"/>
			<v:textRect cx="10.0341" cy="305.954" width="20.07" height="12"/>
			<rect x="0" y="299.954" width="20.0681" height="12" class="st6"/>
			<text x="2" y="308.95" class="st7" v:langID="2052"><v:paragraph/><v:tabList/>2.5</text>		</g>
		<g id="shape17-106" v:mID="17" v:groupContext="shape" transform="translate(46.5335,-168.725)">
			<title>工作表.17</title>
			<desc>3</desc>
			<v:textBlock v:margins="rect(2,2,2,2)" v:tabSpace="42.5197"/>
			<v:textRect cx="7.12831" cy="305.954" width="14.26" height="12"/>
			<rect x="0" y="299.954" width="14.2566" height="12" class="st6"/>
			<text x="2" y="308.95" class="st7" v:langID="2052"><v:paragraph/><v:tabList/>3</text>		</g>
		<g id="shape26-109" v:mID="26" v:groupContext="shape" transform="translate(121.405,-170.522)">
			<title>工作表.26</title>
			<desc>S4</desc>
			<v:textBlock v:margins="rect(2,2,2,2)" v:tabSpace="42.5197"/>
			<v:textRect cx="41.3844" cy="304.702" width="82.77" height="14.5039"/>
			<rect x="0" y="297.45" width="82.7689" height="14.5039" class="st6"/>
			<text x="35.88" y="307.4" class="st8" v:langID="2052"><v:paragraph v:horizAlign="1"/><v:tabList/>S4</text>		</g>
		<g id="shape27-112" v:mID="27" v:groupContext="shape" transform="translate(60.7081,-145.076)">
			<title>工作表.27</title>
			<path d="M0 311.95 L70.43 311.95" class="st4"/>
		</g>
		<g id="shape28-115" v:mID="28" v:groupContext="shape" transform="translate(173.66,-130.902)">
			<title>工作表.28</title>
			<path d="M0 311.95 L99.21 311.95" class="st4"/>
		</g>
		<g id="shape29-118" v:mID="29" v:groupContext="shape" transform="translate(229.788,-129.067) rotate(18.4349)">
			<title>工作表.29</title>
			<path d="M0 311.95 L44.82 311.95" class="st4"/>
		</g>
		<g id="shape30-121" v:mID="30" v:groupContext="shape" transform="translate(59.2896,-130.08) rotate(-0.180743)">
			<title>工作表.30</title>
			<path d="M0 311.95 L112.32 311.95" class="st5"/>
		</g>
		<g id="shape31-124" v:mID="31" v:groupContext="shape" transform="translate(35.2568,-124.689)">
			<title>工作表.31</title>
			<desc>-3.5</desc>
			<v:textBlock v:margins="rect(2,2,2,2)" v:tabSpace="42.5197"/>
			<v:textRect cx="12.0362" cy="305.954" width="24.08" height="12"/>
			<rect x="0" y="299.954" width="24.0725" height="12" class="st6"/>
			<text x="2" y="308.95" class="st7" v:langID="2052"><v:paragraph/><v:tabList/>-3.5</text>		</g>
		<g id="shape32-127" v:mID="32" v:groupContext="shape" transform="translate(42.4604,-139.091)">
			<title>工作表.32</title>
			<desc>-3</desc>
			<v:textBlock v:margins="rect(2,2,2,2)" v:tabSpace="42.5197"/>
			<v:textRect cx="9.80422" cy="305.954" width="19.61" height="12"/>
			<rect x="0" y="299.954" width="19.6084" height="12" class="st6"/>
			<text x="2" y="308.95" class="st7" v:langID="2052"><v:paragraph/><v:tabList/>-3</text>		</g>
		<g id="shape33-130" v:mID="33" v:groupContext="shape" transform="translate(120.614,-142.949)">
			<title>工作表.33</title>
			<desc>S5</desc>
			<v:textBlock v:margins="rect(2,2,2,2)" v:tabSpace="42.5197"/>
			<v:textRect cx="41.2606" cy="304.702" width="82.53" height="14.5039"/>
			<rect x="0" y="297.45" width="82.5213" height="14.5039" class="st6"/>
			<text x="35.76" y="307.4" class="st8" v:langID="2052"><v:paragraph v:horizAlign="1"/><v:tabList/>S5</text>		</g>
		<g id="shape42-133" v:mID="42" v:groupContext="shape" transform="translate(60.9557,-117.06)">
			<title>工作表.42</title>
			<path d="M0 311.95 L70.43 311.95" class="st4"/>
		</g>
		<g id="shape43-136" v:mID="43" v:groupContext="shape" transform="translate(173.907,-102.887)">
			<title>工作表.43</title>
			<path d="M0 311.95 L99.21 311.95" class="st4"/>
		</g>
		<g id="shape44-139" v:mID="44" v:groupContext="shape" transform="translate(230.036,-101.051) rotate(18.4349)">
			<title>工作表.44</title>
			<path d="M0 311.95 L44.82 311.95" class="st4"/>
		</g>
		<g id="shape45-142" v:mID="45" v:groupContext="shape" transform="translate(59.5372,-102.065) rotate(-0.180743)">
			<title>工作表.45</title>
			<path d="M0 311.95 L112.32 311.95" class="st5"/>
		</g>
		<g id="shape46-145" v:mID="46" v:groupContext="shape" transform="translate(35.2568,-96.6732)">
			<title>工作表.46</title>
			<desc>-9.5</desc>
			<v:textBlock v:margins="rect(2,2,2,2)" v:tabSpace="42.5197"/>
			<v:textRect cx="12.16" cy="305.954" width="24.33" height="12"/>
			<rect x="0" y="299.954" width="24.3201" height="12" class="st6"/>
			<text x="2" y="308.95" class="st7" v:langID="2052"><v:paragraph/><v:tabList/>-9.5</text>		</g>
		<g id="shape47-148" v:mID="47" v:groupContext="shape" transform="translate(42.4604,-111.075)">
			<title>工作表.47</title>
			<desc>-9</desc>
			<v:textBlock v:margins="rect(2,2,2,2)" v:tabSpace="42.5197"/>
			<v:textRect cx="9.80422" cy="305.954" width="19.61" height="12"/>
			<rect x="0" y="299.954" width="19.6084" height="12" class="st6"/>
			<text x="2" y="308.95" class="st7" v:langID="2052"><v:paragraph/><v:tabList/>-9</text>		</g>
		<g id="shape48-151" v:mID="48" v:groupContext="shape" transform="translate(121.467,-113.35)">
			<title>工作表.48</title>
			<desc>S6</desc>
			<v:textBlock v:margins="rect(2,2,2,2)" v:tabSpace="42.5197"/>
			<v:textRect cx="41.3844" cy="304.702" width="82.77" height="14.5039"/>
			<rect x="0" y="297.45" width="82.7689" height="14.5039" class="st6"/>
			<text x="35.88" y="307.4" class="st8" v:langID="2052"><v:paragraph v:horizAlign="1"/><v:tabList/>S6</text>		</g>
		<g id="shape49-154" v:mID="49" v:groupContext="shape" transform="translate(61.0794,-88.3827)">
			<title>工作表.49</title>
			<path d="M0 311.95 L70.43 311.95" class="st4"/>
		</g>
		<g id="shape50-157" v:mID="50" v:groupContext="shape" transform="translate(174.031,-74.2095)">
			<title>工作表.50</title>
			<path d="M0 311.95 L99.21 311.95" class="st4"/>
		</g>
		<g id="shape51-160" v:mID="51" v:groupContext="shape" transform="translate(230.16,-72.3742) rotate(18.4349)">
			<title>工作表.51</title>
			<path d="M0 311.95 L44.82 311.95" class="st4"/>
		</g>
		<g id="shape52-163" v:mID="52" v:groupContext="shape" transform="translate(59.6609,-73.3873) rotate(-0.180743)">
			<title>工作表.52</title>
			<path d="M0 311.95 L112.32 311.95" class="st5"/>
		</g>
		<g id="shape53-166" v:mID="53" v:groupContext="shape" transform="translate(30.6482,-67.9961)">
			<title>工作表.53</title>
			<desc>-15.5</desc>
			<v:textBlock v:margins="rect(2,2,2,2)" v:tabSpace="42.5197"/>
			<v:textRect cx="14.5262" cy="305.954" width="29.06" height="12"/>
			<rect x="0" y="299.954" width="29.0523" height="12" class="st6"/>
			<text x="2" y="308.95" class="st7" v:langID="2052"><v:paragraph/><v:tabList/>-15.5</text>		</g>
		<g id="shape54-169" v:mID="54" v:groupContext="shape" transform="translate(37.7348,-82.398)">
			<title>工作表.54</title>
			<desc>-15</desc>
			<v:textBlock v:margins="rect(2,2,2,2)" v:tabSpace="42.5197"/>
			<v:textRect cx="9.80422" cy="305.954" width="19.61" height="12"/>
			<rect x="0" y="299.954" width="19.6084" height="12" class="st6"/>
			<text x="2" y="308.95" class="st7" v:langID="2052"><v:paragraph/><v:tabList/>-15</text>		</g>
		<g id="shape55-172" v:mID="55" v:groupContext="shape" transform="translate(121.59,-84.8386)">
			<title>工作表.55</title>
			<desc>S7</desc>
			<v:textBlock v:margins="rect(2,2,2,2)" v:tabSpace="42.5197"/>
			<v:textRect cx="41.3844" cy="304.702" width="82.77" height="14.5039"/>
			<rect x="0" y="297.45" width="82.7689" height="14.5039" class="st6"/>
			<text x="35.88" y="307.4" class="st8" v:langID="2052"><v:paragraph v:horizAlign="1"/><v:tabList/>S7</text>		</g>
		<g id="shape56-175" v:mID="56" v:groupContext="shape" transform="translate(60.9557,-60.6799)">
			<title>工作表.56</title>
			<path d="M0 311.95 L70.43 311.95" class="st4"/>
		</g>
		<g id="shape57-178" v:mID="57" v:groupContext="shape" transform="translate(173.907,-46.5067)">
			<title>工作表.57</title>
			<path d="M0 311.95 L99.21 311.95" class="st4"/>
		</g>
		<g id="shape58-181" v:mID="58" v:groupContext="shape" transform="translate(230.036,-44.6715) rotate(18.4349)">
			<title>工作表.58</title>
			<path d="M0 311.95 L44.82 311.95" class="st4"/>
		</g>
		<g id="shape59-184" v:mID="59" v:groupContext="shape" transform="translate(59.5372,-45.6846) rotate(-0.180743)">
			<title>工作表.59</title>
			<path d="M0 311.95 L112.32 311.95" class="st5"/>
		</g>
		<g id="shape60-187" v:mID="60" v:groupContext="shape" transform="translate(31.244,-39.0236)">
			<title>工作表.60</title>
			<desc>-21.5</desc>
			<v:textBlock v:margins="rect(2,2,2,2)" v:tabSpace="42.5197"/>
			<v:textRect cx="13.5774" cy="305.954" width="27.16" height="12"/>
			<rect x="0" y="299.954" width="27.1547" height="12" class="st6"/>
			<text x="2" y="308.95" class="st7" v:langID="2052"><v:paragraph/><v:tabList/>-21.5</text>		</g>
		<g id="shape61-190" v:mID="61" v:groupContext="shape" transform="translate(38.9321,-54.2835)">
			<title>工作表.61</title>
			<desc>-21</desc>
			<v:textBlock v:margins="rect(2,2,2,2)" v:tabSpace="42.5197"/>
			<v:textRect cx="10.1413" cy="305.954" width="20.29" height="12"/>
			<rect x="0" y="299.954" width="20.2825" height="12" class="st6"/>
			<text x="2" y="308.95" class="st7" v:langID="2052"><v:paragraph/><v:tabList/>-21</text>		</g>
		<g id="shape62-193" v:mID="62" v:groupContext="shape" transform="translate(121.467,-56.4921)">
			<title>工作表.62</title>
			<desc>S8</desc>
			<v:textBlock v:margins="rect(2,2,2,2)" v:tabSpace="42.5197"/>
			<v:textRect cx="41.3844" cy="304.702" width="82.77" height="14.5039"/>
			<rect x="0" y="297.45" width="82.7689" height="14.5039" class="st6"/>
			<text x="35.88" y="307.4" class="st8" v:langID="2052"><v:paragraph v:horizAlign="1"/><v:tabList/>S8</text>		</g>
		<g id="shape34-196" v:mID="34" v:groupContext="shape" transform="translate(121.652,-29.1024)">
			<title>工作表.34</title>
			<desc>S9</desc>
			<v:textBlock v:margins="rect(2,2,2,2)" v:tabSpace="42.5197"/>
			<v:textRect cx="41.3844" cy="304.702" width="82.77" height="14.5039"/>
			<rect x="0" y="297.45" width="82.7689" height="14.5039" class="st6"/>
			<text x="35.88" y="307.4" class="st8" v:langID="2052"><v:paragraph v:horizAlign="1"/><v:tabList/>S9</text>		</g>
	</g>
</svg>
