<?xml version="1.0" encoding="UTF-8" standalone="no"?>
<!DOCTYPE svg PUBLIC "-//W3C//DTD SVG 1.0//EN" "http://www.w3.org/TR/2001/REC-SVG-20010904/DTD/svg10.dtd">
<!-- 由 Microsoft Visio 11.0, SVG Export, v1.0 生成 地暖预热功能.svg 地暖预热功能 -->
<svg xmlns="http://www.w3.org/2000/svg" xmlns:xlink="http://www.w3.org/1999/xlink" xmlns:ev="http://www.w3.org/2001/xml-events"
		xmlns:v="http://schemas.microsoft.com/visio/2003/SVGExtensions/" width="5.43175in" height="3.26528in"
		viewBox="0 0 391.086 235.1" xml:space="preserve" color-interpolation-filters="sRGB" class="st16">
	<v:documentProperties v:langID="2052" v:metric="true" v:viewMarkup="false"/>

	<style type="text/css">
	<![CDATA[
		.st1 {fill:#ffffff;stroke:none;stroke-linecap:round;stroke-linejoin:round;stroke-width:0.72}
		.st2 {marker-end:url(#mrkr1-8);stroke:#000000;stroke-linecap:round;stroke-linejoin:round;stroke-width:0.24}
		.st3 {fill:#000000;fill-opacity:1;stroke:#000000;stroke-opacity:1;stroke-width:0.08695652173913}
		.st4 {fill:none;marker-end:url(#mrkr1-12);stroke:none;stroke-linecap:round;stroke-linejoin:round;stroke-width:0.72}
		.st5 {fill:#000000;fill-opacity:1;stroke:#000000;stroke-opacity:1;stroke-width:0.22222222222222}
		.st6 {fill:#000000;font-family:Arial;font-size:0.833336em}
		.st7 {marker-end:url(#mrkr4-19);stroke:#000000;stroke-linecap:round;stroke-linejoin:round;stroke-width:0.24}
		.st8 {fill:#000000;font-family:Arial;font-size:0.874992em}
		.st9 {stroke:#000000;stroke-dasharray:1.68,1.2;stroke-linecap:round;stroke-linejoin:round;stroke-width:0.24}
		.st10 {fill:#000000;font-family:Arial;font-size:0.666664em}
		.st11 {stroke:#000000;stroke-linecap:round;stroke-linejoin:round;stroke-width:0.24}
		.st12 {fill:#000000;font-family:Arial;font-size:0.75em}
		.st13 {font-family:Arial Unicode MS;font-size:1em}
		.st14 {marker-end:url(#mrkr1-8);marker-start:url(#mrkr1-64);stroke:#000000;stroke-linecap:round;stroke-linejoin:round;stroke-width:0.24}
		.st15 {fill:#000000;font-family:Arial;font-size:0.499992em}
		.st16 {fill:none;fill-rule:evenodd;font-size:12px;overflow:visible;stroke-linecap:square;stroke-miterlimit:3}
	]]>
	</style>

	<defs id="Markers">
		<g id="lend1">
			<path d="M 1 -1 L 0 0 L 1 1 " style="stroke-linecap:round;stroke-linejoin:round;fill:none"/>
		</g>
		<marker id="mrkr1-8" class="st3" v:arrowType="1" v:arrowSize="2" orient="auto" markerUnits="strokeWidth" overflow="visible">
			<use xlink:href="#lend1" transform="scale(-11.5,-11.5) "/>
		</marker>
		<marker id="mrkr1-12" class="st5" v:arrowType="1" v:arrowSize="2" orient="auto" markerUnits="strokeWidth"
				overflow="visible">
			<use xlink:href="#lend1" transform="scale(-4.5,-4.5) "/>
		</marker>
		<g id="lend4">
			<path d="M 2 1 L 0 0 L 2 -1 L 2 1 " style="stroke:none"/>
		</g>
		<marker id="mrkr4-19" class="st3" v:arrowType="4" v:arrowSize="2" v:setback="23" refX="-23" orient="auto"
				markerUnits="strokeWidth" overflow="visible">
			<use xlink:href="#lend4" transform="scale(-11.5,-11.5) "/>
		</marker>
		<marker id="mrkr1-64" class="st3" v:arrowType="1" v:arrowSize="2" orient="auto" markerUnits="strokeWidth"
				overflow="visible">
			<use xlink:href="#lend1" transform="scale(11.5) "/>
		</marker>
	</defs>
	<g v:mID="4" v:index="1" v:groupContext="backgroundPage">
		<v:userDefs>
			<v:ud v:nameU="msvVisioCreated" v:prompt="" v:val="VT0(0):26"/>
		</v:userDefs>
		<title>背景-1</title>
		<v:pageProperties width="5.43175" height="3.26528" v:drawingScale="0.0393701" v:pageScale="0.0393701" v:drawingUnits="24"
				v:shadowOffsetX="8.50394" v:shadowOffsetY="-8.50394"/>
		<g id="shape1-1" v:mID="1" v:groupContext="shape">
			<title>实心</title>
			<v:userDefs>
				<v:ud v:nameU="Background" v:val="VT0(0):26"/>
				<v:ud v:nameU="visVersion" v:val="VT0(14):26"/>
				<v:ud v:nameU="msvShapeCategories" v:prompt="" v:val="VT4(DoNotContain)"/>
				<v:ud v:nameU="msvVisioCreated" v:prompt="" v:val="VT0(0):26"/>
			</v:userDefs>
			<rect x="0" y="0" width="391.086" height="235.1" class="st1"/>
		</g>
	</g>
	<g v:mID="0" v:index="2" v:groupContext="foregroundPage">
		<title>地暖预热功能</title>
		<v:pageProperties v:drawingScale="0.0393701" v:pageScale="0.0393701" v:drawingUnits="24" v:shadowOffsetX="8.50394"
				v:shadowOffsetY="-8.50394"/>
		<v:layer v:name="连接线" v:index="0"/>
		<g id="shape18-3" v:mID="18" v:groupContext="shape" transform="translate(55.8171,-61.9699)">
			<title>工作表.18</title>
			<path d="M0 235.1 L294.17 235.1" class="st2"/>
		</g>
		<g id="shape25-9" v:mID="25" v:groupContext="shape" transform="translate(328.015,-41.1956)">
			<title>工作表.25</title>
			<desc>t</desc>
			<v:textBlock v:margins="rect(4,4,4,4)" v:tabSpace="42.5197"/>
			<v:textRect cx="20.2444" cy="227.1" width="40.49" height="16"/>
			<rect x="0" y="219.1" width="40.4888" height="16" class="st4"/>
			<text x="18.86" y="229.6" class="st6" v:langID="2052"><v:paragraph v:spLine="-1" v:horizAlign="1"/><v:tabList/>t</text>		</g>
		<g id="shape1-14" v:mID="1" v:groupContext="shape" v:layerMember="0" transform="translate(77.8106,-24.6917)">
			<title>动态连接线</title>
			<path d="M7.09 235.1 L7.09 54.38" class="st7"/>
		</g>
		<g id="shape21-20" v:mID="21" v:groupContext="shape" transform="translate(39.685,-106.587)">
			<title>工作表.21</title>
			<desc>PUMPf</desc>
			<v:textBlock v:margins="rect(4,4,4,4)" v:tabSpace="42.5197"/>
			<v:textRect cx="21.7572" cy="227.1" width="43.52" height="16"/>
			<rect x="0" y="219.1" width="43.5144" height="16" class="st4"/>
			<text x="5.13" y="229.73" class="st8" v:langID="2052"><v:paragraph v:spLine="-1" v:horizAlign="1"/><v:tabList/>PUMPf</text>		</g>
		<g id="shape23-24" v:mID="23" v:groupContext="shape" transform="translate(-104.682,183.668) rotate(-90)">
			<title>工作表.23</title>
			<path d="M0 235.1 L114.71 235.1" class="st9"/>
		</g>
		<g id="shape24-27" v:mID="24" v:groupContext="shape" transform="translate(98.4471,-116.503)">
			<title>工作表.24</title>
			<desc>ON</desc>
			<v:textBlock v:margins="rect(4,4,4,4)" v:tabSpace="42.5197"/>
			<v:textRect cx="14.135" cy="227.1" width="28.28" height="16"/>
			<rect x="0" y="219.1" width="28.27" height="16" class="st4"/>
			<text x="8.14" y="229.1" class="st10" v:langID="2052"><v:paragraph v:spLine="-1" v:horizAlign="1"/><v:tabList/>ON</text>		</g>
		<g id="shape28-31" v:mID="28" v:groupContext="shape" transform="translate(50.492,-154.975) rotate(-11.0554)">
			<title>工作表.28</title>
			<path d="M0 235.1 L35.48 235.1" class="st11"/>
		</g>
		<g id="shape30-34" v:mID="30" v:groupContext="shape" transform="translate(-91.8087,146.886) rotate(-90)">
			<title>工作表.30</title>
			<path d="M0 235.1 L76.23 235.1" class="st9"/>
		</g>
		<g id="shape32-37" v:mID="32" v:groupContext="shape" transform="translate(-56.9644,182.659) rotate(-90)">
			<title>工作表.32</title>
			<path d="M0 235.1 L118.61 235.1" class="st9"/>
		</g>
		<g id="shape33-40" v:mID="33" v:groupContext="shape" transform="translate(-44.0216,182.943) rotate(-90)">
			<title>工作表.33</title>
			<path d="M0 235.1 L117.1 235.1" class="st9"/>
		</g>
		<g id="shape37-43" v:mID="37" v:groupContext="shape" transform="translate(11.5141,147.044) rotate(-90)">
			<title>工作表.37</title>
			<path d="M0 235.1 L85.24 235.1" class="st9"/>
		</g>
		<g id="shape17-46" v:mID="17" v:groupContext="shape" transform="translate(27.7441,-172.094)">
			<title>工作表.17</title>
			<desc>TWout2_stop</desc>
			<v:textBlock v:margins="rect(4,4,4,4)" v:tabSpace="42.5197"/>
			<v:textRect cx="31.7835" cy="227.1" width="63.57" height="16"/>
			<rect x="0" y="219.1" width="63.567" height="16" class="st4"/>
			<text x="7.99" y="229.1" class="st10" v:langID="2052"><v:paragraph v:spLine="-1" v:horizAlign="1"/><v:tabList/>TWout2_stop</text>		</g>
		<g id="shape43-50" v:mID="43" v:groupContext="shape" transform="translate(22.5821,-196.188)">
			<title>工作表.43</title>
			<desc>TWout2 / ℃</desc>
			<v:textBlock v:margins="rect(4,4,4,4)" v:tabSpace="42.5197"/>
			<v:textRect cx="31.8898" cy="227.1" width="63.78" height="16"/>
			<rect x="0" y="219.1" width="63.7795" height="16" class="st4"/>
			<text x="7.79" y="229.35" class="st12" v:langID="2052"><v:paragraph v:spLine="-1" v:horizAlign="1"/><v:tabList/>TWout2 / <tspan
						class="st13">℃</tspan></text>		</g>
		<g id="shape47-55" v:mID="47" v:groupContext="shape" transform="translate(84.648,203.983) rotate(-90)">
			<title>工作表.47</title>
			<path d="M0 235.1 L144.22 235.1" class="st9"/>
		</g>
		<g id="shape49-58" v:mID="49" v:groupContext="shape" transform="translate(96.3418,-54.8352)">
			<title>工作表.49</title>
			<path d="M0 235.1 L33.48 235.1" class="st14"/>
		</g>
		<g id="shape50-66" v:mID="50" v:groupContext="shape" transform="translate(95.9143,-36.8491)">
			<title>工作表.50</title>
			<path d="M0 235.1 L223.55 235.1" class="st14"/>
		</g>
		<g id="shape51-73" v:mID="51" v:groupContext="shape" transform="translate(84.8973,-109.873)">
			<title>工作表.51</title>
			<path d="M0 235.1 L10.56 235.1" class="st11"/>
		</g>
		<g id="shape52-76" v:mID="52" v:groupContext="shape" transform="translate(-139.526,203.983) rotate(-90)">
			<title>工作表.52</title>
			<path d="M0 235.1 L128.16 235.1" class="st9"/>
		</g>
		<g id="shape54-79" v:mID="54" v:groupContext="shape" transform="translate(157.323,-22.5821)">
			<title>工作表.54</title>
			<desc>t_FLH_preht_max</desc>
			<v:textBlock v:margins="rect(4,4,4,4)" v:tabSpace="42.5197"/>
			<v:textRect cx="51.7323" cy="227.1" width="103.47" height="16"/>
			<rect x="0" y="219.1" width="103.465" height="16" class="st4"/>
			<text x="15.71" y="229.35" class="st12" v:langID="2052"><v:paragraph v:spLine="-1" v:horizAlign="1"/><v:tabList/>t_FLH_preht_max</text>		</g>
		<g id="shape55-83" v:mID="55" v:groupContext="shape" transform="translate(64.9134,-38.4561)">
			<title>工作表.55</title>
			<desc>t_FLH_preht_intv</desc>
			<v:textBlock v:margins="rect(4,4,4,4)" v:tabSpace="42.5197"/>
			<v:textRect cx="49.6063" cy="227.1" width="99.22" height="16"/>
			<rect x="0" y="219.1" width="99.2126" height="16" class="st4"/>
			<text x="26.59" y="228.6" class="st15" v:langID="2052"><v:paragraph v:spLine="-1" v:horizAlign="1"/><v:tabList/>t_FLH_preht_intv</text>		</g>
		<g id="shape82-87" v:mID="82" v:groupContext="shape" transform="translate(340.11,291.87) rotate(180)">
			<title>工作表.82</title>
			<path d="M0 235.1 L255.21 235.1" class="st9"/>
		</g>
		<g id="shape3-90" v:mID="3" v:groupContext="shape" transform="translate(340.536,296.972) rotate(180)">
			<title>工作表.3</title>
			<path d="M0 235.1 L255.64 235.1" class="st9"/>
		</g>
		<g id="shape84-93" v:mID="84" v:groupContext="shape" transform="translate(27.1771,-163.527)">
			<title>工作表.84</title>
			<desc>TWout2_start</desc>
			<v:textBlock v:margins="rect(4,4,4,4)" v:tabSpace="42.5197"/>
			<v:textRect cx="31.7835" cy="227.1" width="63.57" height="16"/>
			<rect x="0" y="219.1" width="63.567" height="16" class="st4"/>
			<text x="7.78" y="229.1" class="st10" v:langID="2052"><v:paragraph v:spLine="-1" v:horizAlign="1"/><v:tabList/>TWout2_start</text>		</g>
		<g id="shape7-97" v:mID="7" v:groupContext="shape" transform="translate(39.685,-74.4919)">
			<title>工作表.7</title>
			<desc>COMPf</desc>
			<v:textBlock v:margins="rect(4,4,4,4)" v:tabSpace="42.5197"/>
			<v:textRect cx="21.7572" cy="227.1" width="43.52" height="16"/>
			<rect x="0" y="219.1" width="43.5144" height="16" class="st4"/>
			<text x="4.55" y="229.73" class="st8" v:langID="2052"><v:paragraph v:spLine="-1" v:horizAlign="1"/><v:tabList/>COMPf</text>		</g>
		<g id="shape8-101" v:mID="8" v:groupContext="shape" transform="translate(98.4471,-84.4072)">
			<title>工作表.8</title>
			<desc>ON</desc>
			<v:textBlock v:margins="rect(4,4,4,4)" v:tabSpace="42.5197"/>
			<v:textRect cx="14.135" cy="227.1" width="28.28" height="16"/>
			<rect x="0" y="219.1" width="28.27" height="16" class="st4"/>
			<text x="8.14" y="229.1" class="st10" v:langID="2052"><v:paragraph v:spLine="-1" v:horizAlign="1"/><v:tabList/>ON</text>		</g>
		<g id="shape9-105" v:mID="9" v:groupContext="shape" transform="translate(124.198,-74.2986)">
			<title>工作表.9</title>
			<desc>OFF</desc>
			<v:textBlock v:margins="rect(4,4,4,4)" v:tabSpace="42.5197"/>
			<v:textRect cx="12.7354" cy="227.1" width="25.48" height="16"/>
			<rect x="0" y="219.1" width="25.4709" height="16" class="st4"/>
			<text x="6.74" y="228.6" class="st15" v:langID="2052"><v:paragraph v:spLine="-1" v:horizAlign="1"/><v:tabList/>OFF</text>		</g>
		<g id="shape12-109" v:mID="12" v:groupContext="shape" transform="translate(84.8973,-77.7779)">
			<title>工作表.12</title>
			<path d="M0 235.1 L10.63 235.1" class="st11"/>
		</g>
		<g id="shape5-112" v:mID="5" v:groupContext="shape" transform="translate(95.6876,-120.475)">
			<title>工作表.5</title>
			<path d="M0 235.1 L224.06 235.1" class="st11"/>
		</g>
		<g id="shape53-115" v:mID="53" v:groupContext="shape" transform="translate(-139.526,125.227) rotate(-90)">
			<title>工作表.53</title>
			<path d="M0 235.1 L10.59 235.1" class="st11"/>
		</g>
		<g id="shape22-118" v:mID="22" v:groupContext="shape" transform="translate(84.8973,-159.338)">
			<title>工作表.22</title>
			<path d="M0 235.1 L10.74 235.1" class="st11"/>
		</g>
		<g id="shape14-121" v:mID="14" v:groupContext="shape" transform="translate(84.648,125.227) rotate(-90)">
			<title>工作表.14</title>
			<path d="M0 235.1 L10.59 235.1" class="st11"/>
		</g>
		<g id="shape15-124" v:mID="15" v:groupContext="shape" transform="translate(319.795,-109.873)">
			<title>工作表.15</title>
			<path d="M0 235.1 L21.5 235.1" class="st11"/>
		</g>
		<g id="group10-127" transform="translate(95.5742,-77.771)" v:mID="10" v:groupContext="group">
			<title>工作表.10</title>
			<g id="shape2-128" v:mID="2" v:groupContext="shape" transform="translate(0.113386,-10.6087)">
				<title>工作表.2</title>
				<path d="M0 235.1 L34.73 235.1" class="st11"/>
			</g>
			<g id="shape6-131" v:mID="6" v:groupContext="shape" transform="translate(-200.256,235.1) rotate(-90)">
				<title>工作表.6</title>
				<path d="M0 235.1 L10.61 235.1" class="st11"/>
			</g>
			<g id="shape13-134" v:mID="13" v:groupContext="shape" transform="translate(-235.1,235.093) rotate(-90)">
				<title>工作表.13</title>
				<path d="M0 235.1 L10.59 235.1" class="st11"/>
			</g>
			<g id="shape4-137" v:mID="4" v:groupContext="shape" transform="translate(34.8195,-0.00684037)">
				<title>工作表.4</title>
				<path d="M0 235.1 L12.81 235.1" class="st11"/>
			</g>
		</g>
		<g id="shape29-140" v:mID="29" v:groupContext="shape" transform="translate(162.517,-163.936) rotate(7.85331)">
			<title>工作表.29</title>
			<path d="M0 235.1 L13.02 235.1" class="st11"/>
		</g>
		<g id="shape31-143" v:mID="31" v:groupContext="shape" transform="translate(98.2339,-160.021) rotate(-11.0554)">
			<title>工作表.31</title>
			<path d="M0 235.1 L35.48 235.1" class="st11"/>
		</g>
		<g id="group48-146" transform="translate(143.291,-77.7816)" v:mID="48" v:groupContext="group">
			<title>工作表.48</title>
			<g id="shape56-147" v:mID="56" v:groupContext="shape" transform="translate(0.113386,-10.6087)">
				<title>工作表.56</title>
				<path d="M0 235.1 L34.73 235.1" class="st11"/>
			</g>
			<g id="shape57-150" v:mID="57" v:groupContext="shape" transform="translate(-200.256,235.1) rotate(-90)">
				<title>工作表.57</title>
				<path d="M0 235.1 L10.61 235.1" class="st11"/>
			</g>
			<g id="shape58-153" v:mID="58" v:groupContext="shape" transform="translate(-235.1,235.093) rotate(-90)">
				<title>工作表.58</title>
				<path d="M0 235.1 L10.59 235.1" class="st11"/>
			</g>
			<g id="shape59-156" v:mID="59" v:groupContext="shape" transform="translate(34.8195,-0.00684037)">
				<title>工作表.59</title>
				<path d="M0 235.1 L12.81 235.1" class="st11"/>
			</g>
		</g>
		<g id="group11-159" transform="translate(191.078,-77.8631)" v:mID="11" v:groupContext="group">
			<title>工作表.11</title>
			<g id="shape16-160" v:mID="16" v:groupContext="shape" transform="translate(0.113386,-10.6087)">
				<title>工作表.16</title>
				<path d="M0 235.1 L34.73 235.1" class="st11"/>
			</g>
			<g id="shape19-163" v:mID="19" v:groupContext="shape" transform="translate(-200.256,235.1) rotate(-90)">
				<title>工作表.19</title>
				<path d="M0 235.1 L10.61 235.1" class="st11"/>
			</g>
			<g id="shape20-166" v:mID="20" v:groupContext="shape" transform="translate(-235.1,235.093) rotate(-90)">
				<title>工作表.20</title>
				<path d="M0 235.1 L10.59 235.1" class="st11"/>
			</g>
			<g id="shape26-169" v:mID="26" v:groupContext="shape" transform="translate(34.8195,-0.00684037)">
				<title>工作表.26</title>
				<path d="M0 235.1 L20.72 235.1" class="st11"/>
			</g>
		</g>
		<g id="shape40-172" v:mID="40" v:groupContext="shape" transform="translate(246.728,-88.4718)">
			<title>工作表.40</title>
			<path d="M0 235.1 L25.49 235.1" class="st11"/>
		</g>
		<g id="shape41-175" v:mID="41" v:groupContext="shape" transform="translate(37.0259,157.237) rotate(-90)">
			<title>工作表.41</title>
			<path d="M0 235.1 L10.61 235.1" class="st11"/>
		</g>
		<g id="shape42-178" v:mID="42" v:groupContext="shape" transform="translate(11.5141,157.23) rotate(-90)">
			<title>工作表.42</title>
			<path d="M0 235.1 L10.59 235.1" class="st11"/>
		</g>
		<g id="shape46-181" v:mID="46" v:groupContext="shape" transform="translate(272.126,-77.8699)">
			<title>工作表.46</title>
			<path d="M0 235.1 L36.78 235.1" class="st11"/>
		</g>
		<g id="shape61-184" v:mID="61" v:groupContext="shape" transform="translate(210.304,-168.975) rotate(7.85331)">
			<title>工作表.61</title>
			<path d="M0 235.1 L13.02 235.1" class="st11"/>
		</g>
		<g id="shape34-187" v:mID="34" v:groupContext="shape" transform="translate(145.996,-165.038) rotate(-11.0554)">
			<title>工作表.34</title>
			<path d="M0 235.1 L35.48 235.1" class="st11"/>
		</g>
		<g id="shape62-190" v:mID="62" v:groupContext="shape" transform="translate(258.021,-173.999) rotate(7.85331)">
			<title>工作表.62</title>
			<path d="M0 235.1 L21.78 235.1" class="st11"/>
		</g>
		<g id="shape63-193" v:mID="63" v:groupContext="shape" transform="translate(-9.1788,146.641) rotate(-90)">
			<title>工作表.63</title>
			<path d="M0 235.1 L87.53 235.1" class="st9"/>
		</g>
		<g id="shape64-196" v:mID="64" v:groupContext="shape" transform="translate(201.682,-168.997) rotate(-11.0884)">
			<title>工作表.64</title>
			<path d="M0 235.1 L25.71 235.1" class="st11"/>
		</g>
		<g id="shape65-199" v:mID="65" v:groupContext="shape" transform="translate(37.0259,146.628) rotate(-90)">
			<title>工作表.65</title>
			<path d="M0 235.1 L89.65 235.1" class="st9"/>
		</g>
		<g id="shape35-202" v:mID="35" v:groupContext="shape" transform="translate(308.976,-88.1069)">
			<title>工作表.35</title>
			<path d="M0 235.1 L10.77 235.1" class="st11"/>
		</g>
		<g id="shape36-205" v:mID="36" v:groupContext="shape" transform="translate(84.648,157.602) rotate(-90)">
			<title>工作表.36</title>
			<path d="M0 235.1 L10.61 235.1" class="st11"/>
		</g>
		<g id="shape39-208" v:mID="39" v:groupContext="shape" transform="translate(73.8763,157.223) rotate(-90)">
			<title>工作表.39</title>
			<path d="M0 235.1 L10.22 235.1" class="st11"/>
		</g>
		<g id="shape44-211" v:mID="44" v:groupContext="shape" transform="translate(319.795,-77.505)">
			<title>工作表.44</title>
			<path d="M0 235.1 L22.12 235.1" class="st11"/>
		</g>
		<g id="shape45-214" v:mID="45" v:groupContext="shape" transform="translate(304.476,-176.102) rotate(7.89513)">
			<title>工作表.45</title>
			<path d="M0 235.1 L37.15 235.1" class="st11"/>
		</g>
		<g id="shape60-217" v:mID="60" v:groupContext="shape" transform="translate(263.761,-168.839) rotate(-11.0884)">
			<title>工作表.60</title>
			<path d="M0 235.1 L11.02 235.1" class="st11"/>
		</g>
		<g id="shape27-220" v:mID="27" v:groupContext="shape" transform="translate(73.8763,147.006) rotate(-90)">
			<title>工作表.27</title>
			<path d="M0 235.1 L85.13 235.1" class="st9"/>
		</g>
		<g id="shape85-223" v:mID="85" v:groupContext="shape" transform="translate(178.654,-54.7886)">
			<title>工作表.85</title>
			<path d="M0 235.1 L12.12 235.1" class="st14"/>
		</g>
		<g id="shape86-230" v:mID="86" v:groupContext="shape" transform="translate(173.764,-38.4094)">
			<title>工作表.86</title>
			<desc>5min</desc>
			<v:textBlock v:margins="rect(4,4,4,4)" v:tabSpace="42.5197"/>
			<v:textRect cx="10.7717" cy="227.1" width="21.55" height="16"/>
			<rect x="0" y="219.1" width="21.5433" height="16" class="st4"/>
			<text x="4.27" y="228.6" class="st15" v:langID="2052"><v:paragraph v:spLine="-1" v:horizAlign="1"/><v:tabList/>5min</text>		</g>
	</g>
</svg>
