<?xml version="1.0" encoding="UTF-8" standalone="no"?>
<!DOCTYPE svg PUBLIC "-//W3C//DTD SVG 1.0//EN" "http://www.w3.org/TR/2001/REC-SVG-20010904/DTD/svg10.dtd">
<!-- 由 Microsoft Visio 11.0, SVG Export, v1.0 生成 空气排空试运行功能-空气排空试运行过程.svg 空气排空试运行 -->
<svg xmlns="http://www.w3.org/2000/svg" xmlns:xlink="http://www.w3.org/1999/xlink" xmlns:ev="http://www.w3.org/2001/xml-events"
		xmlns:v="http://schemas.microsoft.com/visio/2003/SVGExtensions/" width="7.95931in" height="4.86088in"
		viewBox="0 0 573.07 349.984" xml:space="preserve" color-interpolation-filters="sRGB" class="st15">
	<v:documentProperties v:langID="2052" v:metric="true" v:viewMarkup="false"/>

	<style type="text/css">
	<![CDATA[
		.st1 {fill:#ffffff;stroke:none;stroke-linecap:round;stroke-linejoin:round;stroke-width:0.72}
		.st2 {marker-end:url(#mrkr1-8);stroke:#000000;stroke-linecap:round;stroke-linejoin:round;stroke-width:0.24}
		.st3 {fill:#000000;fill-opacity:1;stroke:#000000;stroke-opacity:1;stroke-width:0.08695652173913}
		.st4 {fill:none;marker-end:url(#mrkr1-12);stroke:none;stroke-linecap:round;stroke-linejoin:round;stroke-width:0.72}
		.st5 {fill:#000000;fill-opacity:1;stroke:#000000;stroke-opacity:1;stroke-width:0.22222222222222}
		.st6 {fill:#000000;font-family:Arial;font-size:0.833336em}
		.st7 {marker-end:url(#mrkr4-19);stroke:#000000;stroke-linecap:round;stroke-linejoin:round;stroke-width:0.24}
		.st8 {fill:#000000;font-family:Arial;font-size:0.874992em}
		.st9 {marker-end:url(#mrkr1-8);marker-start:url(#mrkr1-30);stroke:#000000;stroke-linecap:round;stroke-linejoin:round;stroke-width:0.24}
		.st10 {stroke:#000000;stroke-linecap:round;stroke-linejoin:round;stroke-width:0.24}
		.st11 {stroke:#000000;stroke-dasharray:1.68,1.2;stroke-linecap:round;stroke-linejoin:round;stroke-width:0.24}
		.st12 {fill:#000000;font-family:Arial;font-size:0.75em}
		.st13 {fill:#000000;font-family:Arial;font-size:0.666664em}
		.st14 {fill:#000000;font-family:Arial;font-size:0.499992em}
		.st15 {fill:none;fill-rule:evenodd;font-size:12px;overflow:visible;stroke-linecap:square;stroke-miterlimit:3}
	]]>
	</style>

	<defs id="Markers">
		<g id="lend1">
			<path d="M 1 -1 L 0 0 L 1 1 " style="stroke-linecap:round;stroke-linejoin:round;fill:none"/>
		</g>
		<marker id="mrkr1-8" class="st3" v:arrowType="1" v:arrowSize="2" orient="auto" markerUnits="strokeWidth" overflow="visible">
			<use xlink:href="#lend1" transform="scale(-11.5,-11.5) "/>
		</marker>
		<marker id="mrkr1-12" class="st5" v:arrowType="1" v:arrowSize="2" orient="auto" markerUnits="strokeWidth"
				overflow="visible">
			<use xlink:href="#lend1" transform="scale(-4.5,-4.5) "/>
		</marker>
		<g id="lend4">
			<path d="M 2 1 L 0 0 L 2 -1 L 2 1 " style="stroke:none"/>
		</g>
		<marker id="mrkr4-19" class="st3" v:arrowType="4" v:arrowSize="2" v:setback="23" refX="-23" orient="auto"
				markerUnits="strokeWidth" overflow="visible">
			<use xlink:href="#lend4" transform="scale(-11.5,-11.5) "/>
		</marker>
		<marker id="mrkr1-30" class="st3" v:arrowType="1" v:arrowSize="2" orient="auto" markerUnits="strokeWidth"
				overflow="visible">
			<use xlink:href="#lend1" transform="scale(11.5) "/>
		</marker>
	</defs>
	<g v:mID="4" v:index="1" v:groupContext="backgroundPage">
		<v:userDefs>
			<v:ud v:nameU="msvVisioCreated" v:prompt="" v:val="VT0(0):26"/>
		</v:userDefs>
		<title>背景-1</title>
		<v:pageProperties width="7.95931" height="4.86088" v:drawingScale="0.0393701" v:pageScale="0.0393701" v:drawingUnits="24"
				v:shadowOffsetX="8.50394" v:shadowOffsetY="-8.50394"/>
		<g id="shape1-1" v:mID="1" v:groupContext="shape">
			<title>实心</title>
			<v:userDefs>
				<v:ud v:nameU="Background" v:val="VT0(0):26"/>
				<v:ud v:nameU="visVersion" v:val="VT0(14):26"/>
				<v:ud v:nameU="msvShapeCategories" v:prompt="" v:val="VT4(DoNotContain)"/>
				<v:ud v:nameU="msvVisioCreated" v:prompt="" v:val="VT0(0):26"/>
			</v:userDefs>
			<rect x="0" y="0" width="573.07" height="349.984" class="st1"/>
		</g>
	</g>
	<g v:mID="0" v:index="2" v:groupContext="foregroundPage">
		<title>空气排空试运行过程</title>
		<v:pageProperties v:drawingScale="0.0393701" v:pageScale="0.0393701" v:drawingUnits="24" v:shadowOffsetX="8.50394"
				v:shadowOffsetY="-8.50394"/>
		<v:layer v:name="连接线" v:index="0"/>
		<g id="shape18-3" v:mID="18" v:groupContext="shape" transform="translate(56.9491,-65.4332)">
			<title>工作表.18</title>
			<path d="M0 349.98 L476.77 349.98" class="st2"/>
		</g>
		<g id="shape25-9" v:mID="25" v:groupContext="shape" transform="translate(509.291,-45.3543)">
			<title>工作表.25</title>
			<desc>t</desc>
			<v:textBlock v:margins="rect(4,4,4,4)" v:tabSpace="42.5197"/>
			<v:textRect cx="20.5987" cy="341.984" width="41.2" height="16"/>
			<rect x="0" y="333.984" width="41.1975" height="16" class="st4"/>
			<text x="19.21" y="344.48" class="st6" v:langID="2052"><v:paragraph v:spLine="-1" v:horizAlign="1"/><v:tabList/>t  </text>		</g>
		<g id="shape1-14" v:mID="1" v:groupContext="shape" v:layerMember="0" transform="translate(78.9426,-28.155)">
			<title>动态连接线</title>
			<path d="M7.09 349.98 L7.09 65.86" class="st7"/>
		</g>
		<g id="shape21-20" v:mID="21" v:groupContext="shape" transform="translate(23.5971,-134.966)">
			<title>工作表.21</title>
			<desc>PUMPf</desc>
			<v:textBlock v:margins="rect(4,4,4,4)" v:tabSpace="42.5197"/>
			<v:textRect cx="21.7572" cy="341.984" width="43.52" height="16"/>
			<rect x="0" y="333.984" width="43.5144" height="16" class="st4"/>
			<text x="4" y="344.61" class="st8" v:langID="2052"><v:paragraph v:spLine="-1"/><v:tabList/>PUMPf</text>		</g>
		<g id="shape50-24" v:mID="50" v:groupContext="shape" transform="translate(109.451,-40.3125)">
			<title>工作表.50</title>
			<path d="M0 349.98 L396.63 349.98" class="st9"/>
		</g>
		<g id="shape51-32" v:mID="51" v:groupContext="shape" transform="translate(86.0292,-138.252)">
			<title>工作表.51</title>
			<path d="M0 349.98 L21.21 349.98" class="st10"/>
		</g>
		<g id="shape52-35" v:mID="52" v:groupContext="shape" transform="translate(-242.695,315.403) rotate(-90)">
			<title>工作表.52</title>
			<path d="M0 349.98 L282.15 349.98" class="st11"/>
		</g>
		<g id="shape54-38" v:mID="54" v:groupContext="shape" transform="translate(238.819,-22.5821)">
			<title>工作表.54</title>
			<desc>STRAE</desc>
			<v:textBlock v:margins="rect(4,4,4,4)" v:tabSpace="42.5197"/>
			<v:textRect cx="51.7323" cy="341.984" width="103.47" height="16"/>
			<rect x="0" y="333.984" width="103.465" height="16" class="st4"/>
			<text x="36.73" y="344.23" class="st12" v:langID="2052"><v:paragraph v:spLine="-1" v:horizAlign="1"/><v:tabList/>STRAE</text>		</g>
		<g id="shape7-42" v:mID="7" v:groupContext="shape" transform="translate(23.0997,-108.93)">
			<title>工作表.7</title>
			<desc>PUMPo</desc>
			<v:textBlock v:margins="rect(4,4,4,4)" v:tabSpace="42.5197"/>
			<v:textRect cx="23.8832" cy="341.984" width="47.77" height="16"/>
			<rect x="0" y="333.984" width="47.7664" height="16" class="st4"/>
			<text x="4" y="344.61" class="st8" v:langID="2052"><v:paragraph v:spLine="-1"/><v:tabList/>PUMPo</text>		</g>
		<g id="shape12-46" v:mID="12" v:groupContext="shape" transform="translate(86.0292,-112.216)">
			<title>工作表.12</title>
			<v:textBlock v:margins="rect(4,4,4,4)" v:tabSpace="42.5197"/>
			<path d="M0 349.98 L181.23 349.98" class="st10"/>
		</g>
		<g id="shape5-49" v:mID="5" v:groupContext="shape" transform="translate(187.653,-148.854)">
			<title>工作表.5</title>
			<path d="M0 349.98 L66.52 349.98" class="st10"/>
		</g>
		<g id="shape53-52" v:mID="53" v:groupContext="shape" transform="translate(-162.33,211.732) rotate(-90)">
			<title>工作表.53</title>
			<path d="M0 349.98 L10.59 349.98" class="st10"/>
		</g>
		<g id="shape14-55" v:mID="14" v:groupContext="shape" transform="translate(-82.6765,238.015) rotate(-90)">
			<title>工作表.14</title>
			<path d="M0 349.98 L10.59 349.98" class="st10"/>
		</g>
		<g id="shape35-58" v:mID="35" v:groupContext="shape" transform="translate(267.307,-122.545)">
			<title>工作表.35</title>
			<path d="M0 349.98 L66.07 349.98" class="st10"/>
		</g>
		<g id="shape36-61" v:mID="36" v:groupContext="shape" transform="translate(64.0877,238.047) rotate(-90)">
			<title>工作表.36</title>
			<path d="M0 349.98 L10.61 349.98" class="st10"/>
		</g>
		<g id="shape44-64" v:mID="44" v:groupContext="shape" transform="translate(414.066,-111.943)">
			<title>工作表.44</title>
			<path d="M0 349.98 L12.6 349.98" class="st10"/>
		</g>
		<g id="shape3-67" v:mID="3" v:groupContext="shape" transform="translate(23.3383,-264.465)">
			<title>工作表.3</title>
			<desc>S3V1 OFF</desc>
			<v:textBlock v:margins="rect(4,4,4,4)" v:tabSpace="42.5197"/>
			<v:textRect cx="29.0076" cy="341.984" width="58.02" height="16"/>
			<rect x="0" y="333.984" width="58.0151" height="16" class="st4"/>
			<text x="4" y="344.61" class="st8" v:langID="2052"><v:paragraph v:spLine="-1"/><v:tabList/>S3V1 OFF</text>		</g>
		<g id="shape28-71" v:mID="28" v:groupContext="shape" transform="translate(22.5821,-218.48)">
			<title>工作表.28</title>
			<desc>S3V2 OFF</desc>
			<v:textBlock v:margins="rect(4,4,4,4)" v:tabSpace="42.5197"/>
			<v:textRect cx="29.7638" cy="341.984" width="59.53" height="16"/>
			<rect x="0" y="333.984" width="59.5276" height="16" class="st4"/>
			<text x="4" y="344.61" class="st8" v:langID="2052"><v:paragraph v:spLine="-1"/><v:tabList/>S3V2 OFF</text>		</g>
		<g id="shape34-75" v:mID="34" v:groupContext="shape" transform="translate(266.457,467.526) rotate(180)">
			<title>工作表.34</title>
			<path d="M0 349.98 L158.93 349.98" class="st10"/>
		</g>
		<g id="shape38-78" v:mID="38" v:groupContext="shape" transform="translate(187.677,-278.353)">
			<title>工作表.38</title>
			<path d="M0 349.98 L66.5 349.98" class="st10"/>
		</g>
		<g id="shape45-81" v:mID="45" v:groupContext="shape" transform="translate(-95.8106,82.2328) rotate(-90)">
			<title>工作表.45</title>
			<path d="M0 349.98 L10.59 349.98" class="st10"/>
		</g>
		<g id="shape60-84" v:mID="60" v:groupContext="shape" transform="translate(254.173,-267.751)">
			<title>工作表.60</title>
			<path d="M0 349.98 L265.63 349.98" class="st10"/>
		</g>
		<g id="shape78-87" v:mID="78" v:groupContext="shape" transform="translate(266.457,-232.46)">
			<title>工作表.78</title>
			<path d="M0 349.98 L80.32 349.98" class="st10"/>
		</g>
		<g id="shape79-90" v:mID="79" v:groupContext="shape" transform="translate(-3.35355,128.133) rotate(-90)">
			<title>工作表.79</title>
			<path d="M0 349.98 L10.61 349.98" class="st10"/>
		</g>
		<g id="shape11-93" v:mID="11" v:groupContext="shape" transform="translate(159.044,-108.139)">
			<title>工作表.11</title>
			<desc>OFF</desc>
			<v:textBlock v:margins="rect(4,4,4,4)" v:tabSpace="42.5197"/>
			<v:textRect cx="12.7354" cy="341.984" width="25.48" height="16"/>
			<rect x="0" y="333.984" width="25.4709" height="16" class="st4"/>
			<text x="4.74" y="343.98" class="st13" v:langID="2052"><v:paragraph v:spLine="-1" v:horizAlign="1"/><v:tabList/>OFF</text>		</g>
		<g id="shape19-97" v:mID="19" v:groupContext="shape" transform="translate(426.709,-148.854)">
			<title>工作表.19</title>
			<path d="M0 349.98 L67.01 349.98" class="st10"/>
		</g>
		<g id="shape40-100" v:mID="40" v:groupContext="shape" transform="translate(287.339,-118.96)">
			<title>工作表.40</title>
			<desc>ON</desc>
			<v:textBlock v:margins="rect(4,4,4,4)" v:tabSpace="42.5197"/>
			<v:textRect cx="14.135" cy="341.984" width="28.28" height="16"/>
			<rect x="0" y="333.984" width="28.27" height="16" class="st4"/>
			<text x="8.14" y="343.98" class="st13" v:langID="2052"><v:paragraph v:spLine="-1" v:horizAlign="1"/><v:tabList/>ON</text>		</g>
		<g id="shape27-104" v:mID="27" v:groupContext="shape" transform="translate(188.623,-59.6362)">
			<title>工作表.27</title>
			<path d="M0 349.98 L64.7 349.98" class="st9"/>
		</g>
		<g id="shape41-111" v:mID="41" v:groupContext="shape" transform="translate(-95.8106,295.088) rotate(-90)">
			<title>工作表.41</title>
			<path d="M0 349.98 L260.77 349.98" class="st11"/>
		</g>
		<g id="shape2-114" v:mID="2" v:groupContext="shape" transform="translate(106.299,-41.4167)">
			<title>工作表.2</title>
			<desc>10min 1min 10min 1min 10min 1min 10min 1min 10min 1min</desc>
			<v:textBlock v:margins="rect(4,4,4,4)" v:tabSpace="42.5197"/>
			<v:textRect cx="205.512" cy="341.984" width="411.03" height="16"/>
			<rect x="0" y="333.984" width="411.024" height="16" class="st4"/>
			<text x="24" y="343.48" class="st14" v:langID="2052"><v:paragraph v:spLine="-1"/><v:tabList/>10min                1min              10min                1min               10min                1min               10min                1min               10min               1min</text>		</g>
		<g id="shape88-118" v:mID="88" v:groupContext="shape" transform="translate(23.3078,-286.134)">
			<title>工作表.88</title>
			<desc>S3V1 ON</desc>
			<v:textBlock v:margins="rect(4,4,4,4)" v:tabSpace="42.5197"/>
			<v:textRect cx="29.0381" cy="341.984" width="58.08" height="16"/>
			<rect x="0" y="333.984" width="58.0761" height="16" class="st4"/>
			<text x="4" y="344.61" class="st8" v:langID="2052"><v:paragraph v:spLine="-1"/><v:tabList/>S3V1 ON</text>		</g>
		<g id="shape91-122" v:mID="91" v:groupContext="shape" transform="translate(187.654,-289.427)">
			<title>工作表.91</title>
			<path d="M0 349.98 L66.52 349.98" class="st10"/>
		</g>
		<g id="shape93-125" v:mID="93" v:groupContext="shape" transform="translate(-95.8106,60.5632) rotate(-90)">
			<title>工作表.93</title>
			<path d="M0 349.98 L10.59 349.98" class="st10"/>
		</g>
		<g id="shape94-128" v:mID="94" v:groupContext="shape" transform="translate(254.362,-300.013)">
			<title>工作表.94</title>
			<path d="M0 349.98 L265.09 349.98" class="st10"/>
		</g>
		<g id="shape97-131" v:mID="97" v:groupContext="shape" transform="translate(346.488,456.752) rotate(180)">
			<title>工作表.97</title>
			<path d="M0 349.98 L239.34 349.98" class="st10"/>
		</g>
		<g id="shape98-134" v:mID="98" v:groupContext="shape" transform="translate(346.654,-253.909)">
			<title>工作表.98</title>
			<path d="M0 349.98 L67.42 349.98" class="st10"/>
		</g>
		<g id="shape99-137" v:mID="99" v:groupContext="shape" transform="translate(64.0877,106.683) rotate(-90)">
			<title>工作表.99</title>
			<path d="M0 349.98 L10.61 349.98" class="st10"/>
		</g>
		<g id="shape101-140" v:mID="101" v:groupContext="shape" transform="translate(23.502,-240.743)">
			<title>工作表.101</title>
			<desc>S3V2 ON</desc>
			<v:textBlock v:margins="rect(4,4,4,4)" v:tabSpace="42.5197"/>
			<v:textRect cx="28.8438" cy="341.984" width="57.69" height="16"/>
			<rect x="0" y="333.984" width="57.6877" height="16" class="st4"/>
			<text x="4" y="344.61" class="st8" v:langID="2052"><v:paragraph v:spLine="-1"/><v:tabList/>S3V2 ON</text>		</g>
		<g id="shape102-144" v:mID="102" v:groupContext="shape" transform="translate(23.4433,-172.824)">
			<title>工作表.102</title>
			<desc>S3V3 OFF</desc>
			<v:textBlock v:margins="rect(4,4,4,4)" v:tabSpace="42.5197"/>
			<v:textRect cx="29.0076" cy="341.984" width="58.02" height="16"/>
			<rect x="0" y="333.984" width="58.0151" height="16" class="st4"/>
			<text x="4" y="344.61" class="st8" v:langID="2052"><v:paragraph v:spLine="-1"/><v:tabList/>S3V3 OFF</text>		</g>
		<g id="shape104-148" v:mID="104" v:groupContext="shape" transform="translate(85.9459,-176.002)">
			<title>工作表.104</title>
			<path d="M0 349.98 L328.15 349.98" class="st10"/>
		</g>
		<g id="shape107-151" v:mID="107" v:groupContext="shape" transform="translate(64.0877,173.873) rotate(-90)">
			<title>工作表.107</title>
			<path d="M0 349.98 L10.59 349.98" class="st10"/>
		</g>
		<g id="shape108-154" v:mID="108" v:groupContext="shape" transform="translate(414.19,-186.834)">
			<title>工作表.108</title>
			<path d="M0 349.98 L79.52 349.98" class="st10"/>
		</g>
		<g id="shape111-157" v:mID="111" v:groupContext="shape" transform="translate(23.4128,-194.494)">
			<title>工作表.111</title>
			<desc>S3V3 ON</desc>
			<v:textBlock v:margins="rect(4,4,4,4)" v:tabSpace="42.5197"/>
			<v:textRect cx="29.0381" cy="341.984" width="58.08" height="16"/>
			<rect x="0" y="333.984" width="58.0761" height="16" class="st4"/>
			<text x="4" y="344.61" class="st8" v:langID="2052"><v:paragraph v:spLine="-1"/><v:tabList/>S3V3 ON</text>		</g>
		<g id="shape113-161" v:mID="113" v:groupContext="shape" transform="translate(86.3616,-208.382)">
			<title>工作表.113</title>
			<path d="M0 349.98 L327.64 349.98" class="st10"/>
		</g>
		<g id="shape115-164" v:mID="115" v:groupContext="shape" transform="translate(64.0877,152.204) rotate(-90)">
			<title>工作表.115</title>
			<path d="M0 349.98 L10.59 349.98" class="st10"/>
		</g>
		<g id="shape116-167" v:mID="116" v:groupContext="shape" transform="translate(414.119,-197.78)">
			<title>工作表.116</title>
			<path d="M0 349.98 L79.59 349.98" class="st10"/>
		</g>
		<g id="shape119-170" v:mID="119" v:groupContext="shape" transform="translate(23.1024,-80.5839)">
			<title>工作表.119</title>
			<desc>PUMPm</desc>
			<v:textBlock v:margins="rect(4,4,4,4)" v:tabSpace="42.5197"/>
			<v:textRect cx="23.8832" cy="341.984" width="47.77" height="16"/>
			<rect x="0" y="333.984" width="47.7664" height="16" class="st4"/>
			<text x="4" y="344.61" class="st8" v:langID="2052"><v:paragraph v:spLine="-1"/><v:tabList/>PUMPm</text>		</g>
		<g id="shape120-174" v:mID="120" v:groupContext="shape" transform="translate(86.0318,-83.8699)">
			<title>工作表.120</title>
			<path d="M0 349.98 L340.58 349.98" class="st10"/>
		</g>
		<g id="shape121-177" v:mID="121" v:groupContext="shape" transform="translate(426.756,-94.1989)">
			<title>工作表.121</title>
			<path d="M0 349.98 L66.9 349.98" class="st10"/>
		</g>
		<g id="shape122-180" v:mID="122" v:groupContext="shape" transform="translate(143.67,266.393) rotate(-90)">
			<title>工作表.122</title>
			<path d="M0 349.98 L10.61 349.98" class="st10"/>
		</g>
		<g id="shape123-183" v:mID="123" v:groupContext="shape" transform="translate(76.7252,266.014) rotate(-90)">
			<title>工作表.123</title>
			<path d="M0 349.98 L10.22 349.98" class="st10"/>
		</g>
		<g id="shape124-186" v:mID="124" v:groupContext="shape" transform="translate(493.694,-83.597)">
			<title>工作表.124</title>
			<path d="M0 349.98 L26.11 349.98" class="st10"/>
		</g>
		<g id="shape125-189" v:mID="125" v:groupContext="shape" transform="translate(250.907,-80.1884)">
			<title>工作表.125</title>
			<desc>OFF</desc>
			<v:textBlock v:margins="rect(4,4,4,4)" v:tabSpace="42.5197"/>
			<v:textRect cx="12.7354" cy="341.984" width="25.48" height="16"/>
			<rect x="0" y="333.984" width="25.4709" height="16" class="st4"/>
			<text x="4.74" y="343.98" class="st13" v:langID="2052"><v:paragraph v:spLine="-1" v:horizAlign="1"/><v:tabList/>OFF</text>		</g>
		<g id="shape13-193" v:mID="13" v:groupContext="shape" transform="translate(268.347,-59.6362)">
			<title>工作表.13</title>
			<path d="M0 349.98 L64.37 349.98" class="st9"/>
		</g>
		<g id="shape16-200" v:mID="16" v:groupContext="shape" transform="translate(-16.5347,295.811) rotate(-90)">
			<title>工作表.16</title>
			<path d="M0 349.98 L261.14 349.98" class="st11"/>
		</g>
		<g id="shape17-203" v:mID="17" v:groupContext="shape" transform="translate(-3.35355,106.659) rotate(-90)">
			<title>工作表.17</title>
			<path d="M0 349.98 L10.61 349.98" class="st10"/>
		</g>
		<g id="shape30-206" v:mID="30" v:groupContext="shape" transform="translate(347.661,-59.5292)">
			<title>工作表.30</title>
			<path d="M0 349.98 L65.12 349.98" class="st9"/>
		</g>
		<g id="shape32-213" v:mID="32" v:groupContext="shape" transform="translate(64.0877,295.918) rotate(-90)">
			<title>工作表.32</title>
			<path d="M0 349.98 L260.89 349.98" class="st11"/>
		</g>
		<g id="shape49-216" v:mID="49" v:groupContext="shape" transform="translate(188.764,-312.629)">
			<title>工作表.49</title>
			<path d="M0 349.98 L64.56 349.98" class="st9"/>
		</g>
		<g id="shape55-223" v:mID="55" v:groupContext="shape" transform="translate(188.127,-311.402)">
			<title>工作表.55</title>
			<desc>S2</desc>
			<v:textBlock v:margins="rect(4,4,4,4)" v:tabSpace="42.5197"/>
			<v:textRect cx="33.0241" cy="341.984" width="66.05" height="16"/>
			<rect x="0" y="333.984" width="66.0482" height="16" class="st4"/>
			<text x="28.13" y="343.98" class="st13" v:langID="2052"><v:paragraph v:spLine="-1" v:horizAlign="1"/><v:tabList/>S2</text>		</g>
		<g id="shape61-227" v:mID="61" v:groupContext="shape" transform="translate(267.402,-312.629)">
			<title>工作表.61</title>
			<path d="M0 349.98 L65.13 349.98" class="st9"/>
		</g>
		<g id="shape62-234" v:mID="62" v:groupContext="shape" transform="translate(267.497,-311.402)">
			<title>工作表.62</title>
			<desc>S3</desc>
			<v:textBlock v:margins="rect(4,4,4,4)" v:tabSpace="42.5197"/>
			<v:textRect cx="32.8698" cy="341.984" width="65.74" height="16"/>
			<rect x="0" y="333.984" width="65.7395" height="16" class="st4"/>
			<text x="27.98" y="343.98" class="st13" v:langID="2052"><v:paragraph v:spLine="-1" v:horizAlign="1"/><v:tabList/>S3</text>		</g>
		<g id="shape63-238" v:mID="63" v:groupContext="shape" transform="translate(347.493,-312.629)">
			<title>工作表.63</title>
			<path d="M0 349.98 L65.13 349.98" class="st9"/>
		</g>
		<g id="shape64-245" v:mID="64" v:groupContext="shape" transform="translate(347.322,-311.402)">
			<title>工作表.64</title>
			<desc>S4</desc>
			<v:textBlock v:margins="rect(4,4,4,4)" v:tabSpace="42.5197"/>
			<v:textRect cx="32.3709" cy="341.984" width="64.75" height="16"/>
			<rect x="0" y="333.984" width="64.7418" height="16" class="st4"/>
			<text x="27.48" y="343.98" class="st13" v:langID="2052"><v:paragraph v:spLine="-1" v:horizAlign="1"/><v:tabList/>S4</text>		</g>
		<g id="shape20-249" v:mID="20" v:groupContext="shape" transform="translate(64.0877,128.133) rotate(-90)">
			<title>工作表.20</title>
			<path d="M0 349.98 L10.61 349.98" class="st10"/>
		</g>
		<g id="shape43-252" v:mID="43" v:groupContext="shape" transform="translate(427.711,-59.4329)">
			<title>工作表.43</title>
			<path d="M0 349.98 L64.76 349.98" class="st9"/>
		</g>
		<g id="shape57-259" v:mID="57" v:groupContext="shape" transform="translate(143.67,296.314) rotate(-90)">
			<title>工作表.57</title>
			<path d="M0 349.98 L261.34 349.98" class="st11"/>
		</g>
		<g id="shape65-262" v:mID="65" v:groupContext="shape" transform="translate(427.618,-312.629)">
			<title>工作表.65</title>
			<path d="M0 349.98 L65.13 349.98" class="st9"/>
		</g>
		<g id="shape66-269" v:mID="66" v:groupContext="shape" transform="translate(425.793,-311.402)">
			<title>工作表.66</title>
			<desc>S5</desc>
			<v:textBlock v:margins="rect(4,4,4,4)" v:tabSpace="42.5197"/>
			<v:textRect cx="34.2378" cy="341.984" width="68.48" height="16"/>
			<rect x="0" y="333.984" width="68.4757" height="16" class="st4"/>
			<text x="29.35" y="343.98" class="st13" v:langID="2052"><v:paragraph v:spLine="-1" v:horizAlign="1"/><v:tabList/>S5</text>		</g>
		<g id="shape67-273" v:mID="67" v:groupContext="shape" transform="translate(414.071,478.202) rotate(180)">
			<title>工作表.67</title>
			<path d="M0 349.98 L67.46 349.98" class="st10"/>
		</g>
		<g id="shape103-276" v:mID="103" v:groupContext="shape" transform="translate(507.354,456.752) rotate(180)">
			<title>工作表.103</title>
			<path d="M0 349.98 L93.12 349.98" class="st10"/>
		</g>
		<g id="shape105-279" v:mID="105" v:groupContext="shape" transform="translate(414.095,-232.46)">
			<title>工作表.105</title>
			<path d="M0 349.98 L93.24 349.98" class="st10"/>
		</g>
		<g id="shape106-282" v:mID="106" v:groupContext="shape" transform="translate(143.67,211.906) rotate(-90)">
			<title>工作表.106</title>
			<path d="M0 349.98 L10.77 349.98" class="st10"/>
		</g>
		<g id="shape109-285" v:mID="109" v:groupContext="shape" transform="translate(493.833,-138.252)">
			<title>工作表.109</title>
			<path d="M0 349.98 L25.97 349.98" class="st10"/>
		</g>
		<g id="shape110-288" v:mID="110" v:groupContext="shape" transform="translate(493.833,-176.002)">
			<title>工作表.110</title>
			<path d="M0 349.98 L26.68 349.98" class="st10"/>
		</g>
		<g id="shape112-291" v:mID="112" v:groupContext="shape" transform="translate(143.67,173.921) rotate(-90)">
			<title>工作表.112</title>
			<path d="M0 349.98 L10.59 349.98" class="st10"/>
		</g>
		<g id="shape114-294" v:mID="114" v:groupContext="shape" transform="translate(143.67,152.204) rotate(-90)">
			<title>工作表.114</title>
			<path d="M0 349.98 L10.59 349.98" class="st10"/>
		</g>
		<g id="shape117-297" v:mID="117" v:groupContext="shape" transform="translate(493.72,-208.519)">
			<title>工作表.117</title>
			<path d="M0 349.98 L26.08 349.98" class="st10"/>
		</g>
		<g id="shape118-300" v:mID="118" v:groupContext="shape" transform="translate(445.423,-90.6135)">
			<title>工作表.118</title>
			<desc>ON</desc>
			<v:textBlock v:margins="rect(4,4,4,4)" v:tabSpace="42.5197"/>
			<v:textRect cx="14.135" cy="341.984" width="28.28" height="16"/>
			<rect x="0" y="333.984" width="28.27" height="16" class="st4"/>
			<text x="8.14" y="343.98" class="st13" v:langID="2052"><v:paragraph v:spLine="-1" v:horizAlign="1"/><v:tabList/>ON</text>		</g>
		<g id="shape128-304" v:mID="128" v:groupContext="shape" transform="translate(83.5679,-134.551)">
			<title>工作表.128</title>
			<desc>OFF</desc>
			<v:textBlock v:margins="rect(4,4,4,4)" v:tabSpace="42.5197"/>
			<v:textRect cx="12.7354" cy="341.984" width="25.48" height="16"/>
			<rect x="0" y="333.984" width="25.4709" height="16" class="st4"/>
			<text x="4.74" y="343.98" class="st13" v:langID="2052"><v:paragraph v:spLine="-1" v:horizAlign="1"/><v:tabList/>OFF</text>		</g>
		<g id="shape129-308" v:mID="129" v:groupContext="shape" transform="translate(-82.6765,295.088) rotate(-90)">
			<title>工作表.129</title>
			<path d="M0 349.98 L260.77 349.98" class="st11"/>
		</g>
		<g id="shape130-311" v:mID="130" v:groupContext="shape" transform="translate(254.646,-59.6362)">
			<title>工作表.130</title>
			<path d="M0 349.98 L12.09 349.98" class="st9"/>
		</g>
		<g id="shape132-318" v:mID="132" v:groupContext="shape" transform="translate(-3.35355,295.025) rotate(-90)">
			<title>工作表.132</title>
			<path d="M0 349.98 L260.77 349.98" class="st11"/>
		</g>
		<g id="shape133-321" v:mID="133" v:groupContext="shape" transform="translate(334.394,-59.6992)">
			<title>工作表.133</title>
			<path d="M0 349.98 L11.62 349.98" class="st9"/>
		</g>
		<g id="shape135-328" v:mID="135" v:groupContext="shape" transform="translate(76.7252,295.308) rotate(-90)">
			<title>工作表.135</title>
			<path d="M0 349.98 L260.77 349.98" class="st11"/>
		</g>
		<g id="shape136-331" v:mID="136" v:groupContext="shape" transform="translate(414.614,-59.4158)">
			<title>工作表.136</title>
			<path d="M0 349.98 L11.62 349.98" class="st9"/>
		</g>
		<g id="shape138-338" v:mID="138" v:groupContext="shape" transform="translate(267.307,-148.854)">
			<title>工作表.138</title>
			<path d="M0 349.98 L66 349.98" class="st10"/>
		</g>
		<g id="shape139-341" v:mID="139" v:groupContext="shape" transform="translate(346.772,-148.854)">
			<title>工作表.139</title>
			<path d="M0 349.98 L67.18 349.98" class="st10"/>
		</g>
		<g id="shape140-344" v:mID="140" v:groupContext="shape" transform="translate(254.197,-138.257)">
			<title>工作表.140</title>
			<path d="M0 349.98 L13.11 349.98" class="st10"/>
		</g>
		<g id="shape141-347" v:mID="141" v:groupContext="shape" transform="translate(-82.6765,211.726) rotate(-90)">
			<title>工作表.141</title>
			<path d="M0 349.98 L10.59 349.98" class="st10"/>
		</g>
		<g id="shape142-350" v:mID="142" v:groupContext="shape" transform="translate(-95.8106,211.906) rotate(-90)">
			<title>工作表.142</title>
			<path d="M0 349.98 L10.59 349.98" class="st10"/>
		</g>
		<g id="shape143-353" v:mID="143" v:groupContext="shape" transform="translate(333.449,-138.399)">
			<title>工作表.143</title>
			<path d="M0 349.98 L13.25 349.98" class="st10"/>
		</g>
		<g id="shape144-356" v:mID="144" v:groupContext="shape" transform="translate(-3.35355,211.584) rotate(-90)">
			<title>工作表.144</title>
			<path d="M0 349.98 L10.59 349.98" class="st10"/>
		</g>
		<g id="shape145-359" v:mID="145" v:groupContext="shape" transform="translate(-16.5347,211.764) rotate(-90)">
			<title>工作表.145</title>
			<path d="M0 349.98 L10.59 349.98" class="st10"/>
		</g>
		<g id="shape146-362" v:mID="146" v:groupContext="shape" transform="translate(414.038,-138.399)">
			<title>工作表.146</title>
			<path d="M0 349.98 L12.64 349.98" class="st10"/>
		</g>
		<g id="shape147-365" v:mID="147" v:groupContext="shape" transform="translate(76.7252,211.584) rotate(-90)">
			<title>工作表.147</title>
			<path d="M0 349.98 L10.59 349.98" class="st10"/>
		</g>
		<g id="shape148-368" v:mID="148" v:groupContext="shape" transform="translate(64.0877,211.764) rotate(-90)">
			<title>工作表.148</title>
			<path d="M0 349.98 L10.59 349.98" class="st10"/>
		</g>
		<g id="shape149-371" v:mID="149" v:groupContext="shape" transform="translate(-16.5347,237.729) rotate(-90)">
			<title>工作表.149</title>
			<path d="M0 349.98 L10.29 349.98" class="st10"/>
		</g>
		<g id="shape150-374" v:mID="150" v:groupContext="shape" transform="translate(333.484,-112.216)">
			<title>工作表.150</title>
			<path d="M0 349.98 L13.1 349.98" class="st10"/>
		</g>
		<g id="shape151-377" v:mID="151" v:groupContext="shape" transform="translate(-3.35355,237.787) rotate(-90)">
			<title>工作表.151</title>
			<path d="M0 349.98 L10.29 349.98" class="st10"/>
		</g>
		<g id="shape152-380" v:mID="152" v:groupContext="shape" transform="translate(346.583,-122.545)">
			<title>工作表.152</title>
			<path d="M0 349.98 L67.28 349.98" class="st10"/>
		</g>
		<g id="shape4-383" v:mID="4" v:groupContext="shape" transform="translate(108.78,-59.5584)">
			<title>工作表.4</title>
			<path d="M0 349.98 L64.7 349.98" class="st9"/>
		</g>
		<g id="shape6-390" v:mID="6" v:groupContext="shape" transform="translate(174.803,-59.5584)">
			<title>工作表.6</title>
			<path d="M0 349.98 L12.11 349.98" class="st9"/>
		</g>
		<g id="shape9-397" v:mID="9" v:groupContext="shape" transform="translate(-162.33,295.811) rotate(-90)">
			<title>工作表.9</title>
			<path d="M0 349.98 L260.77 349.98" class="st11"/>
		</g>
		<g id="shape10-400" v:mID="10" v:groupContext="shape" transform="translate(-162.349,60.4766) rotate(-90)">
			<title>工作表.10</title>
			<path d="M0 349.98 L10.59 349.98" class="st10"/>
		</g>
		<g id="shape15-403" v:mID="15" v:groupContext="shape" transform="translate(86.0598,-300.099)">
			<title>工作表.15</title>
			<path d="M0 349.98 L101.59 349.98" class="st10"/>
		</g>
		<g id="shape22-406" v:mID="22" v:groupContext="shape" transform="translate(86.1024,-267.751)">
			<title>工作表.22</title>
			<path d="M0 349.98 L101.39 349.98" class="st10"/>
		</g>
		<g id="shape23-409" v:mID="23" v:groupContext="shape" transform="translate(-162.33,82.2233) rotate(-90)">
			<title>工作表.23</title>
			<path d="M0 349.98 L10.59 349.98" class="st10"/>
		</g>
		<g id="shape24-412" v:mID="24" v:groupContext="shape" transform="translate(-175.936,295.842) rotate(-90)">
			<title>工作表.24</title>
			<path d="M0 349.98 L260.77 349.98" class="st11"/>
		</g>
		<g id="shape26-415" v:mID="26" v:groupContext="shape" transform="translate(108.211,-312.598)">
			<title>工作表.26</title>
			<path d="M0 349.98 L64.56 349.98" class="st9"/>
		</g>
		<g id="shape29-422" v:mID="29" v:groupContext="shape" transform="translate(107.574,-311.371)">
			<title>工作表.29</title>
			<desc>S1</desc>
			<v:textBlock v:margins="rect(4,4,4,4)" v:tabSpace="42.5197"/>
			<v:textRect cx="33.0241" cy="341.984" width="66.05" height="16"/>
			<rect x="0" y="333.984" width="66.0482" height="16" class="st4"/>
			<text x="28.13" y="343.98" class="st13" v:langID="2052"><v:paragraph v:spLine="-1" v:horizAlign="1"/><v:tabList/>S1</text>		</g>
		<g id="shape33-426" v:mID="33" v:groupContext="shape" transform="translate(126.332,-144.96)">
			<title>工作表.33</title>
			<desc>ON</desc>
			<v:textBlock v:margins="rect(4,4,4,4)" v:tabSpace="42.5197"/>
			<v:textRect cx="14.135" cy="341.984" width="28.28" height="16"/>
			<rect x="0" y="333.984" width="28.27" height="16" class="st4"/>
			<text x="8.14" y="343.98" class="st13" v:langID="2052"><v:paragraph v:spLine="-1" v:horizAlign="1"/><v:tabList/>ON</text>		</g>
		<g id="shape37-430" v:mID="37" v:groupContext="shape" transform="translate(107.433,-148.933)">
			<title>工作表.37</title>
			<path d="M0 349.98 L66.61 349.98" class="st10"/>
		</g>
		<g id="shape39-433" v:mID="39" v:groupContext="shape" transform="translate(-242.695,211.653) rotate(-90)">
			<title>工作表.39</title>
			<path d="M0 349.98 L10.59 349.98" class="st10"/>
		</g>
		<g id="shape42-436" v:mID="42" v:groupContext="shape" transform="translate(-175.936,211.464) rotate(-90)">
			<title>工作表.42</title>
			<path d="M0 349.98 L10.59 349.98" class="st10"/>
		</g>
		<g id="shape46-439" v:mID="46" v:groupContext="shape" transform="translate(173.953,-138.252)">
			<title>工作表.46</title>
			<path d="M0 349.98 L13.7 349.98" class="st10"/>
		</g>
		<g id="shape153-442" v:mID="153" v:groupContext="shape" transform="translate(494.362,-59.4329)">
			<title>工作表.153</title>
			<path d="M0 349.98 L11.62 349.98" class="st9"/>
		</g>
		<g id="shape154-449" v:mID="154" v:groupContext="shape" transform="translate(157.418,315.59) rotate(-90)">
			<title>工作表.154</title>
			<path d="M0 349.98 L280.39 349.98" class="st11"/>
		</g>
		<g id="shape155-452" v:mID="155" v:groupContext="shape" transform="translate(519.803,456.752) rotate(180)">
			<title>工作表.155</title>
			<path d="M0 349.98 L12.4 349.98" class="st11"/>
		</g>
		<g id="shape156-455" v:mID="156" v:groupContext="shape" transform="translate(507.472,-232.46)">
			<title>工作表.156</title>
			<path d="M0 349.98 L12.61 349.98" class="st11"/>
		</g>
		<g id="shape157-458" v:mID="157" v:groupContext="shape" transform="translate(107.339,467.508) rotate(180)">
			<title>工作表.157</title>
			<path d="M0 349.98 L21.24 349.98" class="st11"/>
		</g>
		<g id="shape158-461" v:mID="158" v:groupContext="shape" transform="translate(107.717,456.752) rotate(180)">
			<title>工作表.158</title>
			<path d="M0 349.98 L21.83 349.98" class="st11"/>
		</g>
		<g id="shape159-464" v:mID="159" v:groupContext="shape" transform="translate(76.7252,238.015) rotate(-90)">
			<title>工作表.159</title>
			<path d="M0 349.98 L10.61 349.98" class="st10"/>
		</g>
		<g id="shape160-467" v:mID="160" v:groupContext="shape" transform="translate(426.736,-122.545)">
			<title>工作表.160</title>
			<path d="M0 349.98 L66.82 349.98" class="st10"/>
		</g>
		<g id="shape161-470" v:mID="161" v:groupContext="shape" transform="translate(493.714,-111.943)">
			<title>工作表.161</title>
			<path d="M0 349.98 L26.32 349.98" class="st10"/>
		</g>
		<g id="shape162-473" v:mID="162" v:groupContext="shape" transform="translate(143.67,238.185) rotate(-90)">
			<title>工作表.162</title>
			<path d="M0 349.98 L10.73 349.98" class="st10"/>
		</g>
	</g>
</svg>
