<?xml version="1.0" encoding="UTF-8" standalone="no"?>
<!DOCTYPE svg PUBLIC "-//W3C//DTD SVG 1.0//EN" "http://www.w3.org/TR/2001/REC-SVG-20010904/DTD/svg10.dtd">
<!-- 由 Microsoft Visio 11.0, SVG Export, v1.0 生成 变频压机调频控制.svg 压机调频控制 -->
<svg xmlns="http://www.w3.org/2000/svg" xmlns:xlink="http://www.w3.org/1999/xlink" xmlns:ev="http://www.w3.org/2001/xml-events"
		xmlns:v="http://schemas.microsoft.com/visio/2003/SVGExtensions/" width="4.80185in" height="2.6835in"
		viewBox="0 0 345.733 193.212" xml:space="preserve" color-interpolation-filters="sRGB" class="st14">
	<v:documentProperties v:langID="2052" v:metric="true" v:viewMarkup="false"/>

	<style type="text/css">
	<![CDATA[
		.st1 {fill:#ffffff;stroke:none;stroke-linecap:round;stroke-linejoin:round;stroke-width:0.72}
		.st2 {marker-end:url(#mrkr1-8);stroke:#000000;stroke-linecap:round;stroke-linejoin:round;stroke-width:0.24}
		.st3 {fill:#000000;fill-opacity:1;stroke:#000000;stroke-opacity:1;stroke-width:0.08695652173913}
		.st4 {stroke:none;stroke-linecap:round;stroke-linejoin:round;stroke-width:0.24}
		.st5 {fill:none;stroke:none;stroke-linecap:round;stroke-linejoin:round;stroke-width:0.72}
		.st6 {fill:#000000;font-family:Arial;font-size:0.833336em;font-weight:bold}
		.st7 {stroke:#000000;stroke-linecap:round;stroke-linejoin:round;stroke-width:0.72}
		.st8 {stroke:#000000;stroke-dasharray:3.5,2.5;stroke-linecap:round;stroke-linejoin:round;stroke-width:0.5}
		.st9 {fill:#000000;font-family:Arial;font-size:0.75em;font-weight:bold}
		.st10 {stroke:#000000;stroke-dasharray:5.04,3.6;stroke-linecap:round;stroke-linejoin:round;stroke-width:0.72}
		.st11 {stroke:#000000;stroke-dasharray:1.75,1.25;stroke-linecap:round;stroke-linejoin:round;stroke-width:0.25}
		.st12 {marker-end:url(#mrkr4-85);marker-start:url(#mrkr4-83);stroke:#000000;stroke-linecap:round;stroke-linejoin:round;stroke-width:1}
		.st13 {fill:#000000;fill-opacity:1;stroke:#000000;stroke-opacity:1;stroke-width:0.28409090909091}
		.st14 {fill:none;fill-rule:evenodd;font-size:12px;overflow:visible;stroke-linecap:square;stroke-miterlimit:3}
	]]>
	</style>

	<defs id="Markers">
		<g id="lend1">
			<path d="M 1 -1 L 0 0 L 1 1 " style="stroke-linecap:round;stroke-linejoin:round;fill:none"/>
		</g>
		<marker id="mrkr1-8" class="st3" v:arrowType="1" v:arrowSize="2" orient="auto" markerUnits="strokeWidth" overflow="visible">
			<use xlink:href="#lend1" transform="scale(-11.5,-11.5) "/>
		</marker>
		<g id="lend4">
			<path d="M 2 1 L 0 0 L 2 -1 L 2 1 " style="stroke:none"/>
		</g>
		<marker id="mrkr4-83" class="st13" v:arrowType="4" v:arrowSize="2" v:setback="6.68" refX="6.68" orient="auto"
				markerUnits="strokeWidth" overflow="visible">
			<use xlink:href="#lend4" transform="scale(3.52) "/>
		</marker>
		<marker id="mrkr4-85" class="st13" v:arrowType="4" v:arrowSize="2" v:setback="7.04" refX="-7.04" orient="auto"
				markerUnits="strokeWidth" overflow="visible">
			<use xlink:href="#lend4" transform="scale(-3.52,-3.52) "/>
		</marker>
	</defs>
	<g v:mID="4" v:index="1" v:groupContext="backgroundPage">
		<v:userDefs>
			<v:ud v:nameU="msvVisioCreated" v:prompt="" v:val="VT0(0):26"/>
		</v:userDefs>
		<title>背景-1</title>
		<v:pageProperties width="4.80185" height="2.6835" v:drawingScale="0.0393701" v:pageScale="0.0393701" v:drawingUnits="24"
				v:shadowOffsetX="8.50394" v:shadowOffsetY="-8.50394"/>
		<g id="shape1-1" v:mID="1" v:groupContext="shape">
			<title>实心</title>
			<v:userDefs>
				<v:ud v:nameU="Background" v:val="VT0(0):26"/>
				<v:ud v:nameU="visVersion" v:val="VT0(14):26"/>
				<v:ud v:nameU="msvShapeCategories" v:prompt="" v:val="VT4(DoNotContain)"/>
				<v:ud v:nameU="msvVisioCreated" v:prompt="" v:val="VT0(0):26"/>
			</v:userDefs>
			<rect x="0" y="0" width="345.733" height="193.212" class="st1"/>
		</g>
	</g>
	<g v:mID="7" v:index="2" v:groupContext="foregroundPage">
		<title>变频压机调频控制</title>
		<v:pageProperties v:drawingScale="0.0393701" v:pageScale="0.0393701" v:drawingUnits="24" v:shadowOffsetX="8.50394"
				v:shadowOffsetY="-8.50394"/>
		<v:layer v:name="连接线" v:index="0"/>
		<g id="shape1-3" v:mID="1" v:groupContext="shape" transform="translate(82.3609,-43.0176)">
			<title>工作表.1</title>
			<path d="M0 193.21 L241.47 193.21" class="st2"/>
		</g>
		<g id="shape2-9" v:mID="2" v:groupContext="shape" transform="translate(484.688,18.8483) rotate(90.1804)">
			<title>工作表.2</title>
			<path d="M0 193.21 L146.31 193.21" class="st4"/>
		</g>
		<g id="shape3-12" v:mID="3" v:groupContext="shape" transform="translate(56.0078,-146.381)">
			<title>工作表.3</title>
			<desc>Hz</desc>
			<v:textBlock v:margins="rect(4,4,4,4)" v:tabSpace="42.5197"/>
			<v:textRect cx="12.5372" cy="180.997" width="25.08" height="24.4306"/>
			<rect x="0" y="168.782" width="25.0744" height="24.4306" class="st5"/>
			<text x="8.85" y="184" class="st6" v:langID="2052"><v:paragraph v:horizAlign="2"/><v:tabList/>Hz</text>		</g>
		<g id="shape4-15" v:mID="4" v:groupContext="shape" transform="translate(-110.851,150.195) rotate(-90)">
			<title>工作表.4</title>
			<path d="M0 193.21 L119.3 193.21" class="st2"/>
		</g>
		<g id="shape5-20" v:mID="5" v:groupContext="shape" transform="translate(91.1973,-43.0176)">
			<title>工作表.5</title>
			<path d="M0 193.21 L17.27 124.93 L53.74 124.93 L61.04 141.95 L90.22 141.95" class="st7"/>
		</g>
		<g id="shape6-23" v:mID="6" v:groupContext="shape" transform="translate(181.417,-94.2824)">
			<title>工作表.6</title>
			<path d="M0 193.21 L2.43 188.35 L12.16 188.35 L14.59 183.49 L21.88 183.49 L24.32 178.62 L31.61 178.62 L34.04 173.76 L41.34
						 173.76" class="st7"/>
		</g>
		<g id="shape7-26" v:mID="7" v:groupContext="shape" transform="translate(156.595,292.142) rotate(180)">
			<title>工作表.7</title>
			<path d="M0 193.21 L74.26 193.21" class="st8"/>
		</g>
		<g id="shape8-29" v:mID="8" v:groupContext="shape" transform="translate(18.72,-105.205)">
			<title>工作表.8</title>
			<desc>freq_start_1</desc>
			<v:textBlock v:margins="rect(4,4,4,4)" v:tabSpace="42.5197"/>
			<v:textRect cx="32.5165" cy="188.323" width="65.04" height="9.77822"/>
			<rect x="0" y="183.434" width="65.0329" height="9.77822" class="st5"/>
			<text x="6.75" y="191.02" class="st9" v:langID="2052"><v:paragraph v:horizAlign="1"/><v:tabList/>freq_start_1</text>		</g>
		<g id="shape9-32" v:mID="9" v:groupContext="shape" transform="translate(18.72,-91.1048)">
			<title>工作表.9</title>
			<desc>freq_start_2</desc>
			<v:textBlock v:margins="rect(4,4,4,4)" v:tabSpace="42.5197"/>
			<v:textRect cx="32.5956" cy="190.047" width="65.2" height="6.3298"/>
			<rect x="0" y="186.883" width="65.1912" height="6.3298" class="st5"/>
			<text x="6.83" y="192.75" class="st9" v:langID="2052"><v:paragraph v:horizAlign="1"/><v:tabList/>freq_start_2</text>		</g>
		<g id="shape10-35" v:mID="10" v:groupContext="shape" transform="translate(49.941,-6.93054) rotate(-63.4349)">
			<title>工作表.10</title>
			<path d="M0 193.21 L5.44 193.21" class="st10"/>
		</g>
		<g id="shape11-38" v:mID="11" v:groupContext="shape" transform="translate(225.187,-118.599)">
			<title>工作表.11</title>
			<path d="M0 193.21 L7.29 193.21 L9.73 188.35 L17.02 188.35 L25.29 188.35" class="st7"/>
		</g>
		<g id="shape12-41" v:mID="12" v:groupContext="shape" transform="translate(247.217,-122.535) rotate(-0.971022)">
			<title>工作表.12</title>
			<path d="M0 192.31 C0.85 193.31 1.27 192.76 1.7 192.34 C4.35 189.81 7.8 192.45 11.42 192.74 C13.64 192.93 15.92 192.23
						 17.51 192.12 C19.08 192.02 19.99 192.48 21.64 192.68 C24.22 192.99 28.61 192.63 32.1 192.61 C35.55 192.59
						 38.11 192.9 40.61 192.51 C43.18 192.11 45.69 190.98 48.16 191.67 C49.58 192.06 50.98 193.06 52.76 193.21
						 C54.35 193.34 56.24 192.81 57.4 192.31" class="st7"/>
		</g>
		<g id="shape13-44" v:mID="13" v:groupContext="shape" transform="translate(428.204,46.5667) rotate(90)">
			<title>工作表.13</title>
			<path d="M0 193.21 L103.63 193.21" class="st11"/>
		</g>
		<g id="shape14-47" v:mID="14" v:groupContext="shape" transform="translate(-11.5002,162.749) rotate(-90)">
			<title>工作表.14</title>
			<path d="M0 193.21 L116.34 193.21" class="st11"/>
		</g>
		<g id="shape15-50" v:mID="15" v:groupContext="shape" transform="translate(240.023,-127.763)">
			<title>工作表.15</title>
			<desc>S3</desc>
			<v:textBlock v:margins="rect(4,4,4,4)" v:tabSpace="42.5197"/>
			<v:textRect cx="27.8511" cy="182.047" width="55.71" height="22.3301"/>
			<rect x="0" y="170.882" width="55.7022" height="22.3301" class="st5"/>
			<text x="21.74" y="185.05" class="st6" v:langID="2052"><v:paragraph v:horizAlign="1"/><v:tabList/>S3</text>		</g>
		<g id="shape16-53" v:mID="16" v:groupContext="shape" transform="translate(181.285,-127.763)">
			<title>工作表.16</title>
			<desc>S2</desc>
			<v:textBlock v:margins="rect(4,4,4,4)" v:tabSpace="42.5197"/>
			<v:textRect cx="27.8511" cy="182.047" width="55.71" height="22.3301"/>
			<rect x="0" y="170.882" width="55.7022" height="22.3301" class="st5"/>
			<text x="21.74" y="185.05" class="st6" v:langID="2052"><v:paragraph v:horizAlign="1"/><v:tabList/>S2</text>		</g>
		<g id="shape17-56" v:mID="17" v:groupContext="shape" transform="translate(107.585,-127.763)">
			<title>工作表.17</title>
			<desc>S1</desc>
			<v:textBlock v:margins="rect(4,4,4,4)" v:tabSpace="42.5197"/>
			<v:textRect cx="27.8511" cy="182.047" width="55.71" height="22.3301"/>
			<rect x="0" y="170.882" width="55.7022" height="22.3301" class="st5"/>
			<text x="21.74" y="185.05" class="st6" v:langID="2052"><v:paragraph v:horizAlign="1"/><v:tabList/>S1</text>		</g>
		<g id="shape18-59" v:mID="18" v:groupContext="shape" transform="translate(235.4,262.785) rotate(180)">
			<title>工作表.18</title>
			<path d="M0 193.21 L152.96 193.21" class="st8"/>
		</g>
		<g id="shape19-62" v:mID="19" v:groupContext="shape" transform="translate(18.72,-118.437)">
			<title>工作表.19</title>
			<desc>freq_rated</desc>
			<v:textBlock v:margins="rect(4,4,4,4)" v:tabSpace="42.5197"/>
			<v:textRect cx="27.946" cy="187.63" width="55.9" height="11.1651"/>
			<rect x="0" y="182.047" width="55.892" height="11.1651" class="st5"/>
			<text x="5.94" y="190.33" class="st9" v:langID="2052"><v:paragraph v:horizAlign="1"/><v:tabList/>freq_rated</text>		</g>
		<g id="shape20-65" v:mID="20" v:groupContext="shape" transform="translate(-48.776,162.83) rotate(-90)">
			<title>工作表.20</title>
			<path d="M0 193.21 L80.98 193.21" class="st11"/>
		</g>
		<g id="shape21-68" v:mID="21" v:groupContext="shape" transform="translate(108.011,-19.379)">
			<title>工作表.21</title>
			<desc>t1</desc>
			<v:textBlock v:margins="rect(4,4,4,4)" v:tabSpace="42.5197"/>
			<v:textRect cx="9.92126" cy="186.785" width="19.85" height="12.8552"/>
			<rect x="0" y="180.357" width="19.8425" height="12.8552" class="st5"/>
			<text x="4" y="189.78" class="st6" v:langID="2052"><v:paragraph/><v:tabList/>t1</text>		</g>
		<g id="shape22-71" v:mID="22" v:groupContext="shape" transform="translate(144.975,275.064) rotate(180)">
			<title>工作表.22</title>
			<path d="M0 193.21 L62.53 193.21" class="st8"/>
		</g>
		<g id="shape23-74" v:mID="23" v:groupContext="shape" transform="translate(-102.015,161.939) rotate(-90)">
			<title>工作表.23</title>
			<path d="M0 193.21 L114.82 193.21" class="st11"/>
		</g>
		<g id="shape24-77" v:mID="24" v:groupContext="shape" v:layerMember="0" transform="translate(91.1973,-28.6413)">
			<title>动态连接线</title>
			<path d="M6.68 186.13 L7.04 186.13 L45.99 186.13" class="st12"/>
		</g>
		<g id="shape25-86" v:mID="25" v:groupContext="shape" v:layerMember="0" transform="translate(144.791,-28.6413)">
			<title>动态连接线.65</title>
			<path d="M6.68 186.13 L7.04 186.13 L29.53 186.13" class="st12"/>
		</g>
		<g id="shape26-93" v:mID="26" v:groupContext="shape" transform="translate(154.096,-18.72)">
			<title>工作表.26</title>
			<desc>t2</desc>
			<v:textBlock v:margins="rect(4,4,4,4)" v:tabSpace="42.5197"/>
			<v:textRect cx="9.55598" cy="186.785" width="19.12" height="12.8552"/>
			<rect x="0" y="180.357" width="19.112" height="12.8552" class="st5"/>
			<text x="4" y="189.78" class="st6" v:langID="2052"><v:paragraph/><v:tabList/>t2</text>		</g>
	</g>
</svg>
