<?xml version="1.0" encoding="UTF-8" standalone="no"?>
<!DOCTYPE svg PUBLIC "-//W3C//DTD SVG 1.0//EN" "http://www.w3.org/TR/2001/REC-SVG-20010904/DTD/svg10.dtd">
<!-- 由 Microsoft Visio 11.0, SVG Export, v1.0 生成 除霜功能-除霜过程.svg 除霜过程 -->
<svg xmlns="http://www.w3.org/2000/svg" xmlns:xlink="http://www.w3.org/1999/xlink" xmlns:ev="http://www.w3.org/2001/xml-events"
		xmlns:v="http://schemas.microsoft.com/visio/2003/SVGExtensions/" width="6.68349in" height="3.64002in"
		viewBox="0 0 481.212 262.081" xml:space="preserve" color-interpolation-filters="sRGB" class="st14">
	<v:documentProperties v:langID="2052" v:metric="true" v:viewMarkup="false"/>

	<style type="text/css">
	<![CDATA[
		.st1 {fill:#ffffff;stroke:none;stroke-linecap:round;stroke-linejoin:round;stroke-width:0.72}
		.st2 {marker-end:url(#mrkr1-8);stroke:#000000;stroke-linecap:round;stroke-linejoin:round;stroke-width:0.24}
		.st3 {fill:#000000;fill-opacity:1;stroke:#000000;stroke-opacity:1;stroke-width:0.08695652173913}
		.st4 {stroke:none;stroke-linecap:round;stroke-linejoin:round;stroke-width:0.24}
		.st5 {fill:none;stroke:none;stroke-linecap:round;stroke-linejoin:round;stroke-width:0.72}
		.st6 {fill:#000000;font-family:Arial;font-size:0.833336em}
		.st7 {fill:#000000;font-family:Arial;font-size:0.833336em;font-weight:bold}
		.st8 {stroke:#000000;stroke-dasharray:3.6,2.16;stroke-linecap:round;stroke-linejoin:round;stroke-width:0.24}
		.st9 {stroke:#000000;stroke-linecap:round;stroke-linejoin:round;stroke-width:1.2}
		.st10 {stroke:#000000;stroke-linecap:round;stroke-linejoin:round;stroke-width:1}
		.st11 {stroke:#00b0f0;stroke-linecap:round;stroke-linejoin:round;stroke-width:1.2}
		.st12 {stroke:#ff0000;stroke-linecap:round;stroke-linejoin:round;stroke-width:1.2}
		.st13 {fill:#000000;font-family:Arial;font-size:0.666664em}
		.st14 {fill:none;fill-rule:evenodd;font-size:12px;overflow:visible;stroke-linecap:square;stroke-miterlimit:3}
	]]>
	</style>

	<defs id="Markers">
		<g id="lend1">
			<path d="M 1 -1 L 0 0 L 1 1 " style="stroke-linecap:round;stroke-linejoin:round;fill:none"/>
		</g>
		<marker id="mrkr1-8" class="st3" v:arrowType="1" v:arrowSize="2" orient="auto" markerUnits="strokeWidth" overflow="visible">
			<use xlink:href="#lend1" transform="scale(-11.5,-11.5) "/>
		</marker>
	</defs>
	<g v:mID="4" v:index="1" v:groupContext="backgroundPage">
		<v:userDefs>
			<v:ud v:nameU="msvVisioCreated" v:prompt="" v:val="VT0(0):26"/>
		</v:userDefs>
		<title>背景-1</title>
		<v:pageProperties width="6.68349" height="3.64002" v:drawingScale="0.0393701" v:pageScale="0.0393701" v:drawingUnits="24"
				v:shadowOffsetX="8.50394" v:shadowOffsetY="-8.50394"/>
		<g id="shape1-1" v:mID="1" v:groupContext="shape">
			<title>实心</title>
			<v:userDefs>
				<v:ud v:nameU="Background" v:val="VT0(0):26"/>
				<v:ud v:nameU="visVersion" v:val="VT0(14):26"/>
				<v:ud v:nameU="msvShapeCategories" v:prompt="" v:val="VT4(DoNotContain)"/>
				<v:ud v:nameU="msvVisioCreated" v:prompt="" v:val="VT0(0):26"/>
			</v:userDefs>
			<rect x="0" y="0" width="481.212" height="262.081" class="st1"/>
		</g>
	</g>
	<g v:mID="0" v:index="2" v:groupContext="foregroundPage">
		<title>除霜功能-除霜过程</title>
		<v:pageProperties v:drawingScale="0.0393701" v:pageScale="0.0393701" v:drawingUnits="24" v:shadowOffsetX="8.50394"
				v:shadowOffsetY="-8.50394"/>
		<v:layer v:name="连接线" v:index="0"/>
		<g id="shape1-3" v:mID="1" v:groupContext="shape" transform="translate(65.6412,-35.0148)">
			<title>工作表.1</title>
			<path d="M0 262.08 L374.17 262.08" class="st2"/>
		</g>
		<g id="shape2-9" v:mID="2" v:groupContext="shape" transform="translate(442.229,90.253) rotate(90.1804)">
			<title>工作表.2</title>
			<path d="M0 262.08 L85.04 262.08" class="st4"/>
		</g>
		<g id="shape3-12" v:mID="3" v:groupContext="shape" transform="translate(439.814,-18.72)">
			<title>工作表.3</title>
			<desc>t/s</desc>
			<v:textBlock v:margins="rect(4,4,4,4)" v:tabSpace="42.5197"/>
			<v:textRect cx="11.3386" cy="254.081" width="22.68" height="16"/>
			<rect x="0" y="246.081" width="22.6772" height="16" class="st5"/>
			<text x="6.06" y="257.08" class="st6" v:langID="2052"><v:paragraph v:horizAlign="1"/><v:tabList/>t/s</text>		</g>
		<g id="shape4-15" v:mID="4" v:groupContext="shape" transform="translate(156.936,-158.589)">
			<title>工作表.4</title>
			<desc>OFF</desc>
			<v:textBlock v:margins="rect(4,4,4,4)" v:tabSpace="42.5197"/>
			<v:textRect cx="50.0945" cy="254.081" width="100.19" height="16"/>
			<rect x="0" y="246.081" width="100.189" height="16" class="st5"/>
			<text x="40.1" y="257.08" class="st7" v:langID="2052"><v:paragraph v:horizAlign="1"/><v:tabList/>OFF</text>		</g>
		<g id="shape5-18" v:mID="5" v:groupContext="shape" transform="translate(18.72,-186.61)">
			<title>工作表.5</title>
			<desc>PUMPf</desc>
			<v:textBlock v:margins="rect(4,4,4,4)" v:tabSpace="42.5197"/>
			<v:textRect cx="24.2419" cy="253.577" width="48.49" height="17.0079"/>
			<rect x="0" y="245.073" width="48.4838" height="17.0079" class="st5"/>
			<text x="12.81" y="256.58" class="st6" v:langID="2052"><v:paragraph v:horizAlign="2"/><v:tabList/>PUMPf</text>		</g>
		<g id="shape6-21" v:mID="6" v:groupContext="shape" transform="translate(18.72,-152.865)">
			<title>工作表.6</title>
			<desc>FANf</desc>
			<v:textBlock v:margins="rect(4,4,4,4)" v:tabSpace="42.5197"/>
			<v:textRect cx="24.2419" cy="254.081" width="48.49" height="16"/>
			<rect x="0" y="246.081" width="48.4838" height="16" class="st5"/>
			<text x="21.71" y="257.08" class="st6" v:langID="2052"><v:paragraph v:horizAlign="2"/><v:tabList/>FANf</text>		</g>
		<g id="shape7-24" v:mID="7" v:groupContext="shape" transform="translate(18.72,-124.518)">
			<title>工作表.7</title>
			<desc>COMPf</desc>
			<v:textBlock v:margins="rect(4,4,4,4)" v:tabSpace="42.5197"/>
			<v:textRect cx="24.2419" cy="254.081" width="48.49" height="16"/>
			<rect x="0" y="246.081" width="48.4838" height="16" class="st5"/>
			<text x="11.71" y="257.08" class="st6" v:langID="2052"><v:paragraph v:horizAlign="2"/><v:tabList/>COMPf</text>		</g>
		<g id="shape8-27" v:mID="8" v:groupContext="shape" transform="translate(-194.877,227.066) rotate(-90)">
			<title>工作表.8</title>
			<path d="M0 262.08 L204.04 262.08" class="st2"/>
		</g>
		<g id="shape9-32" v:mID="9" v:groupContext="shape" transform="translate(527.71,35.7279) rotate(90)">
			<title>工作表.9</title>
			<path d="M0 262.08 L189.51 262.08" class="st8"/>
		</g>
		<g id="shape10-35" v:mID="10" v:groupContext="shape" transform="translate(28.6413,-97.4272)">
			<title>工作表.10</title>
			<desc>RV</desc>
			<v:textBlock v:margins="rect(4,4,4,4)" v:tabSpace="42.5197"/>
			<v:textRect cx="19.2813" cy="254.081" width="38.57" height="16"/>
			<rect x="0" y="246.081" width="38.5625" height="16" class="st5"/>
			<text x="20.67" y="257.08" class="st6" v:langID="2052"><v:paragraph v:horizAlign="2"/><v:tabList/>RV</text>		</g>
		<g id="shape11-38" v:mID="11" v:groupContext="shape" transform="translate(185.283,-75.9447)">
			<title>工作表.11</title>
			<rect x="0" y="246.081" width="104" height="16" class="st5"/>
		</g>
		<g id="shape12-40" v:mID="12" v:groupContext="shape" transform="translate(67.2038,-202.093)">
			<title>工作表.12</title>
			<path d="M0 262.08 L354.33 262.08" class="st9"/>
		</g>
		<g id="shape13-43" v:mID="13" v:groupContext="shape" transform="translate(67.2038,-159.432)">
			<title>工作表.13</title>
			<path d="M0 247.77 L91.06 247.77 L91.06 262.08 L198.43 261.94 L198.43 248.47 L354.33 249.18" class="st9"/>
		</g>
		<g id="shape14-46" v:mID="14" v:groupContext="shape" transform="translate(67.6762,-102.88)">
			<title>工作表.14</title>
			<path d="M0 247.91 L91.08 247.03 L91.08 261.35 L226.77 262.08 L226.77 247.91 L354.33 247.91" class="st9"/>
		</g>
		<g id="shape15-49" v:mID="15" v:groupContext="shape" transform="translate(432.604,42.968) rotate(90)">
			<title>工作表.15</title>
			<path d="M0 262.08 L182.27 262.08" class="st8"/>
		</g>
		<g id="shape16-52" v:mID="16" v:groupContext="shape" transform="translate(555.911,43.3769) rotate(90)">
			<title>工作表.16</title>
			<path d="M0 262.08 L181.86 262.08" class="st8"/>
		</g>
		<g id="shape17-55" v:mID="17" v:groupContext="shape" transform="translate(108.161,-224.936)">
			<title>工作表.17</title>
			<desc>Start</desc>
			<v:textBlock v:margins="rect(4,4,4,4)" v:tabSpace="42.5197"/>
			<v:textRect cx="31.1811" cy="253.577" width="62.37" height="17.0079"/>
			<rect x="0" y="245.073" width="62.3622" height="17.0079" class="st5"/>
			<text x="20.62" y="256.58" class="st6" v:langID="2052"><v:paragraph v:horizAlign="1"/><v:tabList/>Start</text>		</g>
		<g id="shape18-58" v:mID="18" v:groupContext="shape" transform="translate(238.555,-226.353)">
			<title>工作表.18</title>
			<desc>End</desc>
			<v:textBlock v:margins="rect(4,4,4,4)" v:tabSpace="42.5197"/>
			<v:textRect cx="28.3465" cy="253.577" width="56.7" height="17.0079"/>
			<rect x="0" y="245.073" width="56.6929" height="17.0079" class="st5"/>
			<text x="19.45" y="256.58" class="st6" v:langID="2052"><v:paragraph v:horizAlign="1"/><v:tabList/>End</text>		</g>
		<g id="shape19-61" v:mID="19" v:groupContext="shape" transform="translate(336.495,-173.747)">
			<title>工作表.19</title>
			<desc>ON</desc>
			<v:textBlock v:margins="rect(4,4,4,4)" v:tabSpace="42.5197"/>
			<v:textRect cx="39.685" cy="252.16" width="79.38" height="19.8425"/>
			<rect x="0" y="242.239" width="79.3701" height="19.8425" class="st5"/>
			<text x="32.19" y="255.16" class="st7" v:langID="2052"><v:paragraph v:horizAlign="1"/><v:tabList/>ON</text>		</g>
		<g id="shape20-64" v:mID="20" v:groupContext="shape" transform="translate(336.495,-206.453)">
			<title>工作表.20</title>
			<desc>ON</desc>
			<v:textBlock v:margins="rect(4,4,4,4)" v:tabSpace="42.5197"/>
			<v:textRect cx="39.685" cy="252.16" width="79.38" height="19.8425"/>
			<rect x="0" y="242.239" width="79.3701" height="19.8425" class="st5"/>
			<text x="32.19" y="255.16" class="st7" v:langID="2052"><v:paragraph v:horizAlign="1"/><v:tabList/>ON</text>		</g>
		<g id="shape21-67" v:mID="21" v:groupContext="shape" transform="translate(336.495,-145.4)">
			<title>工作表.21</title>
			<desc>ON</desc>
			<v:textBlock v:margins="rect(4,4,4,4)" v:tabSpace="42.5197"/>
			<v:textRect cx="39.685" cy="252.16" width="79.38" height="19.8425"/>
			<rect x="0" y="242.239" width="79.3701" height="19.8425" class="st5"/>
			<text x="32.19" y="255.16" class="st7" v:langID="2052"><v:paragraph v:horizAlign="1"/><v:tabList/>ON</text>		</g>
		<g id="shape22-70" v:mID="22" v:groupContext="shape" transform="translate(612.75,41.455) rotate(90)">
			<title>工作表.22</title>
			<path d="M0 262.08 L183.78 262.08" class="st8"/>
		</g>
		<g id="shape23-73" v:mID="23" v:groupContext="shape" transform="translate(67.2038,-132.105)">
			<title>工作表.23</title>
			<path d="M0 249.33 L70.87 249.33 L77.95 262.08 L102.76 262.08 L109.84 249.33 L198.42 249.33 L209.06 262.08 L244.49 262.08
						 L251.57 249.33 L354.33 249.33" class="st9"/>
		</g>
		<g id="shape24-76" v:mID="24" v:groupContext="shape" transform="translate(400.621,34.622) rotate(89.7582)">
			<title>工作表.24</title>
			<path d="M0 262.08 L189.51 262.08" class="st8"/>
		</g>
		<g id="shape25-79" v:mID="25" v:groupContext="shape" transform="translate(574.337,43.3769) rotate(90)">
			<title>工作表.25</title>
			<path d="M0 262.08 L181.86 262.08" class="st8"/>
		</g>
		<g id="shape26-82" v:mID="26" v:groupContext="shape" transform="translate(420.466,42.7986) rotate(90)">
			<title>工作表.26</title>
			<path d="M0 262.08 L182.44 262.08" class="st8"/>
		</g>
		<g id="shape27-85" v:mID="27" v:groupContext="shape" transform="translate(-117.07,191.633) rotate(-90)">
			<title>工作表.27</title>
			<path d="M0 262.08 L14.17 262.08" class="st9"/>
		</g>
		<g id="shape28-88" v:mID="28" v:groupContext="shape" transform="translate(145.011,-84.4324)">
			<title>工作表.28</title>
			<path d="M0 262.08 L148.82 262.08" class="st9"/>
		</g>
		<g id="shape29-91" v:mID="29" v:groupContext="shape" v:layerMember="0" transform="translate(67.2038,-63.2801)">
			<title>动态连接线</title>
			<path d="M0 255.08 C-0 256.84 4.4 252.18 7.93 249.93 C19.88 242.3 21.92 262.14 77.81 254.91" class="st10"/>
		</g>
		<g id="shape30-94" v:mID="30" v:groupContext="shape" transform="translate(31.7489,187.558) rotate(-90)">
			<title>工作表.30</title>
			<path d="M0 262.08 L9.91 262.08" class="st9"/>
		</g>
		<g id="shape31-97" v:mID="31" v:groupContext="shape" v:layerMember="0" transform="translate(350.711,-68.8497)">
			<title>动态连接线.30</title>
			<path d="M0 256.41 C0 258.17 8.22 252.51 13.43 250.96 C24.66 247.63 21.92 263.47 49.44 253.58" class="st10"/>
		</g>
		<g id="shape32-100" v:mID="32" v:groupContext="shape" transform="translate(293.83,-74.5236)">
			<title>工作表.32</title>
			<path d="M0 262.08 L56.88 262.08" class="st9"/>
		</g>
		<g id="shape33-103" v:mID="33" v:groupContext="shape" transform="translate(18.72,-63.3613)">
			<title>工作表.33</title>
			<desc>EEVm</desc>
			<v:textBlock v:margins="rect(4,4,4,4)" v:tabSpace="42.5197"/>
			<v:textRect cx="24.8779" cy="254.081" width="49.76" height="16"/>
			<rect x="0" y="246.081" width="49.7559" height="16" class="st5"/>
			<text x="17.42" y="257.08" class="st6" v:langID="2052"><v:paragraph v:horizAlign="2"/><v:tabList/>EEVm</text>		</g>
		<g id="shape34-106" v:mID="34" v:groupContext="shape" transform="translate(407.093,42.968) rotate(90)">
			<title>工作表.34</title>
			<path d="M0 262.08 L182.27 262.08" class="st8"/>
		</g>
		<g id="shape35-109" v:mID="35" v:groupContext="shape" transform="translate(538.904,43.3769) rotate(90)">
			<title>工作表.35</title>
			<path d="M0 262.08 L181.86 262.08" class="st8"/>
		</g>
		<g id="shape36-112" v:mID="36" v:groupContext="shape" transform="translate(-122.839,215.729) rotate(-90)">
			<title>工作表.36</title>
			<path d="M0 262.08 L14.17 262.08" class="st9"/>
		</g>
		<g id="shape37-115" v:mID="37" v:groupContext="shape" transform="translate(139.306,-45.2904)">
			<title>工作表.37</title>
			<path d="M0 262.08 L172.95 262.08" class="st9"/>
		</g>
		<g id="shape38-118" v:mID="38" v:groupContext="shape" v:layerMember="0" transform="translate(67.1779,-45.4824)">
			<title>动态连接线.38</title>
			<path d="M0 262.08 C0 263.85 13.41 248.11 26.33 248.03 C42.55 247.94 57.99 272.55 72.06 247.04" class="st10"/>
		</g>
		<g id="shape39-121" v:mID="39" v:groupContext="shape" v:layerMember="0" transform="translate(312.255,-41.8315)">
			<title>动态连接线.41</title>
			<path d="M0 258.62 C4.25 247.64 16.26 247.12 28.27 250.53 C44.61 255.17 60.94 267.07 87.87 251.37" class="st10"/>
		</g>
		<g id="shape40-124" v:mID="40" v:groupContext="shape" transform="translate(18.72,-38.5581)">
			<title>工作表.40</title>
			<desc>EEVs</desc>
			<v:textBlock v:margins="rect(4,4,4,4)" v:tabSpace="42.5197"/>
			<v:textRect cx="24.865" cy="254.081" width="49.73" height="16"/>
			<rect x="0" y="246.081" width="49.7299" height="16" class="st5"/>
			<text x="20.72" y="257.08" class="st6" v:langID="2052"><v:paragraph v:horizAlign="2"/><v:tabList/>EEVs</text>		</g>
		<g id="shape41-127" v:mID="41" v:groupContext="shape" transform="translate(-117.07,138.059) rotate(-90)">
			<title>工作表.41</title>
			<path d="M0 262.08 L8.08 262.08" class="st11"/>
		</g>
		<g id="shape42-130" v:mID="42" v:groupContext="shape" transform="translate(-92.1216,138.055) rotate(-90)">
			<title>工作表.42</title>
			<path d="M0 262.08 L8.08 262.08" class="st11"/>
		</g>
		<g id="shape43-133" v:mID="43" v:groupContext="shape" transform="translate(14.1776,138.055) rotate(-90)">
			<title>工作表.43</title>
			<path d="M0 262.08 L8.08 262.08" class="st11"/>
		</g>
		<g id="shape44-136" v:mID="44" v:groupContext="shape" transform="translate(50.1741,137.775) rotate(-90)">
			<title>工作表.44</title>
			<path d="M0 262.08 L8.08 262.08" class="st11"/>
		</g>
		<g id="shape45-139" v:mID="45" v:groupContext="shape" transform="translate(169.673,400.707) rotate(180)">
			<title>工作表.45</title>
			<path d="M0 262.08 L24.66 262.08" class="st11"/>
		</g>
		<g id="shape46-142" v:mID="46" v:groupContext="shape" transform="translate(312.255,399.856) rotate(180)">
			<title>工作表.46</title>
			<path d="M0 262.08 L36 262.08" class="st11"/>
		</g>
		<g id="shape47-145" v:mID="47" v:groupContext="shape" transform="translate(169.673,392.057) rotate(180)">
			<title>工作表.47</title>
			<path d="M0 262.08 L24.66 262.08" class="st12"/>
		</g>
		<g id="shape48-148" v:mID="48" v:groupContext="shape" transform="translate(312.029,392.057) rotate(180)">
			<title>工作表.48</title>
			<path d="M0 262.08 L35.43 262.08" class="st12"/>
		</g>
		<g id="shape49-151" v:mID="49" v:groupContext="shape" transform="translate(138.898,-19.8425)">
			<title>工作表.49</title>
			<desc>t1</desc>
			<v:textBlock v:margins="rect(4,4,4,4)" v:tabSpace="42.5197"/>
			<v:textRect cx="14.1732" cy="254.081" width="28.35" height="16"/>
			<rect x="0" y="246.081" width="28.3465" height="16" class="st5"/>
			<text x="10.67" y="256.48" class="st13" v:langID="2052"><v:paragraph/><v:tabList/>t1    </text>		</g>
		<g id="shape50-154" v:mID="50" v:groupContext="shape" transform="translate(150.803,-19.8425)">
			<title>工作表.50</title>
			<desc>t2</desc>
			<v:textBlock v:margins="rect(4,4,4,4)" v:tabSpace="42.5197"/>
			<v:textRect cx="14.1732" cy="254.081" width="28.35" height="16"/>
			<rect x="0" y="246.081" width="28.3465" height="16" class="st5"/>
			<text x="10.67" y="256.48" class="st13" v:langID="2052"><v:paragraph/><v:tabList/>t2  </text>		</g>
		<g id="shape51-157" v:mID="51" v:groupContext="shape" transform="translate(270.709,-19.8425)">
			<title>工作表.51</title>
			<desc>t4</desc>
			<v:textBlock v:margins="rect(4,4,4,4)" v:tabSpace="42.5197"/>
			<v:textRect cx="14.1732" cy="254.081" width="28.35" height="16"/>
			<rect x="0" y="246.081" width="28.3465" height="16" class="st5"/>
			<text x="10.67" y="256.48" class="st13" v:langID="2052"><v:paragraph/><v:tabList/>t4    </text>		</g>
		<g id="shape52-160" v:mID="52" v:groupContext="shape" transform="translate(286.299,-19.8425)">
			<title>工作表.52</title>
			<desc>t5</desc>
			<v:textBlock v:margins="rect(4,4,4,4)" v:tabSpace="42.5197"/>
			<v:textRect cx="14.1732" cy="254.081" width="28.35" height="16"/>
			<rect x="0" y="246.081" width="28.3465" height="16" class="st5"/>
			<text x="10.67" y="256.48" class="st13" v:langID="2052"><v:paragraph/><v:tabList/>t5    </text>		</g>
		<g id="shape53-163" v:mID="53" v:groupContext="shape" transform="translate(318.898,-19.8425)">
			<title>工作表.53</title>
			<desc>t6</desc>
			<v:textBlock v:margins="rect(4,4,4,4)" v:tabSpace="42.5197"/>
			<v:textRect cx="14.1732" cy="254.081" width="28.35" height="16"/>
			<rect x="0" y="246.081" width="28.3465" height="16" class="st5"/>
			<text x="10.67" y="256.48" class="st13" v:langID="2052"><v:paragraph/><v:tabList/>t6    </text>		</g>
	</g>
</svg>
