<?xml version="1.0" encoding="UTF-8" standalone="no"?>
<!DOCTYPE svg PUBLIC "-//W3C//DTD SVG 1.0//EN" "http://www.w3.org/TR/2001/REC-SVG-20010904/DTD/svg10.dtd">
<!-- 由 Microsoft Visio 11.0, SVG Export, v1.0 生成 主路电膨控制-制热目标吸气过热度环温分段.svg 制热目标吸气过热度 -->
<svg xmlns="http://www.w3.org/2000/svg" xmlns:xlink="http://www.w3.org/1999/xlink" xmlns:ev="http://www.w3.org/2001/xml-events"
		xmlns:v="http://schemas.microsoft.com/visio/2003/SVGExtensions/" width="4.29925in" height="4.73639in"
		viewBox="0 0 309.546 341.02" xml:space="preserve" color-interpolation-filters="sRGB" class="st12">
	<v:documentProperties v:langID="2052" v:metric="true" v:viewMarkup="false"/>

	<style type="text/css">
	<![CDATA[
		.st1 {fill:#ffffff;stroke:none;stroke-linecap:round;stroke-linejoin:round;stroke-width:0.72}
		.st2 {marker-end:url(#mrkr1-8);stroke:#000000;stroke-linecap:round;stroke-linejoin:round;stroke-width:0.24}
		.st3 {fill:#000000;fill-opacity:1;stroke:#000000;stroke-opacity:1;stroke-width:0.08695652173913}
		.st4 {stroke:#000000;stroke-linecap:round;stroke-linejoin:round;stroke-width:1.2}
		.st5 {stroke:#000000;stroke-dasharray:3.6,2.16;stroke-linecap:round;stroke-linejoin:round;stroke-width:0.24}
		.st6 {fill:none;stroke:none;stroke-linecap:round;stroke-linejoin:round;stroke-width:0.72}
		.st7 {fill:#000000;font-family:Times New Roman;font-size:0.833336em}
		.st8 {fill:#000000;font-family:Times New Roman;font-size:0.75em;font-weight:bold}
		.st9 {font-family:宋体;font-size:1em}
		.st10 {fill:#000000;font-family:宋体;font-size:0.499992em}
		.st11 {font-family:Times New Roman;font-size:1em}
		.st12 {fill:none;fill-rule:evenodd;font-size:12px;overflow:visible;stroke-linecap:square;stroke-miterlimit:3}
	]]>
	</style>

	<defs id="Markers">
		<g id="lend1">
			<path d="M 1 -1 L 0 0 L 1 1 " style="stroke-linecap:round;stroke-linejoin:round;fill:none"/>
		</g>
		<marker id="mrkr1-8" class="st3" v:arrowType="1" v:arrowSize="2" orient="auto" markerUnits="strokeWidth" overflow="visible">
			<use xlink:href="#lend1" transform="scale(-11.5,-11.5) "/>
		</marker>
	</defs>
	<g v:mID="4" v:index="1" v:groupContext="backgroundPage">
		<v:userDefs>
			<v:ud v:nameU="msvVisioCreated" v:prompt="" v:val="VT0(0):26"/>
		</v:userDefs>
		<title>背景-1</title>
		<v:pageProperties width="4.29925" height="4.73639" v:drawingScale="0.0393701" v:pageScale="0.0393701" v:drawingUnits="24"
				v:shadowOffsetX="8.50394" v:shadowOffsetY="-8.50394"/>
		<g id="shape1-1" v:mID="1" v:groupContext="shape">
			<title>实心</title>
			<v:userDefs>
				<v:ud v:nameU="Background" v:val="VT0(0):26"/>
				<v:ud v:nameU="visVersion" v:val="VT0(14):26"/>
				<v:ud v:nameU="msvShapeCategories" v:prompt="" v:val="VT4(DoNotContain)"/>
				<v:ud v:nameU="msvVisioCreated" v:prompt="" v:val="VT0(0):26"/>
			</v:userDefs>
			<rect x="0" y="0" width="309.546" height="341.02" class="st1"/>
		</g>
	</g>
	<g v:mID="6" v:index="4" v:groupContext="foregroundPage">
		<title>主路电膨控制-制热目标吸气过热度环温分段</title>
		<v:pageProperties v:drawingScale="0.0393701" v:pageScale="0.0393701" v:drawingUnits="24" v:shadowOffsetX="8.50394"
				v:shadowOffsetY="-8.50394"/>
		<v:layer v:name="连接线" v:index="0"/>
		<g id="shape1-3" v:mID="1" v:groupContext="shape" transform="translate(59.2084,-21.9032)">
			<title>工作表.1</title>
			<path d="M0 341.02 L228.43 341.02" class="st2"/>
		</g>
		<g id="shape2-9" v:mID="2" v:groupContext="shape" transform="translate(-281.811,319.117) rotate(-90)">
			<title>工作表.2</title>
			<path d="M0 341.02 L294.52 341.02" class="st2"/>
		</g>
		<g id="shape3-14" v:mID="3" v:groupContext="shape" transform="translate(59.6428,-286.678)">
			<title>工作表.3</title>
			<path d="M0 341.02 L70.43 341.02" class="st4"/>
		</g>
		<g id="shape4-17" v:mID="4" v:groupContext="shape" transform="translate(172.594,-272.504)">
			<title>工作表.4</title>
			<path d="M0 341.02 L99.21 341.02" class="st4"/>
		</g>
		<g id="shape5-20" v:mID="5" v:groupContext="shape" transform="translate(237.914,-269.178) rotate(18.4349)">
			<title>工作表.5</title>
			<path d="M0 341.02 L44.82 341.02" class="st4"/>
		</g>
		<g id="shape6-23" v:mID="6" v:groupContext="shape" transform="translate(58.1326,-271.682) rotate(-0.180743)">
			<title>工作表.6</title>
			<path d="M0 341.02 L112.32 341.02" class="st5"/>
		</g>
		<g id="shape8-26" v:mID="8" v:groupContext="shape" transform="translate(41.3951,-280.693)">
			<title>工作表.8</title>
			<desc>38</desc>
			<v:textBlock v:margins="rect(2,2,2,2)" v:tabSpace="42.5197"/>
			<v:textRect cx="9.80422" cy="335.02" width="19.61" height="12"/>
			<rect x="0" y="329.02" width="19.6084" height="12" class="st6"/>
			<text x="2" y="338.02" class="st7" v:langID="2052"><v:paragraph/><v:tabList/>38</text>		</g>
		<g id="shape9-29" v:mID="9" v:groupContext="shape" transform="translate(-258.843,271.866) rotate(-83.2566)">
			<title>工作表.9</title>
			<path d="M0 341.02 L270.59 341.02" class="st2"/>
		</g>
		<g id="shape10-34" v:mID="10" v:groupContext="shape" transform="translate(547.598,6.48574) rotate(83.6558)">
			<title>工作表.10</title>
			<path d="M0 341.02 L266.45 341.02" class="st2"/>
		</g>
		<g id="shape11-39" v:mID="11" v:groupContext="shape" transform="translate(18.72,-305.444)">
			<title>工作表.11</title>
			<desc>TA / ℃</desc>
			<v:textBlock v:margins="rect(4,4,4,4)" v:tabSpace="42.5197"/>
			<v:textRect cx="22.2633" cy="332.592" width="44.53" height="16.8562"/>
			<rect x="0" y="324.164" width="44.5266" height="16.8562" class="st6"/>
			<text x="7.99" y="335.56" class="st8" v:langID="2052"><v:paragraph v:horizAlign="1"/><v:tabList/>TA / <tspan
						class="st9">℃</tspan></text>		</g>
		<g id="shape18-43" v:mID="18" v:groupContext="shape" transform="translate(120.195,-283.777)">
			<title>工作表.18</title>
			<desc>S1</desc>
			<v:textBlock v:margins="rect(2,2,2,2)" v:tabSpace="42.5197"/>
			<v:textRect cx="41.2606" cy="333.768" width="82.53" height="14.5039"/>
			<rect x="0" y="326.516" width="82.5213" height="14.5039" class="st6"/>
			<text x="36.51" y="336.47" class="st8" v:langID="2052"><v:paragraph v:horizAlign="1"/><v:tabList/>S1</text>		</g>
		<g id="shape19-46" v:mID="19" v:groupContext="shape" transform="translate(59.8904,-258.662)">
			<title>工作表.19</title>
			<path d="M0 341.02 L70.43 341.02" class="st4"/>
		</g>
		<g id="shape20-49" v:mID="20" v:groupContext="shape" transform="translate(172.842,-244.489)">
			<title>工作表.20</title>
			<path d="M0 341.02 L99.21 341.02" class="st4"/>
		</g>
		<g id="shape21-52" v:mID="21" v:groupContext="shape" transform="translate(238.162,-241.162) rotate(18.4349)">
			<title>工作表.21</title>
			<path d="M0 341.02 L44.82 341.02" class="st4"/>
		</g>
		<g id="shape22-55" v:mID="22" v:groupContext="shape" transform="translate(58.3802,-243.666) rotate(-0.180743)">
			<title>工作表.22</title>
			<path d="M0 341.02 L112.32 341.02" class="st5"/>
		</g>
		<g id="shape24-58" v:mID="24" v:groupContext="shape" transform="translate(41.3951,-252.677)">
			<title>工作表.24</title>
			<desc>28</desc>
			<v:textBlock v:margins="rect(2,2,2,2)" v:tabSpace="42.5197"/>
			<v:textRect cx="9.80422" cy="335.02" width="19.61" height="12"/>
			<rect x="0" y="329.02" width="19.6084" height="12" class="st6"/>
			<text x="2" y="338.02" class="st7" v:langID="2052"><v:paragraph/><v:tabList/>28</text>		</g>
		<g id="shape25-61" v:mID="25" v:groupContext="shape" transform="translate(120.402,-254.952)">
			<title>工作表.25</title>
			<desc>S2</desc>
			<v:textBlock v:margins="rect(2,2,2,2)" v:tabSpace="42.5197"/>
			<v:textRect cx="41.3844" cy="333.768" width="82.77" height="14.5039"/>
			<rect x="0" y="326.516" width="82.7689" height="14.5039" class="st6"/>
			<text x="36.63" y="336.47" class="st8" v:langID="2052"><v:paragraph v:horizAlign="1"/><v:tabList/>S2</text>		</g>
		<g id="shape35-64" v:mID="35" v:groupContext="shape" transform="translate(60.0141,-229.985)">
			<title>工作表.35</title>
			<path d="M0 341.02 L70.43 341.02" class="st4"/>
		</g>
		<g id="shape36-67" v:mID="36" v:groupContext="shape" transform="translate(172.965,-215.812)">
			<title>工作表.36</title>
			<path d="M0 341.02 L99.21 341.02" class="st4"/>
		</g>
		<g id="shape37-70" v:mID="37" v:groupContext="shape" transform="translate(238.286,-212.485) rotate(18.4349)">
			<title>工作表.37</title>
			<path d="M0 341.02 L44.82 341.02" class="st4"/>
		</g>
		<g id="shape38-73" v:mID="38" v:groupContext="shape" transform="translate(58.5039,-214.989) rotate(-0.180743)">
			<title>工作表.38</title>
			<path d="M0 341.02 L112.32 341.02" class="st5"/>
		</g>
		<g id="shape40-76" v:mID="40" v:groupContext="shape" transform="translate(41.3951,-224)">
			<title>工作表.40</title>
			<desc>10</desc>
			<v:textBlock v:margins="rect(2,2,2,2)" v:tabSpace="42.5197"/>
			<v:textRect cx="9.80422" cy="335.02" width="19.61" height="12"/>
			<rect x="0" y="329.02" width="19.6084" height="12" class="st6"/>
			<text x="2" y="338.02" class="st7" v:langID="2052"><v:paragraph/><v:tabList/>10</text>		</g>
		<g id="shape41-79" v:mID="41" v:groupContext="shape" transform="translate(120.525,-226.441)">
			<title>工作表.41</title>
			<desc>S3</desc>
			<v:textBlock v:margins="rect(2,2,2,2)" v:tabSpace="42.5197"/>
			<v:textRect cx="41.3844" cy="333.768" width="82.77" height="14.5039"/>
			<rect x="0" y="326.516" width="82.7689" height="14.5039" class="st6"/>
			<text x="36.63" y="336.47" class="st8" v:langID="2052"><v:paragraph v:horizAlign="1"/><v:tabList/>S3</text>		</g>
		<g id="shape12-82" v:mID="12" v:groupContext="shape" transform="translate(59.8904,-202.282)">
			<title>工作表.12</title>
			<path d="M0 341.02 L70.43 341.02" class="st4"/>
		</g>
		<g id="shape13-85" v:mID="13" v:groupContext="shape" transform="translate(172.842,-188.109)">
			<title>工作表.13</title>
			<path d="M0 341.02 L99.21 341.02" class="st4"/>
		</g>
		<g id="shape14-88" v:mID="14" v:groupContext="shape" transform="translate(238.162,-184.782) rotate(18.4349)">
			<title>工作表.14</title>
			<path d="M0 341.02 L44.82 341.02" class="st4"/>
		</g>
		<g id="shape15-91" v:mID="15" v:groupContext="shape" transform="translate(58.3802,-187.286) rotate(-0.180743)">
			<title>工作表.15</title>
			<path d="M0 341.02 L112.32 341.02" class="st5"/>
		</g>
		<g id="shape17-94" v:mID="17" v:groupContext="shape" transform="translate(45.5301,-196.297)">
			<title>工作表.17</title>
			<desc>3</desc>
			<v:textBlock v:margins="rect(2,2,2,2)" v:tabSpace="42.5197"/>
			<v:textRect cx="7.12831" cy="335.02" width="14.26" height="12"/>
			<rect x="0" y="329.02" width="14.2566" height="12" class="st6"/>
			<text x="2" y="338.02" class="st7" v:langID="2052"><v:paragraph/><v:tabList/>3</text>		</g>
		<g id="shape26-97" v:mID="26" v:groupContext="shape" transform="translate(120.402,-198.094)">
			<title>工作表.26</title>
			<desc>S4</desc>
			<v:textBlock v:margins="rect(2,2,2,2)" v:tabSpace="42.5197"/>
			<v:textRect cx="41.3844" cy="333.768" width="82.77" height="14.5039"/>
			<rect x="0" y="326.516" width="82.7689" height="14.5039" class="st6"/>
			<text x="36.63" y="336.47" class="st8" v:langID="2052"><v:paragraph v:horizAlign="1"/><v:tabList/>S4</text>		</g>
		<g id="shape27-100" v:mID="27" v:groupContext="shape" transform="translate(59.7047,-172.648)">
			<title>工作表.27</title>
			<path d="M0 341.02 L70.43 341.02" class="st4"/>
		</g>
		<g id="shape28-103" v:mID="28" v:groupContext="shape" transform="translate(172.656,-158.475)">
			<title>工作表.28</title>
			<path d="M0 341.02 L99.21 341.02" class="st4"/>
		</g>
		<g id="shape29-106" v:mID="29" v:groupContext="shape" transform="translate(237.976,-155.148) rotate(18.4349)">
			<title>工作表.29</title>
			<path d="M0 341.02 L44.82 341.02" class="st4"/>
		</g>
		<g id="shape30-109" v:mID="30" v:groupContext="shape" transform="translate(58.1945,-157.653) rotate(-0.180743)">
			<title>工作表.30</title>
			<path d="M0 341.02 L112.32 341.02" class="st5"/>
		</g>
		<g id="shape32-112" v:mID="32" v:groupContext="shape" transform="translate(41.457,-166.663)">
			<title>工作表.32</title>
			<desc>-3</desc>
			<v:textBlock v:margins="rect(2,2,2,2)" v:tabSpace="42.5197"/>
			<v:textRect cx="9.80422" cy="335.02" width="19.61" height="12"/>
			<rect x="0" y="329.02" width="19.6084" height="12" class="st6"/>
			<text x="2" y="338.02" class="st7" v:langID="2052"><v:paragraph/><v:tabList/>-3</text>		</g>
		<g id="shape33-115" v:mID="33" v:groupContext="shape" transform="translate(119.61,-170.521)">
			<title>工作表.33</title>
			<desc>S5</desc>
			<v:textBlock v:margins="rect(2,2,2,2)" v:tabSpace="42.5197"/>
			<v:textRect cx="41.2606" cy="333.768" width="82.53" height="14.5039"/>
			<rect x="0" y="326.516" width="82.5213" height="14.5039" class="st6"/>
			<text x="36.51" y="336.47" class="st8" v:langID="2052"><v:paragraph v:horizAlign="1"/><v:tabList/>S5</text>		</g>
		<g id="shape42-118" v:mID="42" v:groupContext="shape" transform="translate(59.9523,-144.632)">
			<title>工作表.42</title>
			<path d="M0 341.02 L70.43 341.02" class="st4"/>
		</g>
		<g id="shape43-121" v:mID="43" v:groupContext="shape" transform="translate(172.904,-130.459)">
			<title>工作表.43</title>
			<path d="M0 341.02 L99.21 341.02" class="st4"/>
		</g>
		<g id="shape44-124" v:mID="44" v:groupContext="shape" transform="translate(238.224,-127.132) rotate(18.4349)">
			<title>工作表.44</title>
			<path d="M0 341.02 L44.82 341.02" class="st4"/>
		</g>
		<g id="shape45-127" v:mID="45" v:groupContext="shape" transform="translate(58.4421,-129.637) rotate(-0.180743)">
			<title>工作表.45</title>
			<path d="M0 341.02 L112.32 341.02" class="st5"/>
		</g>
		<g id="shape47-130" v:mID="47" v:groupContext="shape" transform="translate(41.457,-138.648)">
			<title>工作表.47</title>
			<desc>-9</desc>
			<v:textBlock v:margins="rect(2,2,2,2)" v:tabSpace="42.5197"/>
			<v:textRect cx="9.80422" cy="335.02" width="19.61" height="12"/>
			<rect x="0" y="329.02" width="19.6084" height="12" class="st6"/>
			<text x="2" y="338.02" class="st7" v:langID="2052"><v:paragraph/><v:tabList/>-9</text>		</g>
		<g id="shape48-133" v:mID="48" v:groupContext="shape" transform="translate(120.463,-140.923)">
			<title>工作表.48</title>
			<desc>S6</desc>
			<v:textBlock v:margins="rect(2,2,2,2)" v:tabSpace="42.5197"/>
			<v:textRect cx="41.3844" cy="333.768" width="82.77" height="14.5039"/>
			<rect x="0" y="326.516" width="82.7689" height="14.5039" class="st6"/>
			<text x="36.63" y="336.47" class="st8" v:langID="2052"><v:paragraph v:horizAlign="1"/><v:tabList/>S6</text>		</g>
		<g id="shape49-136" v:mID="49" v:groupContext="shape" transform="translate(60.0759,-115.955)">
			<title>工作表.49</title>
			<path d="M0 341.02 L70.43 341.02" class="st4"/>
		</g>
		<g id="shape50-139" v:mID="50" v:groupContext="shape" transform="translate(173.027,-101.782)">
			<title>工作表.50</title>
			<path d="M0 341.02 L99.21 341.02" class="st4"/>
		</g>
		<g id="shape51-142" v:mID="51" v:groupContext="shape" transform="translate(238.348,-98.4552) rotate(18.4349)">
			<title>工作表.51</title>
			<path d="M0 341.02 L44.82 341.02" class="st4"/>
		</g>
		<g id="shape52-145" v:mID="52" v:groupContext="shape" transform="translate(58.5657,-100.96) rotate(-0.180743)">
			<title>工作表.52</title>
			<path d="M0 341.02 L112.32 341.02" class="st5"/>
		</g>
		<g id="shape54-148" v:mID="54" v:groupContext="shape" transform="translate(36.7313,-109.97)">
			<title>工作表.54</title>
			<desc>-13</desc>
			<v:textBlock v:margins="rect(2,2,2,2)" v:tabSpace="42.5197"/>
			<v:textRect cx="9.80422" cy="335.02" width="19.61" height="12"/>
			<rect x="0" y="329.02" width="19.6084" height="12" class="st6"/>
			<text x="2" y="338.02" class="st7" v:langID="2052"><v:paragraph/><v:tabList/>-13</text>		</g>
		<g id="shape55-151" v:mID="55" v:groupContext="shape" transform="translate(120.587,-112.411)">
			<title>工作表.55</title>
			<desc>S7</desc>
			<v:textBlock v:margins="rect(2,2,2,2)" v:tabSpace="42.5197"/>
			<v:textRect cx="41.3844" cy="333.768" width="82.77" height="14.5039"/>
			<rect x="0" y="326.516" width="82.7689" height="14.5039" class="st6"/>
			<text x="36.63" y="336.47" class="st8" v:langID="2052"><v:paragraph v:horizAlign="1"/><v:tabList/>S7</text>		</g>
		<g id="shape56-154" v:mID="56" v:groupContext="shape" transform="translate(59.9523,-88.2524)">
			<title>工作表.56</title>
			<path d="M0 341.02 L70.43 341.02" class="st4"/>
		</g>
		<g id="shape57-157" v:mID="57" v:groupContext="shape" transform="translate(172.904,-74.0792)">
			<title>工作表.57</title>
			<path d="M0 341.02 L99.21 341.02" class="st4"/>
		</g>
		<g id="shape58-160" v:mID="58" v:groupContext="shape" transform="translate(238.224,-70.7524) rotate(18.4349)">
			<title>工作表.58</title>
			<path d="M0 341.02 L44.82 341.02" class="st4"/>
		</g>
		<g id="shape59-163" v:mID="59" v:groupContext="shape" transform="translate(58.4421,-73.257) rotate(-0.180743)">
			<title>工作表.59</title>
			<path d="M0 341.02 L112.32 341.02" class="st5"/>
		</g>
		<g id="shape60-166" v:mID="60" v:groupContext="shape" transform="translate(29.5382,-266.439)">
			<title>工作表.60</title>
			<desc>回差0.5</desc>
			<v:textBlock v:margins="rect(2,2,2,2)" v:tabSpace="42.5197"/>
			<v:textRect cx="13.5774" cy="335.02" width="27.16" height="12"/>
			<rect x="0" y="329.02" width="27.1547" height="12" class="st6"/>
			<text x="2" y="336.99" class="st10" v:langID="2052"><v:paragraph/><v:tabList/>回差<tspan class="st11">0</tspan><tspan
						class="st11">.</tspan><tspan class="st11">5</tspan></text>		</g>
		<g id="shape61-172" v:mID="61" v:groupContext="shape" transform="translate(37.9286,-81.856)">
			<title>工作表.61</title>
			<desc>-18</desc>
			<v:textBlock v:margins="rect(2,2,2,2)" v:tabSpace="42.5197"/>
			<v:textRect cx="10.1413" cy="335.02" width="20.29" height="12"/>
			<rect x="0" y="329.02" width="20.2825" height="12" class="st6"/>
			<text x="2" y="338.02" class="st7" v:langID="2052"><v:paragraph/><v:tabList/>-18</text>		</g>
		<g id="shape62-175" v:mID="62" v:groupContext="shape" transform="translate(120.463,-84.0646)">
			<title>工作表.62</title>
			<desc>S8</desc>
			<v:textBlock v:margins="rect(2,2,2,2)" v:tabSpace="42.5197"/>
			<v:textRect cx="41.3844" cy="333.768" width="82.77" height="14.5039"/>
			<rect x="0" y="326.516" width="82.7689" height="14.5039" class="st6"/>
			<text x="36.63" y="336.47" class="st8" v:langID="2052"><v:paragraph v:horizAlign="1"/><v:tabList/>S8</text>		</g>
		<g id="shape34-178" v:mID="34" v:groupContext="shape" transform="translate(120.648,-56.6749)">
			<title>工作表.34</title>
			<desc>S9</desc>
			<v:textBlock v:margins="rect(2,2,2,2)" v:tabSpace="42.5197"/>
			<v:textRect cx="41.3844" cy="333.768" width="82.77" height="14.5039"/>
			<rect x="0" y="326.516" width="82.7689" height="14.5039" class="st6"/>
			<text x="36.63" y="336.47" class="st8" v:langID="2052"><v:paragraph v:horizAlign="1"/><v:tabList/>S9</text>		</g>
		<g id="shape63-181" v:mID="63" v:groupContext="shape" transform="translate(59.7015,-59.1501)">
			<title>工作表.63</title>
			<path d="M0 341.02 L70.43 341.02" class="st4"/>
		</g>
		<g id="shape64-184" v:mID="64" v:groupContext="shape" transform="translate(172.653,-44.9769)">
			<title>工作表.64</title>
			<path d="M0 341.02 L99.21 341.02" class="st4"/>
		</g>
		<g id="shape65-187" v:mID="65" v:groupContext="shape" transform="translate(237.973,-41.6501) rotate(18.4349)">
			<title>工作表.65</title>
			<path d="M0 341.02 L44.82 341.02" class="st4"/>
		</g>
		<g id="shape66-190" v:mID="66" v:groupContext="shape" transform="translate(58.1913,-44.1546) rotate(-0.180743)">
			<title>工作表.66</title>
			<path d="M0 341.02 L112.32 341.02" class="st5"/>
		</g>
		<g id="shape67-193" v:mID="67" v:groupContext="shape" transform="translate(37.6778,-52.7536)">
			<title>工作表.67</title>
			<desc>-24</desc>
			<v:textBlock v:margins="rect(2,2,2,2)" v:tabSpace="42.5197"/>
			<v:textRect cx="10.1413" cy="335.02" width="20.29" height="12"/>
			<rect x="0" y="329.02" width="20.2825" height="12" class="st6"/>
			<text x="2" y="338.02" class="st7" v:langID="2052"><v:paragraph/><v:tabList/>-24</text>		</g>
		<g id="shape68-196" v:mID="68" v:groupContext="shape" transform="translate(120.397,-27.5725)">
			<title>工作表.68</title>
			<desc>S10</desc>
			<v:textBlock v:margins="rect(2,2,2,2)" v:tabSpace="42.5197"/>
			<v:textRect cx="41.3844" cy="333.768" width="82.77" height="14.5039"/>
			<rect x="0" y="326.516" width="82.7689" height="14.5039" class="st6"/>
			<text x="34.38" y="336.47" class="st8" v:langID="2052"><v:paragraph v:horizAlign="1"/><v:tabList/>S10</text>		</g>
	</g>
</svg>
